<svg id="svg" version="1.1" viewBox="0 0 88.96310710288363 300" width="88.96310710288363" height="300" xmlns="http://www.w3.org/2000/svg"><g xmlns="http://www.w3.org/2000/svg" fill="none" fill-rule="nonzero" stroke="none" stroke-width="1" stroke-linecap="butt" stroke-linejoin="miter" stroke-miterlimit="10" stroke-dasharray="" stroke-dashoffset="0" font-family="none" font-weight="none" font-size="none" text-anchor="none" style="mix-blend-mode: normal"><path d="M25.42705,0.0044c0.73004,0.00036 1.46008,0.00072 2.21224,0.00109c5.13583,0.28207 9.71304,1.50516 13.66088,4.87086c1.20272,1.71569 0.83684,3.88351 0.7989,5.88148c0.11488,4.04327 0.66187,8.31543 2.26026,12.05654c0.34129,0.90841 0.46413,1.77555 0.57298,2.7372c-0.25931,0.11093 -0.51863,0.22186 -0.7858,0.33615c-1.38045,1.21128 -1.39405,2.57059 -1.72876,4.34372c-0.52121,2.74875 -1.08537,4.50796 -3.07334,6.49593c-0.66079,0.08399 -1.32557,0.13834 -1.99069,0.17462c-0.53699,0.03133 -0.53699,0.03133 -1.08484,0.0633c-0.27588,0.01369 -0.55176,0.02737 -0.836,0.04147c-0.72788,2.03807 -0.94508,3.46823 -0.55879,5.5879c0.01567,0.35547 0.01567,0.35547 0.03165,0.71813c0.11407,0.89878 0.25612,1.34552 0.80653,2.07582c1.22853,0.68279 2.47794,1.19703 3.78384,1.71566c1.50576,0.62817 2.55681,1.40194 3.75982,2.47527c0.56338,0.46135 1.12803,0.92114 1.69383,1.37951c0.46009,0.37804 0.92002,0.75628 1.37951,1.13504c1.00796,-0.3675 1.83001,-0.81573 2.70664,-1.4319c1.1434,-0.80326 1.1434,-0.80326 1.76368,-0.80326c0,-0.1844 0,-0.3688 0,-0.55879c0.64394,-0.44001 1.30553,-0.85424 1.97323,-1.25728c2.26819,-1.38967 4.48178,-2.84521 6.68801,-4.33062c0.7389,-0.49525 1.47813,-0.99002 2.2177,-1.48429c0.34503,-0.23302 0.69006,-0.46604 1.04555,-0.70613c0.72488,-0.4716 1.43642,-0.87245 2.20242,-1.2671c1.40904,-1.076 1.9595,-2.4776 2.63679,-4.08615c0.1844,0 0.3688,0 0.55879,0c0.0922,-0.3688 0.1844,-0.7376 0.27939,-1.11758c0.37944,-0.66158 0.77848,-1.312 1.18743,-1.95576c0.376,-0.59318 0.376,-0.59318 0.7596,-1.19834c1.19754,-1.86113 2.40525,-3.7155 3.61904,-5.56607c0.87479,-1.36103 1.70799,-2.74235 2.53638,-4.13199c0.7039,-1.08292 1.31797,-1.88892 2.30501,-2.7241c1.71852,-1.48938 3.09504,-3.28208 4.38301,-5.15134c0.19016,-0.25931 0.38033,-0.51863 0.57625,-0.7858c0.1844,0 0.3688,0 0.55879,0c0.1844,-0.3688 0.3688,-0.7376 0.55879,-1.11758c1.6318,-1.91977 1.6318,-1.91977 3.05588,-2.078c0.28236,0.04034 0.56473,0.08068 0.85565,0.12224c0.27313,2.69719 0.27313,2.69719 -0.49767,3.75873c-0.41001,0.4129 -0.82326,0.82261 -1.23981,1.2289c-0.61993,0.63561 -0.61993,0.63561 -0.63737,1.875c0.0461,0.31694 0.0922,0.63388 0.1397,0.96042c0.26508,-0.00576 0.53015,-0.01153 0.80326,-0.01746c0.87311,0.01746 0.87311,0.01746 1.4319,0.29686c-0.0345,1.13856 -0.35895,1.48627 -1.13504,2.35739c-1.25869,1.18389 -2.57954,2.38323 -4.20729,3.00459c-0.89507,0.44734 -0.89507,0.44734 -1.1536,1.46901c-0.10373,0.58616 -0.10373,0.58616 -0.20955,1.18415c-0.32921,1.61109 -0.70269,3.09923 -1.30966,4.62748c-1.11857,2.82615 -1.93204,5.74402 -2.78522,8.65906c-1.00732,2.90443 -2.087,4.58745 -4.56636,6.35842c-0.47736,0.6434 -0.94648,1.29327 -1.39697,1.95576c-0.1844,0 -0.3688,0 -0.55879,0c-0.07491,0.22474 -0.14983,0.44948 -0.22701,0.68102c-0.10949,0.23626 -0.21898,0.47253 -0.33178,0.71595c-0.2766,0.0922 -0.5532,0.1844 -0.83818,0.27939c-0.0922,0.3688 -0.1844,0.7376 -0.27939,1.11758c-0.50052,0.44276 -1.0034,0.88305 -1.51594,1.31185c-2.54662,2.27998 -4.7406,4.96043 -6.86591,7.62879c-0.44131,0.54801 -0.88368,1.09516 -1.32713,1.64144c-0.19448,0.2413 -0.38897,0.48261 -0.58935,0.73123c-0.63074,0.73893 -1.30496,1.41432 -1.99505,2.09764c-0.2305,0.2766 -0.461,0.5532 -0.69849,0.83818c-0.66176,0.79412 -1.35536,1.51453 -2.09546,2.23516c-0.2766,0.2766 -0.5532,0.5532 -0.83818,0.83818c0.2766,0.922 0.5532,1.84401 0.83818,2.79395c-0.86767,-0.86767 -1.0654,-1.36679 -1.39697,-2.51455c-0.29965,0.1844 -0.5993,0.3688 -0.90803,0.55879c-1.04773,0.55879 -1.04773,0.55879 -2.16531,0.55879c0.0461,0.2305 0.0922,0.461 0.1397,0.69849c0.52833,3.69829 -0.79233,7.12056 -2.37376,10.41728c-1.07699,2.37607 -0.62001,5.16057 -0.00109,7.60369c0.2766,0.3688 0.5532,0.7376 0.83818,1.11758c0,0.3688 0,0.7376 0,1.11758c-0.1844,0 -0.3688,0 -0.55879,0c0.39387,3.98745 1.14278,7.68064 2.27881,11.51958c1.08773,3.99372 1.83341,8.10127 2.43161,12.19624c0.4048,2.17096 1.04285,4.22814 1.6982,6.33659c0.47377,1.53015 0.94545,3.06094 1.41444,4.59255c0.16171,0.52691 0.32342,1.05382 0.49003,1.5967c0.78914,3.34706 0.65078,6.77451 0.69849,10.19464c0.02845,2.03273 0.0569,4.06546 0.08622,6.15978c0.02341,2.01256 0.04682,4.02512 0.07094,6.09866c0.32691,6.05482 1.29836,11.65919 2.56585,17.58005c0,0.7376 0,1.4752 0,2.23516c-1.51942,0.73082 -2.99308,1.40405 -4.62748,1.83353c-0.40914,0.13254 -0.81828,0.26508 -1.23981,0.40163c-1.15022,2.30043 -1.01374,5.25581 -1.25728,7.77067c-0.22869,2.34616 -0.46114,4.69196 -0.69849,7.03726c-0.09508,1.03455 -0.09508,1.03455 -0.19208,2.09c-0.55145,3.15935 -1.52213,6.16139 -2.46217,9.22549c-0.37745,1.23606 -0.75489,2.47212 -1.14377,3.74564c-0.31406,1.02285 -0.62811,2.04569 -0.95169,3.09954c-1.03047,3.60666 -0.98333,7.43091 -1.23981,11.15833c-0.93857,13.62542 -3.08928,27.05023 -5.07604,40.557c-1.39493,10.23322 -0.65221,16.28989 5.07713,24.48743c0.40054,0.63082 0.40054,0.63082 0.40054,1.18961c1.90949,0.469 3.78113,0.7072 5.74069,0.87857c1.16804,0.28937 1.58565,0.73712 2.36176,1.63599c0.25931,0.21898 0.51863,0.43795 0.7858,0.66356c1.65293,2.73915 0.49984,7.21823 0.05239,10.23284c-0.0922,0.1844 -0.1844,0.3688 -0.27939,0.55879c-1.8566,0.40152 -3.72146,0.76462 -5.5879,1.11758c-1.44171,0.27804 -2.88342,0.55608 -4.36882,0.84255c-2.35813,0.44732 -2.35813,0.44732 -4.7639,0.90367c-1.58001,0.30109 -3.16002,0.60218 -4.78791,0.9124c-4.35167,0.76265 -7.536,0.58151 -11.85354,-0.09168c-0.94649,-0.14586 -1.89299,-0.29173 -2.86816,-0.44201c-6.01315,-1.01788 -6.01315,-1.01788 -6.56142,-1.56614c-0.06552,-3.24174 -0.10085,-6.4841 -0.12224,-9.72643c-0.01693,-1.79971 -0.03385,-3.59941 -0.05129,-5.45366c0.05726,-1.44459 0.11453,-2.88918 0.17353,-4.37755c1.67637,-1.11758 1.67637,-1.11758 2.23516,-1.11758c-0.14694,-0.39762 -0.14694,-0.39762 -0.29686,-0.80326c-0.51269,-2.25583 -0.02339,-4.61994 0.85565,-6.7404c0.46245,-0.6542 0.92791,-1.30629 1.39697,-1.95576c1.9066,-5.53823 -0.82353,-12.41725 -1.88592,-17.82888c-0.4538,-2.31833 -0.9076,-4.63667 -1.37515,-7.02525c-0.59858,-3.04855 -0.59858,-3.04855 -1.20925,-6.15869c-1.95903,-10.2849 -0.46491,-17.85335 1.95576,-27.93949c0.16136,-6.10435 0.23224,-12.21135 0.24447,-18.31783c0.0108,-3.25618 0.02161,-6.51237 0.03274,-9.86722c0.00072,-2.50057 0.00144,-5.00115 0.00218,-7.57749c-0.5532,-0.1844 -1.1064,-0.3688 -1.67637,-0.55879c-1.21392,-0.55178 -2.42505,-1.10978 -3.63213,-1.67637c-0.01765,-0.51647 -0.0353,-1.03293 -0.05348,-1.56505c-0.36485,-7.88845 -1.65149,-15.59743 -2.93474,-23.37968c-1.07403,-7.17734 0.27409,-14.01386 2.42942,-20.87603c0.44259,-1.41437 0.88496,-2.82881 1.32713,-4.24331c0.21177,-0.66665 0.42355,-1.3333 0.64174,-2.02016c0.85816,-2.89199 1.21911,-5.60304 1.4188,-8.61431c0.04682,-0.68142 0.09364,-1.36284 0.14188,-2.0649c0.03385,-0.67854 0.06771,-1.35707 0.10259,-2.05617c0.05186,-0.62235 0.10373,-1.2447 0.15716,-1.88592c-0.21393,-2.75729 -1.24211,-4.77368 -2.42724,-7.26427c-2.43806,-5.15952 -4.1637,-10.21038 -5.51805,-15.75089c-0.32738,-1.33222 -0.32738,-1.33222 -0.66138,-2.69136c-0.16207,-0.66773 -0.32414,-1.33547 -0.49112,-2.02343c-1.65961,0.0922 -3.31921,0.1844 -5.02911,0.27939c0.12382,-1.42395 0.26557,-2.73672 0.60245,-4.1309c0.3071,-2.262 0.0144,-4.26101 -0.28813,-6.52103c-0.96312,-7.30312 -0.3512,-13.07211 3.10063,-19.69843c0.52241,-1.01943 0.52241,-1.01943 1.05537,-2.05944c0.54312,-0.92848 1.08623,-1.85697 1.64581,-2.81359c2.01627,-5.49695 1.70049,-10.43883 1.61962,-16.27257c-0.18629,-14.50927 -0.18629,-14.50927 3.99884,-19.52272c1.92171,-1.75431 4.03964,-2.85957 6.42608,-3.85914c0.62776,-0.30253 0.62776,-0.30253 1.26819,-0.61118c1.97479,-0.65544 3.69114,-0.64394 5.76907,-0.62864z" fill="#b6d1a0"/><path d="M53.03476,171.39568c0.04547,3.95775 -0.10251,7.829 -0.47148,11.76951c-0.08752,0.97459 -0.17504,1.94917 -0.26521,2.95329c-0.4925,3.72267 -1.40219,7.13169 -2.65971,10.66612c-2.79001,7.98218 -3.42249,15.73109 -3.88752,24.14583c-0.69719,11.77891 -2.90414,23.48514 -4.61984,35.14918c-1.39493,10.23322 -0.65221,16.28989 5.07713,24.48743c0.40054,0.63082 0.40054,0.63082 0.40054,1.18961c1.90949,0.469 3.78113,0.7072 5.74069,0.87857c1.16804,0.28937 1.58565,0.73712 2.36176,1.63599c0.38897,0.32846 0.38897,0.32846 0.7858,0.66356c1.65293,2.73915 0.49984,7.21823 0.05239,10.23284c-0.0922,0.1844 -0.1844,0.3688 -0.27939,0.55879c-1.8566,0.40152 -3.72146,0.76462 -5.5879,1.11758c-1.44171,0.27804 -2.88342,0.55608 -4.36882,0.84255c-1.57209,0.29821 -3.14417,0.59642 -4.7639,0.90367c-1.58001,0.30109 -3.16002,0.60218 -4.78791,0.9124c-4.35167,0.76265 -7.536,0.58151 -11.85354,-0.09168c-0.94649,-0.14586 -1.89299,-0.29173 -2.86816,-0.44201c-6.01315,-1.01788 -6.01315,-1.01788 -6.56142,-1.56614c-0.06552,-3.24174 -0.10085,-6.4841 -0.12224,-9.72643c-0.01693,-1.79971 -0.03385,-3.59941 -0.05129,-5.45366c0.05726,-1.44459 0.11453,-2.88918 0.17353,-4.37755c1.67637,-1.11758 1.67637,-1.11758 2.23516,-1.11758c-0.09796,-0.26508 -0.19593,-0.53015 -0.29686,-0.80326c-0.51269,-2.25583 -0.02339,-4.61994 0.85565,-6.7404c0.46245,-0.6542 0.92791,-1.30629 1.39697,-1.95576c1.9066,-5.53823 -0.82353,-12.41725 -1.88592,-17.82888c-0.4538,-2.31833 -0.9076,-4.63667 -1.37515,-7.02525c-0.59858,-3.04855 -0.59858,-3.04855 -1.20925,-6.15869c-1.95903,-10.2849 -0.46491,-17.85335 1.95576,-27.93949c0.16143,-6.15093 0.23225,-12.30449 0.24447,-18.45752c0.0108,-3.28212 0.02161,-6.56423 0.03274,-9.9458c0.00072,-2.52074 0.00144,-5.04148 0.00218,-7.63861c6.90138,0.30006 6.90138,0.30006 10.35507,0.71595c9.16277,0.8779 17.70213,-1.55413 26.24565,-1.55413z" fill="#ab7e50"/><path d="M52.19657,109.92881c0.047,0.43381 0.047,0.43381 0.09495,0.87638c0.56994,4.33971 1.92326,8.37879 3.25779,12.53457c0.28623,0.92924 0.56688,1.86024 0.83818,2.79395c0.10373,0.35152 0.20745,0.70303 0.31432,1.06519c0.67758,3.24268 0.54889,6.59632 0.59481,9.88796c0.02845,2.03273 0.0569,4.06546 0.08622,6.15978c0.02341,2.01256 0.04682,4.02512 0.07094,6.09866c0.32691,6.05482 1.29836,11.65919 2.56585,17.58005c0,0.7376 0,1.4752 0,2.23516c-1.51942,0.73082 -2.99308,1.40405 -4.62748,1.83353c-0.40914,0.13254 -0.81828,0.26508 -1.23981,0.40163c-0.54542,1.09085 -0.70028,1.87813 -0.83818,3.07334c-0.0922,0 -0.1844,0 -0.27939,0c0,-1.0142 0,-2.02841 0,-3.07334c-0.56023,0.20691 -0.56023,0.20691 -1.13177,0.418c-0.48513,0.179 -0.97027,0.358 -1.4701,0.54242c-0.72446,0.26742 -0.72446,0.26742 -1.46355,0.54024c-8.00361,2.93021 -19.34512,0.68511 -27.68519,-0.1386c-2.64087,-0.28782 -2.64087,-0.28782 -5.40891,-0.24447c-1.31185,-0.48894 -1.31185,-0.48894 -2.54948,-1.11758c-0.41562,-0.20745 -0.83124,-0.4149 -1.25946,-0.62864c-0.31046,-0.16135 -0.62091,-0.3227 -0.94078,-0.48894c-0.01765,-0.51647 -0.0353,-1.03293 -0.05348,-1.56505c-0.36485,-7.88845 -1.65149,-15.59743 -2.93474,-23.37968c-1.07397,-7.17691 0.27214,-14.01245 2.42942,-20.87603c0.13794,-0.44803 0.27588,-0.89607 0.418,-1.35769c0.32175,-1.03908 0.64777,-2.07654 0.97897,-3.11263c0.1844,0 0.3688,0 0.55879,0c0.13254,-0.38609 0.26508,-0.77218 0.40163,-1.16997c0.07455,-0.21717 0.1491,-0.43435 0.22592,-0.65811c0.21176,-0.69014 0.3602,-1.37377 0.49003,-2.08346c0.60546,0.12755 1.21079,0.25574 1.81607,0.38417c0.3598,0.07599 0.7196,0.15199 1.09029,0.23028c0.71944,0.16014 1.43277,0.34873 2.14021,0.55552c3.44425,0.71072 7.14434,0.04821 10.59954,-0.27939c1.0142,-0.094 2.02841,-0.188 3.07334,-0.28485c2.21703,-0.25894 4.27149,-0.60794 6.42608,-1.16451c0.48982,-0.0922 0.97963,-0.1844 1.48429,-0.27939c1.95089,-0.41619 3.42433,-0.93448 4.9418,-2.23516c0.2766,-0.0922 0.5532,-0.1844 0.83818,-0.27939c0.1844,-0.2766 0.3688,-0.5532 0.55879,-0.83818c-0.922,-0.2766 -1.84401,-0.5532 -2.79395,-0.83818c0,-0.0922 0,-0.1844 0,-0.27939c1.23975,-0.14025 2.47958,-0.27983 3.71944,-0.41909c1.03563,-0.11669 1.03563,-0.11669 2.09219,-0.23574c1.73203,-0.18335 1.73203,-0.18335 2.57021,-0.18335z" fill="#62ad72"/><path d="M25.42705,0.0044c0.73004,0.00036 1.46008,0.00072 2.21224,0.00109c5.11334,0.28084 9.73909,1.49335 13.66088,4.87086c1.01257,1.59815 0.92692,3.47471 0.83818,5.3085c-0.1844,0 -0.3688,0 -0.55879,0c-0.10949,0.43219 -0.21898,0.86438 -0.33178,1.30966c-1.02234,3.67576 -2.64696,6.88709 -4.46268,10.24375c-1.57634,3.13534 -2.54482,6.51022 -3.63977,9.83776c-0.29785,0.89931 -0.5957,1.79863 -0.90258,2.72519c-1.10203,3.70624 -0.94319,6.39248 -0.4944,10.24921c0.09976,0.8759 0.19953,1.75181 0.30231,2.65425c0.2281,1.75388 0.49891,3.44303 0.86765,5.1688c1.47394,8.78952 1.47394,8.78952 -0.17353,12.26281c-0.6805,1.5345 -1.07401,3.16076 -1.50284,4.78027c-1.15223,-0.57612 -1.51229,-0.97196 -2.27008,-1.97323c-0.69411,-0.98033 -0.69411,-0.98033 -1.64144,-1.65891c-0.05763,0.39185 -0.11525,0.7837 -0.17462,1.18743c-0.3536,1.81478 -1.18029,3.34824 -2.06054,4.95926c-0.3688,0 -0.7376,0 -1.11758,0c-0.59808,-0.67229 -0.59808,-0.67229 -1.18743,-1.53667c-0.29605,-0.42787 -0.29605,-0.42787 -0.59808,-0.86438c-0.22258,-0.33278 -0.22258,-0.33278 -0.44965,-0.67229c-1.01901,0.33967 -1.25258,0.71336 -1.90338,1.55413c-0.19845,0.24995 -0.39689,0.4999 -0.60135,0.75742c-0.56708,0.73449 -0.56708,0.73449 -0.9888,1.45372c-0.38308,0.61773 -0.38308,0.61773 -1.25618,1.54322c-2.34237,0.12493 -4.48052,-0.75515 -6.58652,-1.72985c-0.74438,-0.31551 -0.74438,-0.31551 -1.79533,0.05348c-0.45071,0.39778 -0.88596,0.81338 -1.30966,1.23981c-1.60268,1.48483 -2.93417,1.78283 -5.09896,1.88592c-0.85565,-0.05239 -0.85565,-0.05239 -1.41444,-0.33178c0.03313,-0.25283 0.06627,-0.50566 0.10041,-0.76615c0.37182,-3.93387 -0.17043,-7.71191 -0.6843,-11.61562c-0.73792,-6.22953 0.55236,-11.58704 3.44005,-17.1304c0.52241,-1.01943 0.52241,-1.01943 1.05537,-2.05944c0.54312,-0.92848 1.08623,-1.85697 1.64581,-2.81359c2.01627,-5.49695 1.70049,-10.43883 1.61962,-16.27257c-0.18629,-14.50927 -0.18629,-14.50927 3.99884,-19.52272c1.92171,-1.75431 4.03964,-2.85957 6.42608,-3.85914c0.62776,-0.30253 0.62776,-0.30253 1.26819,-0.61118c1.97479,-0.65544 3.69114,-0.64394 5.76907,-0.62864z" fill="#1b0f0c"/><path d="M29.28619,264.99296c0.2766,0.0922 0.5532,0.1844 0.83818,0.27939c1.41954,0.47318 2.37729,0.9878 3.47497,2.02561c0.91709,0.8697 0.91709,0.8697 1.99069,0.76834c0.61515,-0.17895 1.22698,-0.37002 1.83353,-0.57625c0.80326,-0.26193 0.80326,-0.26193 2.20023,-0.26193c0.1383,0.5532 0.1383,0.5532 0.27939,1.11758c0.1844,0 0.3688,0 0.55879,0c0.07167,0.31118 0.14334,0.62235 0.21718,0.94296c1.07426,4.28256 3.01643,7.68345 5.52896,11.27839c0.40054,0.63082 0.40054,0.63082 0.40054,1.18961c1.90949,0.469 3.78113,0.7072 5.74069,0.87857c1.16804,0.28937 1.58565,0.73712 2.36176,1.63599c0.38897,0.32846 0.38897,0.32846 0.7858,0.66356c1.65293,2.73915 0.49984,7.21823 0.05239,10.23284c-0.0922,0.1844 -0.1844,0.3688 -0.27939,0.55879c-1.8566,0.40152 -3.72146,0.76462 -5.5879,1.11758c-1.44171,0.27804 -2.88342,0.55608 -4.36882,0.84255c-1.57209,0.29821 -3.14417,0.59642 -4.7639,0.90367c-1.58001,0.30109 -3.16002,0.60218 -4.78791,0.9124c-4.35167,0.76265 -7.536,0.58151 -11.85354,-0.09168c-1.41974,-0.2188 -1.41974,-0.2188 -2.86816,-0.44201c-6.01315,-1.01788 -6.01315,-1.01788 -6.56142,-1.56614c-0.06552,-3.24174 -0.10085,-6.4841 -0.12224,-9.72643c-0.01693,-1.79971 -0.03385,-3.59941 -0.05129,-5.45366c0.05726,-1.44459 0.11453,-2.88918 0.17353,-4.37755c1.67637,-1.11758 1.67637,-1.11758 2.23516,-1.11758c-0.09796,-0.26508 -0.19593,-0.53015 -0.29686,-0.80326c-0.51304,-2.25739 -0.02198,-4.61828 0.85565,-6.7404c0.4602,-0.65578 0.92576,-1.30785 1.39697,-1.95576c0.29927,-0.8313 0.58094,-1.66931 0.83818,-2.51455c0.1844,-0.3688 0.3688,-0.7376 0.55879,-1.11758c3.08104,-0.77026 6.46561,-0.14819 9.22003,1.39697z" fill="#050505"/><path d="M46.04989,209.67277c0.0922,0 0.1844,0 0.27939,0c0,12.32963 -1.8615,24.45494 -3.70198,36.61819c-1.78149,10.98467 -1.78149,10.98467 -2.44471,22.05473c-0.1844,-0.2766 -0.3688,-0.5532 -0.55879,-0.83818c-1.08782,0.11253 -2.07621,0.22217 -3.10827,0.59371c-0.99329,0.30231 -1.49282,0.29401 -2.47963,-0.03492c-0.57055,-0.54678 -1.1291,-1.10629 -1.67637,-1.67637c-1.31537,-0.78922 -2.73425,-1.21023 -4.19092,-1.67637c-0.43219,-0.14983 -0.86438,-0.29965 -1.30966,-0.45402c-1.68842,-0.53834 -3.17192,-0.69772 -4.9418,-0.68102c-0.34791,0.00252 -0.69582,0.00504 -1.05428,0.00764c-0.26291,0.00324 -0.52583,0.00648 -0.79671,0.00982c-0.2766,0.5532 -0.2766,0.5532 -0.55879,1.11758c-0.4149,-2.76601 -0.4149,-2.76601 -0.83818,-5.5879c-0.89099,-4.6122 -1.79468,-9.22195 -2.70664,-13.83005c-2.60186,-13.15033 -2.60186,-13.15033 -2.60186,-14.38884c0.1844,0 0.3688,0 0.55879,0c0,0.32846 0,0.65693 0,0.99534c0.3345,1.48434 0.76019,1.79962 1.90883,2.70227c0.58615,0.47737 1.04616,0.9632 1.53122,1.54104c1.2768,1.5084 2.69583,2.8759 4.10361,4.26077c0.5532,-0.2766 0.5532,-0.2766 1.11758,-0.55879c0.5532,-0.2766 0.5532,-0.2766 1.11758,-0.55879c0.1844,-0.3688 0.3688,-0.7376 0.55879,-1.11758c1.33443,-1.38922 2.6878,-2.7603 4.05123,-4.12107c0.74048,-0.74192 1.48097,-1.48385 2.24389,-2.24826c1.80734,-1.73312 1.80734,-1.73312 2.36613,-1.73312c0.2766,-0.5532 0.2766,-0.5532 0.55879,-1.11758c0.83818,-0.90803 0.83818,-0.90803 1.67637,-1.67637c0.1844,0 0.3688,0 0.55879,0c0.1844,-0.3688 0.3688,-0.7376 0.55879,-1.11758c0.2766,-0.2766 0.5532,-0.5532 0.83818,-0.83818c0.1844,0 0.3688,0 0.55879,0c0.1844,-0.3688 0.3688,-0.7376 0.55879,-1.11758c0.2766,-0.2766 0.5532,-0.5532 0.83818,-0.83818c0.1844,0 0.3688,0 0.55879,0c0,-0.1844 0,-0.3688 0,-0.55879c-0.1844,0 -0.3688,0 -0.55879,0c0,-0.1844 0,-0.3688 0,-0.55879c0.2766,-0.0922 0.5532,-0.1844 0.83818,-0.27939c0,0.1844 0,0.3688 0,0.55879c0.1844,0 0.3688,0 0.55879,0c0.1844,-0.3688 0.3688,-0.7376 0.55879,-1.11758c0.33423,-0.27444 0.66845,-0.54888 1.01281,-0.83164c2.04536,-1.70569 3.29298,-2.88887 3.8766,-5.54861c0.12528,-1.79506 0.18356,-3.55589 0.1397,-5.35434z" fill="#ac8153"/><path d="M88.7973,10.46424c0.27313,2.69719 0.27313,2.69719 -0.49767,3.75873c-0.41001,0.4129 -0.82326,0.82261 -1.23981,1.2289c-0.61993,0.63561 -0.61993,0.63561 -0.63737,1.875c0.0461,0.31694 0.0922,0.63388 0.1397,0.96042c0.26508,-0.00576 0.53015,-0.01153 0.80326,-0.01746c0.87311,0.01746 0.87311,0.01746 1.4319,0.29686c-0.0345,1.13856 -0.35895,1.48627 -1.13504,2.35739c-1.25869,1.18389 -2.57954,2.38323 -4.20729,3.00459c-0.89507,0.44734 -0.89507,0.44734 -1.1536,1.46901c-0.06915,0.39077 -0.1383,0.78154 -0.20955,1.18415c-0.32921,1.61109 -0.70269,3.09923 -1.30966,4.62748c-1.11857,2.82615 -1.93204,5.74402 -2.78522,8.65906c-1.00732,2.90443 -2.087,4.58745 -4.56636,6.35842c-0.47736,0.6434 -0.94648,1.29327 -1.39697,1.95576c-0.1844,0 -0.3688,0 -0.55879,0c-0.07491,0.22474 -0.14983,0.44948 -0.22701,0.68102c-0.10949,0.23626 -0.21898,0.47253 -0.33178,0.71595c-0.2766,0.0922 -0.5532,0.1844 -0.83818,0.27939c-0.0922,0.3688 -0.1844,0.7376 -0.27939,1.11758c-0.50052,0.44276 -1.0034,0.88305 -1.51594,1.31185c-2.54662,2.27998 -4.7406,4.96043 -6.86591,7.62879c-0.44131,0.54801 -0.88368,1.09516 -1.32713,1.64144c-0.29173,0.36196 -0.29173,0.36196 -0.58935,0.73123c-0.63074,0.73893 -1.30496,1.41432 -1.99505,2.09764c-0.2305,0.2766 -0.461,0.5532 -0.69849,0.83818c-0.66176,0.79412 -1.35536,1.51453 -2.09546,2.23516c-0.2766,0.2766 -0.5532,0.5532 -0.83818,0.83818c0.2766,0.922 0.5532,1.84401 0.83818,2.79395c-0.86767,-0.86767 -1.0654,-1.36679 -1.39697,-2.51455c-0.29389,0.1844 -0.58778,0.3688 -0.89057,0.55879c-1.06519,0.55879 -1.06519,0.55879 -2.46217,0.55879c-0.2766,-0.0922 -0.5532,-0.1844 -0.83818,-0.27939c-0.38897,0.06051 -0.38897,0.06051 -0.7858,0.12224c-4.23626,0.56905 -6.95314,-0.0219 -10.39,-2.54948c-0.52727,-0.40788 -0.52727,-0.40788 -1.06519,-0.824c-0.83357,-0.68956 -0.83357,-0.68956 -1.72876,-0.93968c-0.2,-1.84764 -0.2384,-3.25087 0.87311,-4.8021c0.16207,-0.19989 0.32414,-0.39977 0.49112,-0.60572c0.65901,-0.79218 0.65901,-0.79218 1.34786,-1.96668c1.65591,-2.31592 4.29098,-4.23808 7.08528,-4.91451c0.85028,-0.06347 1.64782,-0.08229 2.496,-0.00436c0.0922,-0.2766 0.1844,-0.5532 0.27939,-0.83818c0.1844,0 0.3688,0 0.55879,0c0,-0.3688 0,-0.7376 0,-1.11758c1.88592,-1.11758 1.88592,-1.11758 2.51455,-1.11758c0,-0.1844 0,-0.3688 0,-0.55879c0.64394,-0.44001 1.30553,-0.85424 1.97323,-1.25728c2.26819,-1.38967 4.48178,-2.84521 6.68801,-4.33062c0.7389,-0.49525 1.47813,-0.99002 2.2177,-1.48429c0.34503,-0.23302 0.69006,-0.46604 1.04555,-0.70613c0.72488,-0.4716 1.43642,-0.87245 2.20242,-1.2671c1.40904,-1.076 1.9595,-2.4776 2.63679,-4.08615c0.1844,0 0.3688,0 0.55879,0c0.1383,-0.5532 0.1383,-0.5532 0.27939,-1.11758c0.37944,-0.66158 0.77848,-1.312 1.18743,-1.95576c0.376,-0.59318 0.376,-0.59318 0.7596,-1.19834c1.19754,-1.86113 2.40525,-3.7155 3.61904,-5.56607c0.87479,-1.36103 1.70799,-2.74235 2.53638,-4.13199c0.7039,-1.08292 1.31797,-1.88892 2.30501,-2.7241c1.71852,-1.48938 3.09504,-3.28208 4.38301,-5.15134c0.19016,-0.25931 0.38033,-0.51863 0.57625,-0.7858c0.1844,0 0.3688,0 0.55879,0c0.1844,-0.3688 0.3688,-0.7376 0.55879,-1.11758c1.90594,-2.24228 1.90594,-2.24228 3.91153,-1.95576z" fill="#ab8153"/><path d="M21.74253,241.24439c1.36205,0.97788 1.36205,0.97788 1.67637,2.23516c0.3688,0.1844 0.7376,0.3688 1.11758,0.55879c1.01956,0.73918 1.74282,1.52577 2.51455,2.51455c0.45973,0.47152 0.9256,0.9371 1.39697,1.39697c0.46604,0.46527 0.93166,0.93097 1.39697,1.39697c0.2305,0.2305 0.461,0.461 0.69849,0.69849c2.09546,2.09546 2.09546,2.09546 2.81141,2.82887c0.721,0.73096 0.721,0.73096 1.7986,1.50175c0,0.1844 0,0.3688 0,0.55879c0.1844,0 0.3688,0 0.55879,0c0.73341,0.66356 0.73341,0.66356 1.39697,1.39697c0,0.1844 0,0.3688 0,0.55879c0.1844,0.0922 0.3688,0.1844 0.55879,0.27939c1.90155,1.56795 1.90155,1.56795 2.23516,2.23516c0.06602,1.50121 0.11576,3.00315 0.15716,4.50524c0.02341,0.82476 0.04682,1.64952 0.07094,2.49927c0.01693,0.63892 0.03385,1.27784 0.05129,1.93612c-0.1844,-0.2766 -0.3688,-0.5532 -0.55879,-0.83818c-1.08782,0.11253 -2.07621,0.22217 -3.10827,0.59371c-0.99329,0.30231 -1.49282,0.29401 -2.47963,-0.03492c-0.57055,-0.54678 -1.1291,-1.10629 -1.67637,-1.67637c-1.31537,-0.78922 -2.73425,-1.21023 -4.19092,-1.67637c-0.43219,-0.14983 -0.86438,-0.29965 -1.30966,-0.45402c-1.68842,-0.53834 -3.17192,-0.69772 -4.9418,-0.68102c-0.34791,0.00252 -0.69582,0.00504 -1.05428,0.00764c-0.26291,0.00324 -0.52583,0.00648 -0.79671,0.00982c-0.1844,0.3688 -0.3688,0.7376 -0.55879,1.11758c-0.03782,-0.28668 -0.07563,-0.57337 -0.1146,-0.86874c-0.59063,-4.20162 -1.43111,-8.34457 -2.281,-12.50074c-0.63957,-3.65516 -0.63957,-3.65516 -0.39836,-5.07058c1.10012,-1.37296 1.10012,-1.37296 2.51455,-2.68918c0.46677,-0.44155 0.93353,-0.88311 1.41444,-1.33804c0.36304,-0.33062 0.72608,-0.66125 1.10012,-1.00189z" fill="#ab7f51"/><path d="M41.57957,10.18485c0.0922,0 0.1844,0 0.27939,0c0.07095,0.546 0.1419,1.092 0.215,1.65454c0.09616,0.72176 0.19232,1.44351 0.2914,2.18714c0.094,0.71311 0.188,1.42622 0.28485,2.16095c0.44453,2.86047 1.10717,5.33369 2.28209,7.96712c0,0.461 0,0.922 0,1.39697c-0.25931,0.13974 -0.51863,0.27948 -0.7858,0.42346c-1.42864,1.1135 -1.40121,2.52119 -1.72876,4.25641c-0.52121,2.74875 -1.08537,4.50796 -3.07334,6.49593c-0.66079,0.08399 -1.32557,0.13834 -1.99069,0.17462c-0.53699,0.03133 -0.53699,0.03133 -1.08484,0.0633c-0.41382,0.02053 -0.41382,0.02053 -0.836,0.04147c-0.71832,2.0113 -0.87168,3.46893 -0.55879,5.5879c0.05626,0.61666 0.10861,1.23368 0.15716,1.85099c0.02341,0.28597 0.04682,0.57193 0.07094,0.86656c0.01693,0.20961 0.03385,0.41922 0.05129,0.63519c-2.16531,1.39697 -2.16531,1.39697 -2.79395,1.39697c0,0.7376 0,1.4752 0,2.23516c-0.0922,0 -0.1844,0 -0.27939,0c-0.19571,-1.61773 -0.38694,-3.236 -0.57625,-4.85449c-0.10697,-0.90111 -0.21393,-1.80223 -0.32414,-2.73065c-0.34673,-3.94815 0.43244,-6.63287 1.68619,-10.41837c0.29569,-0.89859 0.59138,-1.79719 0.89603,-2.72301c1.85417,-5.48475 1.85417,-5.48475 3.17266,-7.87654c1.89217,-3.51183 3.36774,-7.00985 4.64494,-10.79163z" fill="#ab8154"/><path d="M40.18259,268.34569c0.6216,0.9324 0.75548,1.61625 0.99534,2.70664c0.91757,3.54749 2.95034,6.53885 5.0302,9.51471c0.40054,0.63082 0.40054,0.63082 0.40054,1.18961c1.90949,0.469 3.78113,0.7072 5.74069,0.87857c1.16804,0.28937 1.58565,0.73712 2.36176,1.63599c0.25931,0.21898 0.51863,0.43795 0.7858,0.66356c1.39322,2.30876 0.61603,5.68332 0.33178,8.27707c-0.0922,0 -0.1844,0 -0.27939,0c-0.0078,-0.48891 -0.01307,-0.97787 -0.01746,-1.46682c-0.00324,-0.27228 -0.00648,-0.54456 -0.00982,-0.82509c0.03799,-1.47706 0.17583,-2.94222 0.30668,-4.41357c-0.67998,0.08068 -1.35995,0.16135 -2.06054,0.24447c-1.33114,0.15559 -1.33114,0.15559 -2.68918,0.31432c-0.88166,0.10373 -1.76333,0.20745 -2.67171,0.31432c-4.28991,0.44488 -4.28991,0.44488 -5.32596,-0.2412c-0.21898,-0.20853 -0.43795,-0.41706 -0.66356,-0.63191c-0.55546,-0.39471 -1.11452,-0.7844 -1.67637,-1.16997c-0.31514,-0.21934 -0.63028,-0.43867 -0.95496,-0.66466c-0.67322,-0.45738 -1.35536,-0.90186 -2.04526,-1.33367c-0.32954,-0.21069 -0.65909,-0.42139 -0.99862,-0.63846c-0.4565,-0.282 -0.4565,-0.282 -0.92222,-0.5697c-0.66684,-0.65265 -0.66684,-0.65265 -0.79235,-1.55632c0.60436,-5.06609 0.60436,-5.06609 1.74622,-6.38133c0.56206,-0.34597 0.56206,-0.34597 1.73203,-0.81745c0.3688,-0.21321 0.7376,-0.42643 1.11758,-0.6461c0.2766,-0.15559 0.5532,-0.31118 0.83818,-0.47148c-0.0461,-0.2305 -0.0922,-0.461 -0.1397,-0.69849c-0.15457,-1.08196 -0.15852,-2.1215 -0.1397,-3.21304z" fill="#aa8156"/><path d="M19.22798,264.99296c0.0922,0 0.1844,0 0.27939,0c0.03492,2.16531 0.03492,2.16531 -0.27939,2.79395c0.29677,-0.01297 0.59354,-0.02593 0.8993,-0.03929c2.29069,-0.05852 3.80122,-0.03357 5.80617,1.15687c1.13013,0.42178 2.26685,0.81961 3.40731,1.21253c1.19935,0.52333 1.90747,0.83891 2.73938,1.86081c0.16371,1.66436 0.16371,1.66436 0.10477,3.57975c-0.01513,0.63568 -0.03025,1.27136 -0.04584,1.9263c-0.01945,0.48801 -0.0389,0.97603 -0.05894,1.47883c-2.10996,-0.32733 -4.13831,-0.75685 -6.19907,-1.30966c-3.47085,-0.81695 -6.75334,-0.66348 -10.28522,-0.36671c0.3688,-0.1844 0.7376,-0.3688 1.11758,-0.55879c-0.09796,-0.26508 -0.19593,-0.53015 -0.29686,-0.80326c-0.51269,-2.25583 -0.02339,-4.61994 0.85565,-6.7404c0.46245,-0.6542 0.92791,-1.30629 1.39697,-1.95576c0.37379,-1.19025 0.37379,-1.19025 0.55879,-2.23516z" fill="#a87d50"/><path d="M13.36069,230.90678c0.1844,0 0.3688,0 0.55879,0c0,0.32846 0,0.65693 0,0.99534c0.3345,1.48434 0.76019,1.79962 1.90883,2.70227c0.58615,0.47737 1.04616,0.9632 1.53122,1.54104c1.2768,1.5084 2.69583,2.8759 4.10361,4.26077c0.3688,-0.1844 0.7376,-0.3688 1.11758,-0.55879c0.3688,-0.1844 0.7376,-0.3688 1.11758,-0.55879c-1.72823,2.09398 -3.68598,3.93344 -5.63701,5.81709c-1.17701,1.08428 -1.17701,1.08428 -1.34786,2.56476c-0.0922,0 -0.1844,0 -0.27939,0c-0.5135,-2.58415 -1.02543,-5.16861 -1.53667,-7.75321c-0.28525,-1.43919 -0.57049,-2.87838 -0.86438,-4.36118c-0.67229,-3.53172 -0.67229,-3.53172 -0.67229,-4.6493z" fill="#b28a5f"/><path d="M52.19657,109.92881c0.41159,1.82642 0.61912,3.43816 0.55879,5.3085c-1.4752,-0.2766 -2.95041,-0.5532 -4.47032,-0.83818c0,-0.6454 0,-1.2908 0,-1.95576c-0.6454,0.0922 -1.2908,0.1844 -1.95576,0.27939c0.0922,-0.2766 0.1844,-0.5532 0.27939,-0.83818c-0.922,-0.2766 -1.84401,-0.5532 -2.79395,-0.83818c0,-0.0922 0,-0.1844 0,-0.27939c1.23975,-0.14025 2.47958,-0.27983 3.71944,-0.41909c1.03563,-0.11669 1.03563,-0.11669 2.09219,-0.23574c1.73203,-0.18335 1.73203,-0.18335 2.57021,-0.18335z" fill="#70b37a"/><path d="M34.5947,37.84494c0.27939,1.11758 0.27939,1.11758 0.12224,2.16531c-0.26712,1.98668 0.14461,3.97071 0.43655,5.93714c-2.16531,1.39697 -2.16531,1.39697 -2.79395,1.39697c0,0.7376 0,1.4752 0,2.23516c-0.0922,0 -0.1844,0 -0.27939,0c-0.06172,-1.05917 -0.11913,-2.1186 -0.17462,-3.17812c-0.03242,-0.58994 -0.06483,-1.17988 -0.09822,-1.78769c-0.00216,-0.48189 -0.00432,-0.96378 -0.00655,-1.46027c0.1844,-0.1844 0.3688,-0.3688 0.55879,-0.55879c0.08644,-0.27084 0.17288,-0.54168 0.26193,-0.82072c0.29686,-0.85565 0.29686,-0.85565 1.13504,-1.69383c0.29742,-0.73804 0.57917,-1.48278 0.83818,-2.23516z" fill="#ae885d"/><path d="M46.04989,209.67277c0.0922,0 0.1844,0 0.27939,0c0.08442,3.92804 -0.24645,7.80311 -0.55879,11.71712c-0.10373,1.31061 -0.20745,2.62123 -0.31432,3.97155c-0.08068,1.00016 -0.16135,2.00032 -0.24447,3.03078c-0.0922,0 -0.1844,0 -0.27939,0c0.00486,-0.8325 0.00486,-0.8325 0.00982,-1.68183c0.00252,-0.71851 0.00504,-1.43703 0.00764,-2.17732c0.00324,-0.71635 0.00648,-1.43271 0.00982,-2.17077c0.06499,-1.65683 0.06499,-1.65683 -0.30668,-2.63133c-0.461,0 -0.922,0 -1.39697,0c0.55879,-1.11758 0.55879,-1.11758 1.40789,-1.79206c1.23345,-1.49381 1.11709,-2.83298 1.21144,-4.7388c0.03673,-0.65909 0.07347,-1.31818 0.11132,-1.99724c0.02089,-0.50494 0.04178,-1.00988 0.0633,-1.53012z" fill="#cab093"/><path d="" fill="#ffffff"/></g></svg>