<svg id="svg" version="1.1" viewBox="0 0 63.93115730421612 300" width="63.93115730421612" height="300" xmlns="http://www.w3.org/2000/svg"><g xmlns="http://www.w3.org/2000/svg" fill="none" fill-rule="nonzero" stroke="none" stroke-width="1" stroke-linecap="butt" stroke-linejoin="miter" stroke-miterlimit="10" stroke-dasharray="" stroke-dashoffset="0" font-family="none" font-weight="none" font-size="none" text-anchor="none" style="mix-blend-mode: normal"><path d="M25.42705,0.0044c0.73004,0.00036 1.46008,0.00072 2.21224,0.00109c5.13583,0.28207 9.71304,1.50516 13.66088,4.87086c1.20272,1.71569 0.83684,3.88351 0.7989,5.88148c0.11488,4.04327 0.66187,8.31543 2.26026,12.05654c0.34129,0.90841 0.46413,1.77555 0.57298,2.7372c-0.25931,0.11093 -0.51863,0.22186 -0.7858,0.33615c-1.38045,1.21128 -1.39405,2.57059 -1.72876,4.34372c-0.52121,2.74875 -1.08537,4.50796 -3.07334,6.49593c-0.66079,0.08399 -1.32557,0.13834 -1.99069,0.17462c-0.53699,0.03133 -0.53699,0.03133 -1.08484,0.0633c-0.27588,0.01369 -0.55176,0.02737 -0.836,0.04147c-0.72788,2.03807 -0.94508,3.46823 -0.55879,5.5879c0.01567,0.35547 0.01567,0.35547 0.03165,0.71813c0.11407,0.89878 0.25612,1.34552 0.80653,2.07582c1.2295,0.68333 2.48082,1.19828 3.78711,1.71893c1.52007,0.6318 2.53987,1.39561 3.75655,2.47199c0.31009,0.23122 0.62019,0.46244 0.93968,0.70067c0.34107,0.26436 0.68214,0.52871 1.03354,0.80108c0.31442,0.23842 0.62883,0.47685 0.95278,0.7225c2.51134,2.87566 3.69859,6.95558 5.14152,10.4533c0.36376,0.87842 0.72752,1.75685 1.1023,2.66189c0.38537,0.93101 0.77074,1.86202 1.16778,2.82123c0.81383,1.95039 1.62877,3.90032 2.44471,5.84983c0.41526,0.9962 0.83052,1.99239 1.25837,3.01877c0.93077,2.2078 1.87732,4.40899 2.83542,6.60507c0.4873,1.12297 0.97459,2.24594 1.47665,3.40294c0.45056,1.02609 0.90111,2.05218 1.36532,3.10936c1.08537,2.94919 0.92113,4.9019 -0.0382,7.8045c-0.12714,0.38969 -0.25427,0.77938 -0.38526,1.18088c-0.0976,0.29029 -0.1952,0.58057 -0.29576,0.87966c-1.01609,0.26602 -2.03539,0.51978 -3.05588,0.76834c-0.56725,0.14262 -1.1345,0.28525 -1.71893,0.43219c-1.8212,0.21667 -2.58826,-0.04878 -4.16582,-0.92113c-0.1844,0 -0.3688,0 -0.55879,0c-0.34029,0.52889 -0.65666,1.0733 -0.96042,1.62398c-0.56285,1.0175 -1.00553,1.73894 -1.83353,2.56694c0.32088,2.88797 1.15345,5.31079 2.078,8.06753c2.80831,8.52257 5.13126,15.92807 5.25721,24.95782c0.02845,2.03273 0.0569,4.06546 0.08622,6.15978c0.02341,2.01256 0.04682,4.02512 0.07094,6.09866c0.32691,6.05482 1.29836,11.65919 2.56585,17.58005c0,0.7376 0,1.4752 0,2.23516c-1.51942,0.73082 -2.99308,1.40405 -4.62748,1.83353c-0.40914,0.13254 -0.81828,0.26508 -1.23981,0.40163c-1.15022,2.30043 -1.01374,5.25581 -1.25728,7.77067c-0.22869,2.34616 -0.46114,4.69196 -0.69849,7.03726c-0.09508,1.03455 -0.09508,1.03455 -0.19208,2.09c-0.55145,3.15935 -1.52213,6.16139 -2.46217,9.22549c-0.37745,1.23606 -0.75489,2.47212 -1.14377,3.74564c-0.31406,1.02285 -0.62811,2.04569 -0.95169,3.09954c-1.03047,3.60666 -0.98333,7.43091 -1.23981,11.15833c-0.93857,13.62542 -3.08928,27.05023 -5.07604,40.557c-1.39493,10.23322 -0.65221,16.28989 5.07713,24.48743c0.40054,0.63082 0.40054,0.63082 0.40054,1.18961c1.90949,0.469 3.78113,0.7072 5.74069,0.87857c1.16804,0.28937 1.58565,0.73712 2.36176,1.63599c0.25931,0.21898 0.51863,0.43795 0.7858,0.66356c1.65293,2.73915 0.49984,7.21823 0.05239,10.23284c-0.0922,0.1844 -0.1844,0.3688 -0.27939,0.55879c-1.8566,0.40152 -3.72146,0.76462 -5.5879,1.11758c-1.44171,0.27804 -2.88342,0.55608 -4.36882,0.84255c-2.35813,0.44732 -2.35813,0.44732 -4.7639,0.90367c-1.58001,0.30109 -3.16002,0.60218 -4.78791,0.9124c-4.35167,0.76265 -7.536,0.58151 -11.85354,-0.09168c-0.94649,-0.14586 -1.89299,-0.29173 -2.86816,-0.44201c-6.01315,-1.01788 -6.01315,-1.01788 -6.56142,-1.56614c-0.06552,-3.24174 -0.10085,-6.4841 -0.12224,-9.72643c-0.01693,-1.79971 -0.03385,-3.59941 -0.05129,-5.45366c0.05726,-1.44459 0.11453,-2.88918 0.17353,-4.37755c1.67637,-1.11758 1.67637,-1.11758 2.23516,-1.11758c-0.14694,-0.39762 -0.14694,-0.39762 -0.29686,-0.80326c-0.51269,-2.25583 -0.02339,-4.61994 0.85565,-6.7404c0.46245,-0.6542 0.92791,-1.30629 1.39697,-1.95576c1.9066,-5.53823 -0.82353,-12.41725 -1.88592,-17.82888c-0.4538,-2.31833 -0.9076,-4.63667 -1.37515,-7.02525c-0.59858,-3.04855 -0.59858,-3.04855 -1.20925,-6.15869c-1.95903,-10.2849 -0.46491,-17.85335 1.95576,-27.93949c0.16136,-6.10435 0.23224,-12.21135 0.24447,-18.31783c0.0108,-3.25618 0.02161,-6.51237 0.03274,-9.86722c0.00072,-2.50057 0.00144,-5.00115 0.00218,-7.57749c-0.5532,-0.1844 -1.1064,-0.3688 -1.67637,-0.55879c-1.21392,-0.55178 -2.42505,-1.10978 -3.63213,-1.67637c-0.01765,-0.51647 -0.0353,-1.03293 -0.05348,-1.56505c-0.36485,-7.88845 -1.65149,-15.59743 -2.93474,-23.37968c-1.07403,-7.17734 0.27409,-14.01386 2.42942,-20.87603c0.44259,-1.41437 0.88496,-2.82881 1.32713,-4.24331c0.21177,-0.66665 0.42355,-1.3333 0.64174,-2.02016c0.85816,-2.89199 1.21911,-5.60304 1.4188,-8.61431c0.04682,-0.68142 0.09364,-1.36284 0.14188,-2.0649c0.03385,-0.67854 0.06771,-1.35707 0.10259,-2.05617c0.05186,-0.62235 0.10373,-1.2447 0.15716,-1.88592c-0.21393,-2.75729 -1.24211,-4.77368 -2.42724,-7.26427c-2.43806,-5.15952 -4.1637,-10.21038 -5.51805,-15.75089c-0.32738,-1.33222 -0.32738,-1.33222 -0.66138,-2.69136c-0.16207,-0.66773 -0.32414,-1.33547 -0.49112,-2.02343c-1.65961,0.0922 -3.31921,0.1844 -5.02911,0.27939c0.12382,-1.42395 0.26557,-2.73672 0.60245,-4.1309c0.3071,-2.262 0.0144,-4.26101 -0.28813,-6.52103c-0.96312,-7.30312 -0.3512,-13.07211 3.10063,-19.69843c0.52241,-1.01943 0.52241,-1.01943 1.05537,-2.05944c0.54312,-0.92848 1.08623,-1.85697 1.64581,-2.81359c2.01627,-5.49695 1.70049,-10.43883 1.61962,-16.27257c-0.18629,-14.50927 -0.18629,-14.50927 3.99884,-19.52272c1.92171,-1.75431 4.03964,-2.85957 6.42608,-3.85914c0.62776,-0.30253 0.62776,-0.30253 1.26819,-0.61118c1.97479,-0.65544 3.69114,-0.64394 5.76907,-0.62864z" fill="#b6d1a0"/><path d="M53.03476,171.39568c0.04547,3.95775 -0.10251,7.829 -0.47148,11.76951c-0.08752,0.97459 -0.17504,1.94917 -0.26521,2.95329c-0.4925,3.72267 -1.40219,7.13169 -2.65971,10.66612c-2.79001,7.98218 -3.42249,15.73109 -3.88752,24.14583c-0.69719,11.77891 -2.90414,23.48514 -4.61984,35.14918c-1.39493,10.23322 -0.65221,16.28989 5.07713,24.48743c0.40054,0.63082 0.40054,0.63082 0.40054,1.18961c1.90949,0.469 3.78113,0.7072 5.74069,0.87857c1.16804,0.28937 1.58565,0.73712 2.36176,1.63599c0.38897,0.32846 0.38897,0.32846 0.7858,0.66356c1.65293,2.73915 0.49984,7.21823 0.05239,10.23284c-0.0922,0.1844 -0.1844,0.3688 -0.27939,0.55879c-1.8566,0.40152 -3.72146,0.76462 -5.5879,1.11758c-1.44171,0.27804 -2.88342,0.55608 -4.36882,0.84255c-1.57209,0.29821 -3.14417,0.59642 -4.7639,0.90367c-1.58001,0.30109 -3.16002,0.60218 -4.78791,0.9124c-4.35167,0.76265 -7.536,0.58151 -11.85354,-0.09168c-0.94649,-0.14586 -1.89299,-0.29173 -2.86816,-0.44201c-6.01315,-1.01788 -6.01315,-1.01788 -6.56142,-1.56614c-0.06552,-3.24174 -0.10085,-6.4841 -0.12224,-9.72643c-0.01693,-1.79971 -0.03385,-3.59941 -0.05129,-5.45366c0.05726,-1.44459 0.11453,-2.88918 0.17353,-4.37755c1.67637,-1.11758 1.67637,-1.11758 2.23516,-1.11758c-0.09796,-0.26508 -0.19593,-0.53015 -0.29686,-0.80326c-0.51269,-2.25583 -0.02339,-4.61994 0.85565,-6.7404c0.46245,-0.6542 0.92791,-1.30629 1.39697,-1.95576c1.9066,-5.53823 -0.82353,-12.41725 -1.88592,-17.82888c-0.4538,-2.31833 -0.9076,-4.63667 -1.37515,-7.02525c-0.59858,-3.04855 -0.59858,-3.04855 -1.20925,-6.15869c-1.95903,-10.2849 -0.46491,-17.85335 1.95576,-27.93949c0.16143,-6.15093 0.23225,-12.30449 0.24447,-18.45752c0.0108,-3.28212 0.02161,-6.56423 0.03274,-9.9458c0.00072,-2.52074 0.00144,-5.04148 0.00218,-7.63861c3.60356,0.15668 6.98817,0.30617 10.52969,0.71595c5.70401,0.56847 11.40452,0.47268 17.1304,0.40163c-0.1383,-0.2766 -0.1383,-0.2766 -0.27939,-0.55879c0.51647,-0.0108 0.51647,-0.0108 1.04337,-0.02183c2.48641,-0.08521 4.69061,-0.22384 7.01652,-1.1405c0.60135,-0.23465 0.60135,-0.23465 1.16014,-0.23465z" fill="#ab7e50"/><path d="M46.7833,114.34674c0.67097,0.0027 0.67097,0.0027 1.3555,0.00546c1.09688,0.04073 2.13834,0.14515 3.21959,0.32632c0,0.1844 0,0.3688 0,0.55879c0.461,0.0922 0.922,0.1844 1.39697,0.27939c0,0.1844 0,0.3688 0,0.55879c0.1844,0 0.3688,0 0.55879,0c0.44873,1.47248 0.8968,2.94516 1.34459,4.41793c0.24959,0.82008 0.49918,1.64016 0.75633,2.48509c0.2287,0.76461 0.4574,1.52923 0.69303,2.31701c0.16243,0.53123 0.32486,1.06246 0.49222,1.60979c0.78974,3.34084 0.64869,6.76796 0.69631,10.18154c0.02845,2.03273 0.0569,4.06546 0.08622,6.15978c0.02341,2.01256 0.04682,4.02512 0.07094,6.09866c0.32691,6.05482 1.29836,11.65919 2.56585,17.58005c0,0.7376 0,1.4752 0,2.23516c-1.51942,0.73082 -2.99308,1.40405 -4.62748,1.83353c-0.40914,0.13254 -0.81828,0.26508 -1.23981,0.40163c-0.54542,1.09085 -0.70028,1.87813 -0.83818,3.07334c-0.0922,0 -0.1844,0 -0.27939,0c0,-1.0142 0,-2.02841 0,-3.07334c-0.22402,0.0976 -0.44803,0.1952 -0.67884,0.29576c-2.76033,1.10476 -5.30275,1.3437 -8.26179,1.3806c0.0922,0.1844 0.1844,0.3688 0.27939,0.55879c-7.72789,0.13267 -15.30649,-0.12923 -23.00096,-0.87311c-2.71473,-0.28641 -2.71473,-0.28641 -5.49731,-0.24447c-1.31185,-0.48894 -1.31185,-0.48894 -2.54948,-1.11758c-0.41562,-0.20745 -0.83124,-0.4149 -1.25946,-0.62864c-0.31046,-0.16135 -0.62091,-0.3227 -0.94078,-0.48894c-0.01765,-0.51647 -0.0353,-1.03293 -0.05348,-1.56505c-0.36485,-7.88845 -1.65149,-15.59743 -2.93474,-23.37968c-1.07397,-7.17691 0.27214,-14.01245 2.42942,-20.87603c0.13794,-0.44803 0.27588,-0.89607 0.418,-1.35769c0.32175,-1.03908 0.64777,-2.07654 0.97897,-3.11263c0.1844,0 0.3688,0 0.55879,0c0.13254,-0.38609 0.26508,-0.77218 0.40163,-1.16997c0.07455,-0.21717 0.1491,-0.43435 0.22592,-0.65811c0.21176,-0.69014 0.3602,-1.37377 0.49003,-2.08346c0.60546,0.12755 1.21079,0.25574 1.81607,0.38417c0.5397,0.11399 0.5397,0.11399 1.09029,0.23028c0.71944,0.16014 1.43277,0.34873 2.14021,0.55552c3.44425,0.71072 7.14434,0.04821 10.59954,-0.27939c1.0142,-0.094 2.02841,-0.188 3.07334,-0.28485c2.21704,-0.25894 4.27186,-0.60612 6.42608,-1.16451c0.93089,-0.18839 1.86216,-0.37488 2.79395,-0.55879c0.38681,-0.09652 0.77362,-0.19305 1.17215,-0.29249c1.38147,-0.27404 2.62501,-0.33118 4.03158,-0.31868z" fill="#61ac72"/><path d="M25.42705,0.0044c0.73004,0.00036 1.46008,0.00072 2.21224,0.00109c5.11334,0.28084 9.73909,1.49335 13.66088,4.87086c1.01257,1.59815 0.92692,3.47471 0.83818,5.3085c-0.1844,0 -0.3688,0 -0.55879,0c-0.10949,0.43219 -0.21898,0.86438 -0.33178,1.30966c-1.02234,3.67576 -2.64696,6.88709 -4.46268,10.24375c-1.57634,3.13534 -2.54482,6.51022 -3.63977,9.83776c-0.29785,0.89931 -0.5957,1.79863 -0.90258,2.72519c-1.10203,3.70624 -0.94319,6.39248 -0.4944,10.24921c0.09976,0.8759 0.19953,1.75181 0.30231,2.65425c0.2281,1.75388 0.49891,3.44303 0.86765,5.1688c1.47394,8.78952 1.47394,8.78952 -0.17353,12.26281c-0.6805,1.5345 -1.07401,3.16076 -1.50284,4.78027c-1.15223,-0.57612 -1.51229,-0.97196 -2.27008,-1.97323c-0.69411,-0.98033 -0.69411,-0.98033 -1.64144,-1.65891c-0.05763,0.39185 -0.11525,0.7837 -0.17462,1.18743c-0.3536,1.81478 -1.18029,3.34824 -2.06054,4.95926c-0.3688,0 -0.7376,0 -1.11758,0c-0.59808,-0.67229 -0.59808,-0.67229 -1.18743,-1.53667c-0.29605,-0.42787 -0.29605,-0.42787 -0.59808,-0.86438c-0.22258,-0.33278 -0.22258,-0.33278 -0.44965,-0.67229c-1.01901,0.33967 -1.25258,0.71336 -1.90338,1.55413c-0.19845,0.24995 -0.39689,0.4999 -0.60135,0.75742c-0.56708,0.73449 -0.56708,0.73449 -0.9888,1.45372c-0.38308,0.61773 -0.38308,0.61773 -1.25618,1.54322c-2.34237,0.12493 -4.48052,-0.75515 -6.58652,-1.72985c-0.74438,-0.31551 -0.74438,-0.31551 -1.79533,0.05348c-0.45071,0.39778 -0.88596,0.81338 -1.30966,1.23981c-1.60268,1.48483 -2.93417,1.78283 -5.09896,1.88592c-0.85565,-0.05239 -0.85565,-0.05239 -1.41444,-0.33178c0.03313,-0.25283 0.06627,-0.50566 0.10041,-0.76615c0.37182,-3.93387 -0.17043,-7.71191 -0.6843,-11.61562c-0.73792,-6.22953 0.55236,-11.58704 3.44005,-17.1304c0.52241,-1.01943 0.52241,-1.01943 1.05537,-2.05944c0.54312,-0.92848 1.08623,-1.85697 1.64581,-2.81359c2.01627,-5.49695 1.70049,-10.43883 1.61962,-16.27257c-0.18629,-14.50927 -0.18629,-14.50927 3.99884,-19.52272c1.92171,-1.75431 4.03964,-2.85957 6.42608,-3.85914c0.62776,-0.30253 0.62776,-0.30253 1.26819,-0.61118c1.97479,-0.65544 3.69114,-0.64394 5.76907,-0.62864z" fill="#1b0f0c"/><path d="M29.28619,264.99296c0.2766,0.0922 0.5532,0.1844 0.83818,0.27939c1.41954,0.47318 2.37729,0.9878 3.47497,2.02561c0.91709,0.8697 0.91709,0.8697 1.99069,0.76834c0.61515,-0.17895 1.22698,-0.37002 1.83353,-0.57625c0.80326,-0.26193 0.80326,-0.26193 2.20023,-0.26193c0.1383,0.5532 0.1383,0.5532 0.27939,1.11758c0.1844,0 0.3688,0 0.55879,0c0.07167,0.31118 0.14334,0.62235 0.21718,0.94296c1.07426,4.28256 3.01643,7.68345 5.52896,11.27839c0.40054,0.63082 0.40054,0.63082 0.40054,1.18961c1.90949,0.469 3.78113,0.7072 5.74069,0.87857c1.16804,0.28937 1.58565,0.73712 2.36176,1.63599c0.38897,0.32846 0.38897,0.32846 0.7858,0.66356c1.65293,2.73915 0.49984,7.21823 0.05239,10.23284c-0.0922,0.1844 -0.1844,0.3688 -0.27939,0.55879c-1.8566,0.40152 -3.72146,0.76462 -5.5879,1.11758c-1.44171,0.27804 -2.88342,0.55608 -4.36882,0.84255c-1.57209,0.29821 -3.14417,0.59642 -4.7639,0.90367c-1.58001,0.30109 -3.16002,0.60218 -4.78791,0.9124c-4.35167,0.76265 -7.536,0.58151 -11.85354,-0.09168c-1.41974,-0.2188 -1.41974,-0.2188 -2.86816,-0.44201c-6.01315,-1.01788 -6.01315,-1.01788 -6.56142,-1.56614c-0.06552,-3.24174 -0.10085,-6.4841 -0.12224,-9.72643c-0.01693,-1.79971 -0.03385,-3.59941 -0.05129,-5.45366c0.05726,-1.44459 0.11453,-2.88918 0.17353,-4.37755c1.67637,-1.11758 1.67637,-1.11758 2.23516,-1.11758c-0.09796,-0.26508 -0.19593,-0.53015 -0.29686,-0.80326c-0.51304,-2.25739 -0.02198,-4.61828 0.85565,-6.7404c0.4602,-0.65578 0.92576,-1.30785 1.39697,-1.95576c0.29927,-0.8313 0.58094,-1.66931 0.83818,-2.51455c0.1844,-0.3688 0.3688,-0.7376 0.55879,-1.11758c3.08104,-0.77026 6.46561,-0.14819 9.22003,1.39697z" fill="#050505"/><path d="M46.04989,209.67277c0.0922,0 0.1844,0 0.27939,0c0,12.32963 -1.8615,24.45494 -3.70198,36.61819c-1.78149,10.98467 -1.78149,10.98467 -2.44471,22.05473c-0.1844,-0.2766 -0.3688,-0.5532 -0.55879,-0.83818c-1.08782,0.11253 -2.07621,0.22217 -3.10827,0.59371c-0.99329,0.30231 -1.49282,0.29401 -2.47963,-0.03492c-0.57055,-0.54678 -1.1291,-1.10629 -1.67637,-1.67637c-1.31537,-0.78922 -2.73425,-1.21023 -4.19092,-1.67637c-0.43219,-0.14983 -0.86438,-0.29965 -1.30966,-0.45402c-1.68842,-0.53834 -3.17192,-0.69772 -4.9418,-0.68102c-0.34791,0.00252 -0.69582,0.00504 -1.05428,0.00764c-0.26291,0.00324 -0.52583,0.00648 -0.79671,0.00982c-0.2766,0.5532 -0.2766,0.5532 -0.55879,1.11758c-0.4149,-2.76601 -0.4149,-2.76601 -0.83818,-5.5879c-0.89099,-4.6122 -1.79468,-9.22195 -2.70664,-13.83005c-2.60186,-13.15033 -2.60186,-13.15033 -2.60186,-14.38884c0.1844,0 0.3688,0 0.55879,0c0,0.32846 0,0.65693 0,0.99534c0.3345,1.48434 0.76019,1.79962 1.90883,2.70227c0.58615,0.47737 1.04616,0.9632 1.53122,1.54104c1.2768,1.5084 2.69583,2.8759 4.10361,4.26077c0.5532,-0.2766 0.5532,-0.2766 1.11758,-0.55879c0.5532,-0.2766 0.5532,-0.2766 1.11758,-0.55879c0.1844,-0.3688 0.3688,-0.7376 0.55879,-1.11758c1.33443,-1.38922 2.6878,-2.7603 4.05123,-4.12107c0.74048,-0.74192 1.48097,-1.48385 2.24389,-2.24826c1.80734,-1.73312 1.80734,-1.73312 2.36613,-1.73312c0.2766,-0.5532 0.2766,-0.5532 0.55879,-1.11758c0.83818,-0.90803 0.83818,-0.90803 1.67637,-1.67637c0.1844,0 0.3688,0 0.55879,0c0.1844,-0.3688 0.3688,-0.7376 0.55879,-1.11758c0.2766,-0.2766 0.5532,-0.5532 0.83818,-0.83818c0.1844,0 0.3688,0 0.55879,0c0.1844,-0.3688 0.3688,-0.7376 0.55879,-1.11758c0.2766,-0.2766 0.5532,-0.5532 0.83818,-0.83818c0.1844,0 0.3688,0 0.55879,0c0,-0.1844 0,-0.3688 0,-0.55879c-0.1844,0 -0.3688,0 -0.55879,0c0,-0.1844 0,-0.3688 0,-0.55879c0.2766,-0.0922 0.5532,-0.1844 0.83818,-0.27939c0,0.1844 0,0.3688 0,0.55879c0.1844,0 0.3688,0 0.55879,0c0.1844,-0.3688 0.3688,-0.7376 0.55879,-1.11758c0.33423,-0.27444 0.66845,-0.54888 1.01281,-0.83164c2.04536,-1.70569 3.29298,-2.88887 3.8766,-5.54861c0.12528,-1.79506 0.18356,-3.55589 0.1397,-5.35434z" fill="#ac8153"/><path d="M47.16747,53.21165c1.51685,2.96566 2.89038,5.94713 4.156,9.02795c0.36376,0.88095 0.72752,1.76189 1.1023,2.66953c0.38537,0.93425 0.77074,1.8685 1.16778,2.83106c0.81357,1.9505 1.62851,3.90043 2.44471,5.84983c0.41526,0.9962 0.83052,1.99239 1.25837,3.01877c0.93077,2.2078 1.87732,4.40899 2.83542,6.60507c0.4873,1.12297 0.97459,2.24594 1.47665,3.40294c0.45056,1.02609 0.90111,2.05218 1.36532,3.10936c1.08537,2.94919 0.92113,4.9019 -0.0382,7.8045c-0.12714,0.38969 -0.25427,0.77938 -0.38526,1.18088c-0.0976,0.29029 -0.1952,0.58057 -0.29576,0.87966c-1.01609,0.26602 -2.03539,0.51978 -3.05588,0.76834c-0.85087,0.21393 -0.85087,0.21393 -1.71893,0.43219c-1.8212,0.21667 -2.58826,-0.04878 -4.16582,-0.92113c-0.1844,0 -0.3688,0 -0.55879,0c-0.28964,0.49146 -0.55949,0.99461 -0.82072,1.50175c-0.95349,1.70136 -2.09377,2.84777 -3.57756,4.09706c-0.64716,0.4916 -0.64716,0.4916 -0.91022,1.10667c-1.1986,0 -2.39721,0 -3.63213,0c0,-0.1844 0,-0.3688 0,-0.55879c-1.17093,-0.58546 -2.06274,-0.70919 -3.35274,-0.83818c-0.11237,-0.29983 -0.11237,-0.29983 -0.22701,-0.60572c-0.79343,-2.01749 -1.762,-3.75332 -2.99258,-5.53879c-0.49769,-1.01381 -0.45059,-1.44793 -0.13315,-2.51674c0.2766,-0.5532 0.2766,-0.5532 0.55879,-1.11758c0.1844,0 0.3688,0 0.55879,0c0.01837,-0.20277 0.03673,-0.40554 0.05566,-0.61445c0.4016,-1.40462 1.37021,-1.99223 2.54293,-2.79067c2.3946,-0.9236 4.88941,-0.61871 7.41597,-0.48567c1.7943,0.15476 1.7943,0.15476 3.117,-1.13832c-0.13866,-0.18944 -0.27732,-0.37888 -0.42018,-0.57407c-0.92053,-1.26114 -1.83629,-2.52374 -2.72301,-3.80894c-0.8422,-1.21185 -1.72717,-2.38678 -2.61933,-3.56228c-1.25982,-1.66926 -2.45936,-3.36746 -3.63213,-5.09896c-1.05166,-1.55173 -2.11747,-3.07566 -3.26543,-4.55763c-0.22006,-0.28849 -0.44011,-0.57697 -0.66684,-0.8742c-0.62351,-0.80415 -0.62351,-0.80415 -1.31185,-1.49083c-1.91836,-2.12666 -1.87123,-4.31095 -1.76805,-7.0951c0.21794,-1.55033 0.50942,-2.45066 1.56614,-3.58957c0.67667,-0.69246 0.67667,-0.69246 1.34677,-1.85645c2.1686,-3.05762 5.51582,-5.23413 9.30298,-4.65149z" fill="#ab8051"/><path d="M21.74253,241.24439c1.36205,0.97788 1.36205,0.97788 1.67637,2.23516c0.3688,0.1844 0.7376,0.3688 1.11758,0.55879c1.01956,0.73918 1.74282,1.52577 2.51455,2.51455c0.45973,0.47152 0.9256,0.9371 1.39697,1.39697c0.46604,0.46527 0.93166,0.93097 1.39697,1.39697c0.2305,0.2305 0.461,0.461 0.69849,0.69849c2.09546,2.09546 2.09546,2.09546 2.81141,2.82887c0.721,0.73096 0.721,0.73096 1.7986,1.50175c0,0.1844 0,0.3688 0,0.55879c0.1844,0 0.3688,0 0.55879,0c0.73341,0.66356 0.73341,0.66356 1.39697,1.39697c0,0.1844 0,0.3688 0,0.55879c0.1844,0.0922 0.3688,0.1844 0.55879,0.27939c1.90155,1.56795 1.90155,1.56795 2.23516,2.23516c0.06602,1.50121 0.11576,3.00315 0.15716,4.50524c0.02341,0.82476 0.04682,1.64952 0.07094,2.49927c0.01693,0.63892 0.03385,1.27784 0.05129,1.93612c-0.1844,-0.2766 -0.3688,-0.5532 -0.55879,-0.83818c-1.08782,0.11253 -2.07621,0.22217 -3.10827,0.59371c-0.99329,0.30231 -1.49282,0.29401 -2.47963,-0.03492c-0.57055,-0.54678 -1.1291,-1.10629 -1.67637,-1.67637c-1.31537,-0.78922 -2.73425,-1.21023 -4.19092,-1.67637c-0.43219,-0.14983 -0.86438,-0.29965 -1.30966,-0.45402c-1.68842,-0.53834 -3.17192,-0.69772 -4.9418,-0.68102c-0.34791,0.00252 -0.69582,0.00504 -1.05428,0.00764c-0.26291,0.00324 -0.52583,0.00648 -0.79671,0.00982c-0.1844,0.3688 -0.3688,0.7376 -0.55879,1.11758c-0.03782,-0.28668 -0.07563,-0.57337 -0.1146,-0.86874c-0.59063,-4.20162 -1.43111,-8.34457 -2.281,-12.50074c-0.63957,-3.65516 -0.63957,-3.65516 -0.39836,-5.07058c1.10012,-1.37296 1.10012,-1.37296 2.51455,-2.68918c0.46677,-0.44155 0.93353,-0.88311 1.41444,-1.33804c0.36304,-0.33062 0.72608,-0.66125 1.10012,-1.00189z" fill="#ab7f51"/><path d="M41.57957,10.18485c0.0922,0 0.1844,0 0.27939,0c0.07095,0.546 0.1419,1.092 0.215,1.65454c0.09616,0.72176 0.19232,1.44351 0.2914,2.18714c0.094,0.71311 0.188,1.42622 0.28485,2.16095c0.44453,2.86047 1.10717,5.33369 2.28209,7.96712c0,0.461 0,0.922 0,1.39697c-0.25931,0.13974 -0.51863,0.27948 -0.7858,0.42346c-1.42864,1.1135 -1.40121,2.52119 -1.72876,4.25641c-0.52121,2.74875 -1.08537,4.50796 -3.07334,6.49593c-0.66079,0.08399 -1.32557,0.13834 -1.99069,0.17462c-0.53699,0.03133 -0.53699,0.03133 -1.08484,0.0633c-0.41382,0.02053 -0.41382,0.02053 -0.836,0.04147c-0.71832,2.0113 -0.87168,3.46893 -0.55879,5.5879c0.05626,0.61666 0.10861,1.23368 0.15716,1.85099c0.02341,0.28597 0.04682,0.57193 0.07094,0.86656c0.01693,0.20961 0.03385,0.41922 0.05129,0.63519c-2.16531,1.39697 -2.16531,1.39697 -2.79395,1.39697c0,0.7376 0,1.4752 0,2.23516c-0.0922,0 -0.1844,0 -0.27939,0c-0.19571,-1.61773 -0.38694,-3.236 -0.57625,-4.85449c-0.10697,-0.90111 -0.21393,-1.80223 -0.32414,-2.73065c-0.34673,-3.94815 0.43244,-6.63287 1.68619,-10.41837c0.29569,-0.89859 0.59138,-1.79719 0.89603,-2.72301c1.85417,-5.48475 1.85417,-5.48475 3.17266,-7.87654c1.89217,-3.51183 3.36774,-7.00985 4.64494,-10.79163z" fill="#ab8154"/><path d="M8.89037,130.32463c0.0922,0 0.1844,0 0.27939,0c0,1.2908 0,2.58161 0,3.91153c0.2766,0 0.5532,0 0.83818,0c0,1.39697 0,1.39697 -0.27939,2.51455c0.2766,0.0922 0.5532,0.1844 0.83818,0.27939c0.47543,0.5505 0.93993,1.11051 1.39697,1.67637c0.99099,1.06722 1.82036,1.67923 3.07334,2.51455c1.4457,1.4062 2.87569,2.82863 4.2957,4.26077c0.76281,0.76786 1.52563,1.53571 2.31156,2.32683c0.87842,0.88815 0.87842,0.88815 1.77459,1.79424c-1.09198,0 -1.42937,-0.42068 -2.23516,-1.11758c-0.06915,0.21321 -0.1383,0.42643 -0.20955,0.6461c-0.34924,0.75087 -0.34924,0.75087 -1.46682,1.58906c-0.3688,0 -0.7376,0 -1.11758,0c-0.0922,0.7376 -0.1844,1.4752 -0.27939,2.23516c-0.23626,0.0461 -0.47253,0.0922 -0.71595,0.1397c-1.34183,0.58553 -2.00475,1.53956 -2.91618,2.65425c-0.85647,0.91622 -1.38076,1.38887 -2.51455,1.95576c-0.0922,0.2766 -0.1844,0.5532 -0.27939,0.83818c-0.1844,0 -0.3688,0 -0.55879,0c0.0922,0.2766 0.1844,0.5532 0.27939,0.83818c0.06573,1.8331 0.11562,3.66678 0.15716,5.50059c0.02341,1.00376 0.04682,2.00752 0.07094,3.04169c0.01693,0.77686 0.03385,1.55372 0.05129,2.35412c-0.1844,0 -0.3688,0 -0.55879,0c-0.01765,-0.51647 -0.0353,-1.03293 -0.05348,-1.56505c-0.36485,-7.88845 -1.65149,-15.59743 -2.93474,-23.37968c-0.77541,-5.18178 -0.18969,-9.87415 0.75306,-15.00874z" fill="#6ab27a"/><path d="M40.18259,268.34569c0.6216,0.9324 0.75548,1.61625 0.99534,2.70664c0.91757,3.54749 2.95034,6.53885 5.0302,9.51471c0.40054,0.63082 0.40054,0.63082 0.40054,1.18961c1.90949,0.469 3.78113,0.7072 5.74069,0.87857c1.16804,0.28937 1.58565,0.73712 2.36176,1.63599c0.25931,0.21898 0.51863,0.43795 0.7858,0.66356c1.39322,2.30876 0.61603,5.68332 0.33178,8.27707c-0.0922,0 -0.1844,0 -0.27939,0c-0.0078,-0.48891 -0.01307,-0.97787 -0.01746,-1.46682c-0.00324,-0.27228 -0.00648,-0.54456 -0.00982,-0.82509c0.03799,-1.47706 0.17583,-2.94222 0.30668,-4.41357c-0.67998,0.08068 -1.35995,0.16135 -2.06054,0.24447c-1.33114,0.15559 -1.33114,0.15559 -2.68918,0.31432c-0.88166,0.10373 -1.76333,0.20745 -2.67171,0.31432c-4.28991,0.44488 -4.28991,0.44488 -5.32596,-0.2412c-0.21898,-0.20853 -0.43795,-0.41706 -0.66356,-0.63191c-0.55546,-0.39471 -1.11452,-0.7844 -1.67637,-1.16997c-0.31514,-0.21934 -0.63028,-0.43867 -0.95496,-0.66466c-0.67322,-0.45738 -1.35536,-0.90186 -2.04526,-1.33367c-0.32954,-0.21069 -0.65909,-0.42139 -0.99862,-0.63846c-0.4565,-0.282 -0.4565,-0.282 -0.92222,-0.5697c-0.66684,-0.65265 -0.66684,-0.65265 -0.79235,-1.55632c0.60436,-5.06609 0.60436,-5.06609 1.74622,-6.38133c0.56206,-0.34597 0.56206,-0.34597 1.73203,-0.81745c0.3688,-0.21321 0.7376,-0.42643 1.11758,-0.6461c0.2766,-0.15559 0.5532,-0.31118 0.83818,-0.47148c-0.0461,-0.2305 -0.0922,-0.461 -0.1397,-0.69849c-0.15457,-1.08196 -0.15852,-2.1215 -0.1397,-3.21304z" fill="#aa8156"/><path d="M19.22798,264.99296c0.0922,0 0.1844,0 0.27939,0c0.03492,2.16531 0.03492,2.16531 -0.27939,2.79395c0.29677,-0.01297 0.59354,-0.02593 0.8993,-0.03929c2.29069,-0.05852 3.80122,-0.03357 5.80617,1.15687c1.13013,0.42178 2.26685,0.81961 3.40731,1.21253c1.19935,0.52333 1.90747,0.83891 2.73938,1.86081c0.16371,1.66436 0.16371,1.66436 0.10477,3.57975c-0.01513,0.63568 -0.03025,1.27136 -0.04584,1.9263c-0.01945,0.48801 -0.0389,0.97603 -0.05894,1.47883c-2.10996,-0.32733 -4.13831,-0.75685 -6.19907,-1.30966c-3.47085,-0.81695 -6.75334,-0.66348 -10.28522,-0.36671c0.3688,-0.1844 0.7376,-0.3688 1.11758,-0.55879c-0.09796,-0.26508 -0.19593,-0.53015 -0.29686,-0.80326c-0.51269,-2.25583 -0.02339,-4.61994 0.85565,-6.7404c0.46245,-0.6542 0.92791,-1.30629 1.39697,-1.95576c0.37379,-1.19025 0.37379,-1.19025 0.55879,-2.23516z" fill="#a87d50"/><path d="M13.36069,230.90678c0.1844,0 0.3688,0 0.55879,0c0,0.32846 0,0.65693 0,0.99534c0.3345,1.48434 0.76019,1.79962 1.90883,2.70227c0.58615,0.47737 1.04616,0.9632 1.53122,1.54104c1.2768,1.5084 2.69583,2.8759 4.10361,4.26077c0.3688,-0.1844 0.7376,-0.3688 1.11758,-0.55879c0.3688,-0.1844 0.7376,-0.3688 1.11758,-0.55879c-1.72823,2.09398 -3.68598,3.93344 -5.63701,5.81709c-1.17701,1.08428 -1.17701,1.08428 -1.34786,2.56476c-0.0922,0 -0.1844,0 -0.27939,0c-0.5135,-2.58415 -1.02543,-5.16861 -1.53667,-7.75321c-0.28525,-1.43919 -0.57049,-2.87838 -0.86438,-4.36118c-0.67229,-3.53172 -0.67229,-3.53172 -0.67229,-4.6493z" fill="#b28a5f"/><path d="M34.87409,61.5935c0.22388,0.86646 0.27456,1.57404 0.24993,2.47635c-0.0704,3.81837 1.25609,5.59114 3.6616,8.42004c0.66,0.8846 1.31199,1.77524 1.95576,2.67171c0.29389,0.40374 0.58778,0.80747 0.89057,1.22344c0.69688,1.00564 1.31693,2.01691 1.90338,3.08971c-0.1844,0 -0.3688,0 -0.55879,0c0,-0.1844 0,-0.3688 0,-0.55879c-0.1844,0 -0.3688,0 -0.55879,0c-0.27939,0 -0.27939,0 -1.11758,-0.27939c0,-0.1844 0,-0.3688 0,-0.55879c-0.3688,-0.1844 -0.7376,-0.3688 -1.11758,-0.55879c-1.1613,-0.59481 -1.59471,-1.11437 -2.23516,-2.23516c-0.45416,-0.47687 -0.91953,-0.9434 -1.39697,-1.39697c-0.2766,-0.2766 -0.5532,-0.5532 -0.83818,-0.83818c-0.2766,-0.0922 -0.5532,-0.1844 -0.83818,-0.27939c-0.28317,-0.46337 -0.56192,-0.92945 -0.83818,-1.39697c-0.24779,-0.24779 -0.49558,-0.49558 -0.75087,-0.75087c-0.21321,-0.21321 -0.42643,-0.42643 -0.6461,-0.6461c0,-0.1844 0,-0.3688 0,-0.55879c-0.6915,-0.2766 -0.6915,-0.2766 -1.39697,-0.55879c0.4998,-2.29178 1.05703,-4.65626 2.23516,-6.70548c1.11758,-0.55879 1.11758,-0.55879 1.39697,-0.55879z" fill="#b4cd9d"/><path d="M63.37237,91.76814c0.1844,0.1844 0.3688,0.3688 0.55879,0.55879c-0.03872,2.5553 -0.86773,4.85925 -1.67637,7.26427c-1.04072,0.24951 -2.08292,0.49281 -3.12573,0.73341c-0.87032,0.20421 -0.87032,0.20421 -1.75822,0.41254c-1.54213,0.25102 -1.54213,0.25102 -2.9391,-0.30777c0.83299,-0.20825 1.6726,-0.3904 2.51455,-0.55879c1.13128,-1.00799 2.22694,-2.05632 3.30035,-3.12573c0.87572,-0.86168 0.87572,-0.86168 1.76914,-1.74076c1.53996,-1.42589 1.53996,-1.42589 1.35659,-3.23596z" fill="#be9f7d"/><path d="M34.5947,37.84494c0.27939,1.11758 0.27939,1.11758 0.12224,2.16531c-0.26712,1.98668 0.14461,3.97071 0.43655,5.93714c-2.16531,1.39697 -2.16531,1.39697 -2.79395,1.39697c0,0.7376 0,1.4752 0,2.23516c-0.0922,0 -0.1844,0 -0.27939,0c-0.06172,-1.05917 -0.11913,-2.1186 -0.17462,-3.17812c-0.03242,-0.58994 -0.06483,-1.17988 -0.09822,-1.78769c-0.00216,-0.48189 -0.00432,-0.96378 -0.00655,-1.46027c0.1844,-0.1844 0.3688,-0.3688 0.55879,-0.55879c0.08644,-0.27084 0.17288,-0.54168 0.26193,-0.82072c0.29686,-0.85565 0.29686,-0.85565 1.13504,-1.69383c0.29742,-0.73804 0.57917,-1.48278 0.83818,-2.23516z" fill="#ae885d"/><path d="M46.04989,209.67277c0.0922,0 0.1844,0 0.27939,0c0.08442,3.92804 -0.24645,7.80311 -0.55879,11.71712c-0.10373,1.31061 -0.20745,2.62123 -0.31432,3.97155c-0.08068,1.00016 -0.16135,2.00032 -0.24447,3.03078c-0.0922,0 -0.1844,0 -0.27939,0c0.00486,-0.8325 0.00486,-0.8325 0.00982,-1.68183c0.00252,-0.71851 0.00504,-1.43703 0.00764,-2.17732c0.00324,-0.71635 0.00648,-1.43271 0.00982,-2.17077c0.06499,-1.65683 0.06499,-1.65683 -0.30668,-2.63133c-0.461,0 -0.922,0 -1.39697,0c0.55879,-1.11758 0.55879,-1.11758 1.40789,-1.79206c1.23345,-1.49381 1.11709,-2.83298 1.21144,-4.7388c0.03673,-0.65909 0.07347,-1.31818 0.11132,-1.99724c0.02089,-0.50494 0.04178,-1.00988 0.0633,-1.53012z" fill="#cab093"/></g></svg>