<svg id="svg" version="1.1" viewBox="0 0 155.41857876125678 300" width="155.41857876125678" height="300" xmlns="http://www.w3.org/2000/svg"><g xmlns="http://www.w3.org/2000/svg" fill="none" fill-rule="nonzero" stroke="none" stroke-width="1" stroke-linecap="butt" stroke-linejoin="miter" stroke-miterlimit="10" stroke-dasharray="" stroke-dashoffset="0" font-family="none" font-weight="none" font-size="none" text-anchor="none" style="mix-blend-mode: normal"><path d="M101.59579,1.43396c2.38329,1.41508 2.65816,2.07292 3.48613,4.66892c0.18092,2.41422 0.18092,2.41422 0.15563,5.01131c-0.00193,0.85833 -0.00385,1.71665 -0.00584,2.60098c-0.12973,2.03356 -0.38789,3.47115 -1.14583,5.33619c-0.16435,0.49304 -0.32869,0.98608 -0.49802,1.49406c-1.53295,1.6607 -3.1538,3.1494 -4.98019,4.48217c-0.32869,0 -0.65738,0 -0.99604,0c0,0.32869 0,0.65738 0,0.99604c-0.49304,0.32869 -0.98608,0.65738 -1.49406,0.99604c-0.60402,1.52109 -0.60402,1.52109 -0.99604,2.98811c0.49304,0.16435 0.98608,0.32869 1.49406,0.49802c0,0.32869 0,0.65738 0,0.99604c-0.32869,0 -0.65738,0 -0.99604,0c-0.68563,3.08534 -1.05377,5.78916 -0.99604,8.96433c-0.16435,0.16435 -0.32869,0.32869 -0.49802,0.49802c-0.10785,0.832 -0.10785,0.832 -0.21788,1.68081c-0.28014,1.80532 -0.28014,1.80532 -1.27617,3.29937c-0.34943,0.99006 -0.68414,1.9856 -0.99604,2.98811c0.32869,0 0.65738,0 0.99604,0c0.16435,1.15042 0.32869,2.30085 0.49802,3.48613c-0.65738,0 -1.31477,0 -1.99207,0c-0.22598,0.46222 -0.45195,0.92445 -0.68478,1.40068c-0.80928,1.58743 -0.80928,1.58743 -1.80532,3.08149c2.18515,1.09257 4.05844,1.07793 6.47424,0.99604c0.16435,0.32869 0.32869,0.65738 0.49802,0.99604c1.0793,0.33536 2.17159,0.62937 3.26825,0.90266c3.0115,0.82021 5.15527,1.78345 7.68816,3.57951c0.41087,0.22598 0.82173,0.45195 1.24505,0.68478c4.38698,2.85154 5.99136,5.4282 7.71929,10.27163c0.49595,1.16293 0.99285,2.32546 1.49406,3.48613c0.53522,-2.74745 1.0131,-5.39049 1.15167,-8.18618c0.20602,-2.71328 1.1075,-4.89132 2.25665,-7.33994c0.63738,-1.40468 0.63738,-1.40468 0.83068,-2.9959c0.33667,-1.9365 1.284,-2.60807 2.73327,-3.88882c0.32869,-0.36978 0.65738,-0.73956 0.99604,-1.12054c1.16065,-1.01556 1.97215,-1.20133 3.48613,-1.36955c0,-0.49304 0,-0.98608 0,-1.49406c0.43141,-0.05136 0.86282,-0.10272 1.3073,-0.15563c1.7639,-0.35931 3.09674,-0.97548 4.66892,-1.83644c0,-0.32869 0,-0.65738 0,-0.99604c1.31477,-0.16435 2.62954,-0.32869 3.98415,-0.49802c0,-0.16435 0,-0.32869 0,-0.49802c1.47912,0 2.95823,0 4.48217,0c0,0.32869 0,0.65738 0,0.99604c-0.32869,0 -0.65738,0 -0.99604,0c0.16435,0.82173 0.32869,1.64346 0.49802,2.49009c0.82173,-0.32869 1.64346,-0.65738 2.49009,-0.99604c-0.16435,-0.32869 -0.32869,-0.65738 -0.49802,-0.99604c2.86361,0.43577 2.86361,0.43577 3.98415,0.99604c0.32869,-0.65738 0.65738,-1.31477 0.99604,-1.99207c0.65738,0 1.31477,0 1.99207,0c0.49304,1.15042 0.98608,2.30085 1.49406,3.48613c0.32869,0 0.65738,0 0.99604,0c0.23111,0.72415 0.23111,0.72415 0.46689,1.46293c0.37736,1.44583 0.37736,1.44583 1.02716,2.0232c0.071,1.66148 0.02106,3.31668 0,4.98019c-0.32869,0 -0.65738,0 -0.99604,0c0,-0.49304 0,-0.98608 0,-1.49406c-0.32869,0.16435 -0.65738,0.32869 -0.99604,0.49802c0,0.65738 0,1.31477 0,1.99207c-3.29937,0.1245 -3.29937,0.1245 -4.98019,-0.99604c0,0.65738 0,1.31477 0,1.99207c-0.65738,0.16435 -1.31477,0.32869 -1.99207,0.49802c-0.16435,-0.49304 -0.32869,-0.98608 -0.49802,-1.49406c-0.65738,0 -1.31477,0 -1.99207,0c-0.16435,0.49304 -0.32869,0.98608 -0.49802,1.49406c-2.31542,1.73657 -4.30673,2.19795 -7.07148,2.90835c-0.4603,0.19067 -0.92059,0.38134 -1.39484,0.57778c-0.66778,2.06709 -0.66778,2.06709 0,4.48217c0.06261,6.11086 0.08753,12.22213 0.09338,18.33331c0.00706,3.35176 0.01412,6.70352 0.0214,10.15686c-0.11328,8.25423 -0.26865,14.06146 -6.091,19.81764c-2.45414,1.63609 -5.13868,0.91347 -7.9683,0.49802c-1.52938,-0.42685 -2.98704,-0.95483 -4.48217,-1.49406c-0.32869,0.16435 -0.65738,0.32869 -0.99604,0.49802c-0.16435,-0.98608 -0.32869,-1.97215 -0.49802,-2.98811c-0.82173,-0.16435 -1.64346,-0.32869 -2.49009,-0.49802c0,-0.49304 0,-0.98608 0,-1.49406c-0.49304,-0.16435 -0.98608,-0.32869 -1.49406,-0.49802c-0.16435,-0.65738 -0.32869,-1.31477 -0.49802,-1.99207c-0.81324,-1.50326 -1.64792,-2.99492 -2.49009,-4.48217c-1.33069,-2.48868 -2.65899,-4.97865 -3.98415,-7.47028c-0.05835,15.28171 0.06312,30.54183 0.49802,45.81771c-1.47912,0.32869 -2.95823,0.65738 -4.48217,0.99604c0.16435,2.46519 0.32869,4.93038 0.49802,7.47028c0.51643,35.48458 -1.39298,70.80579 -3.49197,106.21608c-0.33021,6.25564 -0.49218,12.52224 -0.49218,18.78659c-0.16435,0.16435 -0.32869,0.32869 -0.49802,0.49802c-0.19973,1.75093 -0.37149,3.5051 -0.52914,5.26032c-0.08795,0.96618 -0.1759,1.93235 -0.26652,2.92781c-0.06612,0.74918 -0.13224,1.49837 -0.20037,2.27026c0.73763,0.12583 1.47527,0.25165 2.23525,0.38129c5.12349,1.14743 10.60859,3.64591 14.19937,7.587c0.49802,1.40068 0.49802,1.40068 0.49802,2.49009c-0.49802,0.49802 -0.49802,0.49802 -3.09316,0.56416c-28.74523,-0.03135 -28.74523,-0.03135 -29.77606,-1.06218c-0.1912,-2.01059 -0.35136,-4.02415 -0.49802,-6.03848c-0.08217,-1.11062 -0.16435,-2.22124 -0.24901,-3.36552c-2.54721,-36.25791 -2.4796,-72.79007 -3.23712,-109.12444c-9.91736,34.45776 -18.59833,69.13538 -24.50796,104.51776c-0.29403,1.3366 -0.58805,2.67319 -0.89099,4.05029c-0.65738,0.32869 -1.31477,0.65738 -1.99207,0.99604c-0.42658,1.8387 -0.42658,1.8387 -0.56027,3.95302c-0.34174,3.87424 -0.34174,3.87424 -1.4318,5.50933c-2.17325,0.19315 -4.3553,0.29034 -6.53649,0.34239c-1.27304,0.03145 -2.54608,0.06291 -3.8577,0.09533c-1.17161,0.0199 -2.34322,0.0398 -3.55033,0.06031c-1.118,0.02215 -1.118,0.02215 -2.25859,0.04474c-6.05697,0.0583 -12.11086,-0.27304 -18.16017,-0.54276c0.82388,-3.29552 2.65043,-4.76227 5.4782,-6.50537c4.06436,-2.42035 8.21068,-4.02033 12.94848,-4.45104c0.74304,-2.67344 0.74304,-2.67344 0.69839,-8.31846c0.92528,-25.23037 4.00473,-50.33107 7.26991,-75.34866c0.52193,-4.06853 0.52193,-4.06853 1.0544,-8.21925c0.61493,-4.73447 1.25853,-9.46533 1.93371,-14.19158c0.20634,-2.33367 0.40302,-4.6682 0.5914,-7.00339c0.84579,-9.07587 2.574,-17.93685 4.38879,-26.86188c0.16435,-0.82173 0.32869,-1.64346 0.49802,-2.49009c-0.5521,-0.03017 -1.1042,-0.06034 -1.67303,-0.09143c-1.08237,-0.0626 -1.08237,-0.0626 -2.18661,-0.12645c-0.71644,-0.04044 -1.43289,-0.08089 -2.17105,-0.12256c-1.9376,-0.15758 -1.9376,-0.15758 -3.92968,-0.6556c-0.49304,-0.73956 -0.49304,-0.73956 -0.99604,-1.49406c-0.49304,0.16435 -0.98608,0.32869 -1.49406,0.49802c1.00624,-4.77962 2.09068,-9.59252 3.82852,-14.1624c0.73962,-1.79452 0.73962,-1.79452 0.90266,-3.89077c0.24901,-1.86757 0.24901,-1.86757 1.74307,-3.85964c0.65024,-1.85465 1.2577,-3.72452 1.83644,-5.60271c0.31008,-0.99892 0.62015,-1.99783 0.93962,-3.02702c0.35148,-1.15171 0.35148,-1.15171 0.71006,-2.32668c-2.40265,0.63222 -2.40265,0.63222 -3.98415,2.49009c-1.93566,0.21594 -1.93566,0.21594 -4.32654,0.21788c-1.17385,0.01444 -1.17385,0.01444 -2.37143,0.02918c-2.44613,-0.26666 -3.78869,-0.77464 -5.7525,-2.23914c-0.16435,-0.65738 -0.32869,-1.31477 -0.49802,-1.99207c-0.32869,0 -0.65738,0 -0.99604,0c0,-0.49304 0,-0.98608 0,-1.49406c-0.32869,0 -0.65738,0 -0.99604,0c-1.48898,-4.94107 -1.66255,-9.3874 -1.61856,-14.53592c0.01155,-1.65437 0.02311,-3.30875 0.03502,-5.01326c0.12141,-7.26054 0.32936,-14.51737 0.57583,-21.77469c0.31059,-3.77136 0.31059,-3.77136 -0.98436,-5.9879c-1.27254,-0.40425 -1.27254,-0.40425 -2.49009,-0.49802c0,-0.65738 0,-1.31477 0,-1.99207c-1.37585,-0.29748 -2.56994,-0.49802 -3.98415,-0.49802c-1.99207,-0.99604 -1.99207,-0.99604 -3.48613,-2.49009c-0.44168,-0.0719 -0.88336,-0.1438 -1.33842,-0.21788c-2.11399,-0.35898 -3.72943,-1.30489 -5.63384,-2.27221c-1.40167,-0.38225 -1.40167,-0.38225 -2.49009,-0.49802c-0.24652,-1.2326 -0.24652,-1.2326 -0.49802,-2.49009c-0.65738,-0.16435 -1.31477,-0.32869 -1.99207,-0.49802c0,-0.32869 0,-0.65738 0,-0.99604c2.21867,-0.24652 2.21867,-0.24652 4.48217,-0.49802c0.03081,-0.38005 0.06163,-0.7601 0.09338,-1.15167c0.40464,-1.33842 0.40464,-1.33842 1.55631,-2.27221c1.33842,-0.56027 1.33842,-0.56027 3.3305,-0.06225c0,0.49304 0,0.98608 0,1.49406c0.32869,0.16435 0.65738,0.32869 0.99604,0.49802c-0.16435,-0.82173 -0.32869,-1.64346 -0.49802,-2.49009c1.2326,-0.49304 1.2326,-0.49304 2.49009,-0.99604c0.24652,0.49304 0.24652,0.49304 0.49802,0.99604c0.73956,0.24652 0.73956,0.24652 1.49406,0.49802c0.16435,-0.32869 0.32869,-0.65738 0.49802,-0.99604c-0.65738,0 -1.31477,0 -1.99207,0c0,-0.49304 0,-0.98608 0,-1.49406c0.39032,0.10272 0.78064,0.20543 1.18279,0.31126c0.43141,0.06163 0.86282,0.12326 1.3073,0.18676c0.49304,-0.49304 0.49304,-0.49304 0.99604,-0.99604c1.40457,-0.09727 1.40457,-0.09727 3.05036,-0.06225c0.54568,0.00899 1.09136,0.01797 1.65358,0.02724c0.41985,0.01155 0.83971,0.02311 1.27228,0.03502c-0.24652,0.98608 -0.24652,0.98608 -0.49802,1.99207c1.31477,0.49304 2.62954,0.98608 3.98415,1.49406c0,-0.32869 0,-0.65738 0,-0.99604c0.65738,0 1.31477,0 1.99207,0c0,0.65738 0,1.31477 0,1.99207c0.46222,0.02054 0.92445,0.04109 1.40068,0.06225c0.52385,0.1438 1.04771,0.28761 1.58743,0.43577c0.7159,1.27617 0.7159,1.27617 1.49406,2.98811c2.05997,2.80815 2.05997,2.80815 4.98019,4.48217c0,0.65738 0,1.31477 0,1.99207c-0.32869,0 -0.65738,0 -0.99604,0c0.49304,0.49304 0.98608,0.98608 1.49406,1.49406c0.32877,1.42208 0.32877,1.42208 0.52914,3.08149c0.33591,2.5193 0.81538,4.91623 1.46293,7.3769c0.17751,0.99405 0.34823,1.98951 0.49802,2.98811c1.19924,-2.1986 1.96289,-3.83819 2.45897,-6.31861c0.58081,-2.35741 1.20777,-3.09805 3.01924,-4.6378c0.49304,-0.73956 0.49304,-0.73956 0.99604,-1.49406c0.73956,0.49304 0.73956,0.49304 1.49406,0.99604c0,-0.32869 0,-0.65738 0,-0.99604c1.18181,-0.56234 2.36485,-1.12211 3.54838,-1.68081c0.65867,-0.312 1.31734,-0.624 1.99596,-0.94546c4.65539,-2.07847 8.83771,-2.43595 13.87838,-2.35391c0,-0.98608 0,-1.97215 0,-2.98811c-0.32869,0 -0.65738,0 -0.99604,0c-0.06163,-0.69847 -0.12326,-1.39694 -0.18676,-2.11658c-0.18185,-2.37793 -0.18185,-2.37793 -1.3073,-4.35766c-0.46222,0.02054 -0.92445,0.04109 -1.40068,0.06225c-1.58743,-0.06225 -1.58743,-0.06225 -3.08149,-1.05829c-0.24652,0.73956 -0.24652,0.73956 -0.49802,1.49406c-0.16435,0 -0.32869,0 -0.49802,0c-0.24652,-1.97215 -0.24652,-1.97215 -0.49802,-3.98415c-0.98608,-0.24652 -0.98608,-0.24652 -1.99207,-0.49802c-0.2003,-0.97067 -0.2003,-0.97067 -0.40464,-1.96095c-0.34681,-1.5914 -0.7618,-2.97563 -1.33842,-4.51329c-1.39608,-4.08748 -2.48015,-9.32626 -1.21392,-13.53988c1.4185,-2.79124 2.62676,-4.47269 5.44708,-5.88284c0.55467,-0.02054 1.10934,-0.04109 1.68081,-0.06225c2.04654,-0.49399 2.237,-0.78346 3.39275,-2.42784c1.40068,-1.99207 1.40068,-1.99207 3.39275,-2.49009c0.16435,-0.49304 0.32869,-0.98608 0.49802,-1.49406c1.24699,-0.58167 1.24699,-0.58167 2.77023,-1.08942c0.50395,-0.17141 1.0079,-0.34282 1.52713,-0.51942c0.38968,-0.12647 0.77936,-0.25294 1.18085,-0.38324c0,-0.16435 0,-0.32869 0,-0.49802c4.52818,-0.76954 8.31151,-1.26011 12.79285,0.03113c1.76327,0.57991 1.76327,0.57991 4.13978,0.46689c-0.27733,-0.53926 -0.27733,-0.53926 -0.56027,-1.08942c-0.43577,-1.40068 -0.43577,-1.40068 -0.09338,-2.77023c1.79482,-3.07684 7.36605,-1.36165 10.116,-0.31126zM36.85338,54.41069c0.49802,0.99604 0.49802,0.99604 0.49802,0.99604zM44.32366,108.1967c0.49802,0.99604 0.49802,0.99604 0.49802,0.99604zM43.82564,109.19273c-0.16435,0.32869 -0.32869,0.65738 -0.49802,0.99604c0.32869,0.32869 0.65738,0.65738 0.99604,0.99604c-0.16435,-0.65738 -0.32869,-1.31477 -0.49802,-1.99207z" fill="#444646"/><path d="M101.59579,1.43396c2.38329,1.41508 2.65816,2.07292 3.48613,4.66892c0.18092,2.41422 0.18092,2.41422 0.15563,5.01131c-0.00193,0.85833 -0.00385,1.71665 -0.00584,2.60098c-0.12973,2.03356 -0.38789,3.47115 -1.14583,5.33619c-0.16435,0.49304 -0.32869,0.98608 -0.49802,1.49406c-1.53295,1.6607 -3.1538,3.1494 -4.98019,4.48217c-0.32869,0 -0.65738,0 -0.99604,0c0,0.32869 0,0.65738 0,0.99604c-0.49304,0.32869 -0.98608,0.65738 -1.49406,0.99604c-0.60402,1.52109 -0.60402,1.52109 -0.99604,2.98811c0.49304,0.16435 0.98608,0.32869 1.49406,0.49802c0,0.32869 0,0.65738 0,0.99604c-0.32869,0 -0.65738,0 -0.99604,0c-0.68563,3.08534 -1.05377,5.78916 -0.99604,8.96433c-0.16435,0.16435 -0.32869,0.32869 -0.49802,0.49802c-0.10785,0.832 -0.10785,0.832 -0.21788,1.68081c-0.28014,1.80532 -0.28014,1.80532 -1.27617,3.29937c-0.34943,0.99006 -0.68414,1.9856 -0.99604,2.98811c0.32869,0 0.65738,0 0.99604,0c0.16435,1.15042 0.32869,2.30085 0.49802,3.48613c-0.65738,0 -1.31477,0 -1.99207,0c-0.22598,0.46222 -0.45195,0.92445 -0.68478,1.40068c-0.80928,1.58743 -0.80928,1.58743 -1.80532,3.08149c2.18515,1.09257 4.05844,1.07793 6.47424,0.99604c0.16435,0.32869 0.32869,0.65738 0.49802,0.99604c0.98552,0.36203 1.98189,0.69631 2.98811,0.99604c0,0.16435 0,0.32869 0,0.49802c-2.86361,0.06225 -2.86361,0.06225 -3.98415,-0.49802c-1.47912,-0.16435 -2.95823,-0.32869 -4.48217,-0.49802c0.0709,8.13432 0.14396,16.26862 0.21788,24.40291c0.04044,4.52979 0.08089,9.05958 0.12256,13.72664c0.14445,12.52573 0.38947,25.04568 0.6556,37.56928c0,3.45127 0,6.90254 0,10.45839c-13.31204,0 -26.62407,0 -40.33951,0c0,-3.24863 0.42198,-5.33385 1.33842,-8.40406c0.27733,-0.93536 0.55467,-1.87072 0.84041,-2.83443c0.26706,-0.89299 0.53412,-1.78598 0.80928,-2.70603c0.18489,-0.66188 0.36978,-1.32376 0.56027,-2.00569c1.35877,-4.84061 3.0044,-9.56041 4.66892,-14.30442c2.82125,-8.14522 4.92234,-16.21202 6.33806,-24.70639c0.38519,-1.8131 0.38519,-1.8131 1.07774,-3.79739c1.0781,-3.35988 1.69729,-6.75191 2.35781,-10.21716c0.25807,-1.34045 0.51615,-2.6809 0.78204,-4.06196c0.48372,-2.72273 0.89826,-5.38864 1.14778,-8.13949c0.65738,0.49304 1.31477,0.98608 1.99207,1.49406c2.76742,0.3019 3.47825,0.00473 5.97622,-1.49406c0,1.97215 0,3.94431 0,5.97622c-0.98608,-0.16435 -1.97215,-0.32869 -2.98811,-0.49802c0,0.65738 0,1.31477 0,1.99207c0.82173,-0.16435 1.64346,-0.32869 2.49009,-0.49802c0.01341,5.21881 0.02309,10.43764 0.03113,15.65646c0.00578,2.90623 0.01155,5.81246 0.01751,8.80676c-0.07182,10.94247 -0.07182,10.94247 -1.04467,12.88818c-0.82173,0 -1.64346,0 -2.49009,0c0,0.49304 0,0.98608 0,1.49406c0.82173,0 1.64346,0 2.49009,0c0.07246,6.62257 -0.19446,13.13236 -0.7159,19.73399c-0.13289,1.71151 -0.26578,3.42302 -0.40269,5.1864c-0.25116,2.98526 -0.54265,5.9674 -0.87348,8.94488c0.32869,-0.16435 0.65738,-0.32869 0.99604,-0.49802c0.22628,-2.15342 0.39178,-4.31333 0.52914,-6.47424c0.43848,-6.7257 0.43848,-6.7257 0.73146,-9.26782c0.40574,-3.80042 0.43198,-7.6203 0.54276,-11.43886c0.13866,-2.71598 0.38237,-5.42711 0.68478,-8.12977c0.7082,-8.53422 0.72372,-17.04146 0.81123,-25.60322c0.03724,-3.41853 0.07447,-6.83706 0.11283,-10.35918c0.03659,-3.91638 0.03659,-3.91638 0.07393,-7.91188c0.82173,0.32869 1.64346,0.65738 2.49009,0.99604c1.74307,0.41501 1.74307,0.41501 3.48613,0c1.73894,-2.06498 2.52462,-3.24768 2.39671,-5.97622c-0.2003,-0.73956 -0.2003,-0.73956 -0.40464,-1.49406c-2.61118,-0.09004 -4.52013,0.16127 -6.97226,0.99604c-2.60256,0.13982 -4.82937,-0.21464 -7.34577,-0.87153c-0.64455,-0.16178 -1.28909,-0.32356 -1.95317,-0.49024c-1.65747,-0.6303 -1.65747,-0.6303 -3.15152,-2.62238c-7.23786,-1.2161 -12.82806,1.40757 -18.60761,5.46459c-3.24527,2.49525 -4.5691,4.7384 -5.47237,8.62778c-0.44133,1.83978 -1.15011,3.56168 -1.81699,5.33035c-0.34929,1.32361 -0.68648,2.65068 -0.99604,3.98415c-0.16435,0 -0.32869,0 -0.49802,0c-0.09052,-0.79348 -0.18104,-1.58697 -0.2743,-2.40449c-0.92517,-7.84675 -0.92517,-7.84675 -2.71381,-15.52418c-1.54637,0 -2.31022,1.04561 -3.48613,1.99207c-1.80169,0.60057 -3.42699,0.66475 -5.32257,0.77815c-0.67986,0.04173 -1.35971,0.08346 -2.06016,0.12645c-0.52193,0.03017 -1.04385,0.06034 -1.5816,0.09143c-0.44952,9.2793 -0.62197,18.56939 -0.74703,27.85792c-0.03595,2.19235 -0.0719,4.38471 -0.10894,6.64349c0.33507,5.46491 0.81955,8.33812 3.84408,12.81036c3.16917,2.11278 3.85304,2.37283 7.47028,1.99207c5.26029,-1.35931 7.96637,-4.52457 10.95641,-8.96433c0.76818,1.53637 0.12487,2.56378 -0.37351,4.17091c-0.17205,0.56879 -0.3441,1.13758 -0.52137,1.72361c-0.59918,1.57576 -0.59918,1.57576 -2.09323,3.56784c0,-0.65738 0,-1.31477 0,-1.99207c-2.40265,0.63222 -2.40265,0.63222 -3.98415,2.49009c-1.93566,0.21594 -1.93566,0.21594 -4.32654,0.21788c-1.17385,0.01444 -1.17385,0.01444 -2.37143,0.02918c-2.44613,-0.26666 -3.78869,-0.77464 -5.7525,-2.23914c-0.16435,-0.65738 -0.32869,-1.31477 -0.49802,-1.99207c-0.32869,0 -0.65738,0 -0.99604,0c0,-0.49304 0,-0.98608 0,-1.49406c-0.32869,0 -0.65738,0 -0.99604,0c-1.48898,-4.94107 -1.66255,-9.3874 -1.61856,-14.53592c0.01155,-1.65437 0.02311,-3.30875 0.03502,-5.01326c0.12141,-7.26054 0.32936,-14.51737 0.57583,-21.77469c0.31059,-3.77136 0.31059,-3.77136 -0.98436,-5.9879c-1.27254,-0.40425 -1.27254,-0.40425 -2.49009,-0.49802c0,-0.65738 0,-1.31477 0,-1.99207c-1.37585,-0.29748 -2.56994,-0.49802 -3.98415,-0.49802c-1.99207,-0.99604 -1.99207,-0.99604 -3.48613,-2.49009c-0.44168,-0.0719 -0.88336,-0.1438 -1.33842,-0.21788c-2.11399,-0.35898 -3.72943,-1.30489 -5.63384,-2.27221c-1.40167,-0.38225 -1.40167,-0.38225 -2.49009,-0.49802c-0.24652,-1.2326 -0.24652,-1.2326 -0.49802,-2.49009c-0.65738,-0.16435 -1.31477,-0.32869 -1.99207,-0.49802c0,-0.32869 0,-0.65738 0,-0.99604c2.21867,-0.24652 2.21867,-0.24652 4.48217,-0.49802c0.03081,-0.38005 0.06163,-0.7601 0.09338,-1.15167c0.40464,-1.33842 0.40464,-1.33842 1.55631,-2.27221c1.33842,-0.56027 1.33842,-0.56027 3.3305,-0.06225c0,0.49304 0,0.98608 0,1.49406c0.32869,0.16435 0.65738,0.32869 0.99604,0.49802c-0.16435,-0.82173 -0.32869,-1.64346 -0.49802,-2.49009c1.2326,-0.49304 1.2326,-0.49304 2.49009,-0.99604c0.24652,0.49304 0.24652,0.49304 0.49802,0.99604c0.73956,0.24652 0.73956,0.24652 1.49406,0.49802c0.16435,-0.32869 0.32869,-0.65738 0.49802,-0.99604c-0.65738,0 -1.31477,0 -1.99207,0c0,-0.49304 0,-0.98608 0,-1.49406c0.39032,0.10272 0.78064,0.20543 1.18279,0.31126c0.43141,0.06163 0.86282,0.12326 1.3073,0.18676c0.49304,-0.49304 0.49304,-0.49304 0.99604,-0.99604c1.40457,-0.09727 1.40457,-0.09727 3.05036,-0.06225c0.54568,0.00899 1.09136,0.01797 1.65358,0.02724c0.41985,0.01155 0.83971,0.02311 1.27228,0.03502c-0.24652,0.98608 -0.24652,0.98608 -0.49802,1.99207c1.31477,0.49304 2.62954,0.98608 3.98415,1.49406c0,-0.32869 0,-0.65738 0,-0.99604c0.65738,0 1.31477,0 1.99207,0c0,0.65738 0,1.31477 0,1.99207c0.46222,0.02054 0.92445,0.04109 1.40068,0.06225c0.52385,0.1438 1.04771,0.28761 1.58743,0.43577c0.7159,1.27617 0.7159,1.27617 1.49406,2.98811c2.05997,2.80815 2.05997,2.80815 4.98019,4.48217c0,0.65738 0,1.31477 0,1.99207c-0.32869,0 -0.65738,0 -0.99604,0c0.49304,0.49304 0.98608,0.98608 1.49406,1.49406c0.32877,1.42208 0.32877,1.42208 0.52914,3.08149c0.33591,2.5193 0.81538,4.91623 1.46293,7.3769c0.17751,0.99405 0.34823,1.98951 0.49802,2.98811c1.19924,-2.1986 1.96289,-3.83819 2.45897,-6.31861c0.58081,-2.35741 1.20777,-3.09805 3.01924,-4.6378c0.49304,-0.73956 0.49304,-0.73956 0.99604,-1.49406c0.73956,0.49304 0.73956,0.49304 1.49406,0.99604c0,-0.32869 0,-0.65738 0,-0.99604c1.18181,-0.56234 2.36485,-1.12211 3.54838,-1.68081c0.65867,-0.312 1.31734,-0.624 1.99596,-0.94546c4.65539,-2.07847 8.83771,-2.43595 13.87838,-2.35391c0,-0.98608 0,-1.97215 0,-2.98811c-0.32869,0 -0.65738,0 -0.99604,0c-0.06163,-0.69847 -0.12326,-1.39694 -0.18676,-2.11658c-0.18185,-2.37793 -0.18185,-2.37793 -1.3073,-4.35766c-0.46222,0.02054 -0.92445,0.04109 -1.40068,0.06225c-1.58743,-0.06225 -1.58743,-0.06225 -3.08149,-1.05829c-0.24652,0.73956 -0.24652,0.73956 -0.49802,1.49406c-0.16435,0 -0.32869,0 -0.49802,0c-0.24652,-1.97215 -0.24652,-1.97215 -0.49802,-3.98415c-0.98608,-0.24652 -0.98608,-0.24652 -1.99207,-0.49802c-0.2003,-0.97067 -0.2003,-0.97067 -0.40464,-1.96095c-0.34681,-1.5914 -0.7618,-2.97563 -1.33842,-4.51329c-1.39608,-4.08748 -2.48015,-9.32626 -1.21392,-13.53988c1.4185,-2.79124 2.62676,-4.47269 5.44708,-5.88284c0.55467,-0.02054 1.10934,-0.04109 1.68081,-0.06225c2.04654,-0.49399 2.237,-0.78346 3.39275,-2.42784c1.40068,-1.99207 1.40068,-1.99207 3.39275,-2.49009c0.16435,-0.49304 0.32869,-0.98608 0.49802,-1.49406c1.24699,-0.58167 1.24699,-0.58167 2.77023,-1.08942c0.50395,-0.17141 1.0079,-0.34282 1.52713,-0.51942c0.38968,-0.12647 0.77936,-0.25294 1.18085,-0.38324c0,-0.16435 0,-0.32869 0,-0.49802c4.52818,-0.76954 8.31151,-1.26011 12.79285,0.03113c1.76327,0.57991 1.76327,0.57991 4.13978,0.46689c-0.27733,-0.53926 -0.27733,-0.53926 -0.56027,-1.08942c-0.43577,-1.40068 -0.43577,-1.40068 -0.09338,-2.77023c1.79482,-3.07684 7.36605,-1.36165 10.116,-0.31126zM36.85338,54.41069c0.49802,0.99604 0.49802,0.99604 0.49802,0.99604zM44.32366,108.1967c0.49802,0.99604 0.49802,0.99604 0.49802,0.99604zM43.82564,109.19273c-0.16435,0.32869 -0.32869,0.65738 -0.49802,0.99604c0.32869,0.32869 0.65738,0.65738 0.99604,0.99604c-0.16435,-0.65738 -0.32869,-1.31477 -0.49802,-1.99207z" fill="#ca8171"/><path d="M68.22855,54.41069c0.85616,0.80305 1.68708,1.63389 2.49009,2.49009c3.5408,1.31324 7.77602,2.23766 11.4233,0.99604c1.91955,-0.62679 3.50337,-0.66518 5.50933,-0.49802c0.99604,1.49406 0.99604,1.49406 0.93378,3.14374c-0.5062,2.13325 -1.36241,3.75913 -2.92586,5.32257c-2.75502,0.21193 -3.48312,0.00181 -5.97622,-1.49406c0.01155,2.61092 0.02311,5.22184 0.03502,7.91188c0.00899,3.41853 0.01798,6.83705 0.02724,10.35918c0.01155,3.39157 0.02311,6.78313 0.03502,10.27747c-0.07027,6.71928 -0.32549,13.10686 -1.09331,19.75928c-0.10586,2.18822 -0.19275,4.37756 -0.24901,6.56762c-0.14649,4.4443 -0.45945,8.79854 -1.00771,13.20917c-0.40992,3.6893 -0.56884,7.39327 -0.73535,11.10037c-0.49304,0.16435 -0.98608,0.32869 -1.49406,0.49802c0,-6.47128 0.64268,-12.8798 1.16723,-19.3274c0.30254,-4.69841 0.38401,-9.3336 0.32682,-14.03985c-0.82173,-0.16435 -1.64346,-0.32869 -2.49009,-0.49802c0.24652,-0.98608 0.24652,-0.98608 0.49802,-1.99207c0.82173,0.16435 1.64346,0.32869 2.49009,0.49802c0.65307,-7.18378 0.54378,-14.2949 0.52914,-21.50818c-0.00449,-2.86258 -0.00899,-5.72515 -0.01362,-8.67447c-0.00578,-2.20134 -0.01156,-4.40268 -0.01751,-6.67073c-0.65738,0 -1.31477,0 -1.99207,0c0,-0.65738 0,-1.31477 0,-1.99207c0.98608,0.16435 1.97215,0.32869 2.98811,0.49802c-0.24652,-2.71171 -0.24652,-2.71171 -0.49802,-5.4782c-0.65738,0.49304 -1.31477,0.98608 -1.99207,1.49406c-1.77419,0.18676 -1.77419,0.18676 -3.48613,0c-0.49304,-0.49304 -0.98608,-0.98608 -1.49406,-1.49406c-0.23497,1.48778 -0.23497,1.48778 -0.47467,3.00562c-2.44466,15.13183 -2.44466,15.13183 -4.50551,20.76699c-0.93817,3.06372 -1.32242,6.25946 -1.84617,9.41566c-1.84624,9.08059 -5.02475,17.72894 -8.08502,26.45335c-1.37871,4.16608 -2.5015,8.30425 -3.51531,12.57108c-0.27733,0.91417 -0.55467,1.82835 -0.84041,2.77023c-0.7658,2.39254 -0.7658,2.39254 -1.15167,5.69609c14.79115,-0.16435 29.5823,-0.32869 44.82167,-0.49802c-1.46143,1.46143 -3.16212,1.93976 -5.07356,2.70798c-3.11495,1.25205 -3.11495,1.25205 -6.18827,2.60098c-4.05493,1.6042 -8.68546,1.39449 -12.98545,1.63218c-6.81033,0.38692 -13.61255,0.83468 -20.41487,1.34231c-1.54475,0.10662 -3.09326,0.18287 -4.64169,0.18287c0.07078,-0.9443 0.14386,-1.88843 0.21788,-2.83248c0.04044,-0.52578 0.08089,-1.05156 0.12256,-1.59327c0.15758,-1.55047 0.15758,-1.55047 0.6556,-4.04056c-0.77936,0.01733 -1.55872,0.03467 -2.3617,0.05253c-1.0079,0.01348 -2.0158,0.02696 -3.05425,0.04085c-1.50801,0.026 -1.50801,0.026 -3.04647,0.05253c-0.82302,-0.04815 -1.64603,-0.0963 -2.49398,-0.1459c-0.32869,-0.49304 -0.65738,-0.98608 -0.99604,-1.49406c-0.49304,0.16435 -0.98608,0.32869 -1.49406,0.49802c1.00624,-4.77962 2.09068,-9.59252 3.82852,-14.1624c0.73962,-1.79452 0.73962,-1.79452 0.90266,-3.89077c0.24901,-1.86757 0.24901,-1.86757 1.74307,-3.85964c0.56486,-1.52278 1.09042,-3.06041 1.58743,-4.60667c0.26385,-0.81403 0.52771,-1.62805 0.79955,-2.46675c0.19837,-0.624 0.39674,-1.248 0.60112,-1.89092c0.32869,0 0.65738,0 0.99604,0c0.24652,-0.98608 0.24652,-0.98608 0.49802,-1.99207c0.33926,-1.20443 0.68194,-2.4079 1.02716,-3.61063c0.1804,-0.62914 0.36079,-1.25827 0.54666,-1.90647c0.13802,-0.4802 0.27605,-0.9604 0.41826,-1.45515c-0.21121,0.28889 -0.42242,0.57778 -0.64003,0.87542c-2.86127,3.81084 -5.56938,6.79428 -10.31638,8.08891c-2.2932,0.21692 -3.89531,0.23474 -6.03848,-0.62252c-2.49082,-2.38252 -4.32553,-5.56857 -5.41595,-8.83983c-0.34909,-27.98851 -0.34909,-27.98851 0.49802,-40.33951c0.95684,-0.95684 2.77403,-0.61007 4.0464,-0.65365c2.98281,-0.17546 4.96155,-0.49961 7.40803,-2.33446c0.49304,-0.32869 0.98608,-0.65738 1.49406,-0.99604c2.28153,5.2908 2.81097,11.26131 3.48613,16.93263c0.0963,-0.37235 0.19259,-0.74469 0.29181,-1.12832c0.12968,-0.49047 0.25936,-0.98094 0.39297,-1.48628c0.19067,-0.728 0.19067,-0.728 0.38519,-1.47071c0.42409,-1.3929 0.42409,-1.3929 1.42013,-3.38497c0.11299,-0.6163 0.22598,-1.2326 0.34239,-1.86757c1.79579,-5.81493 7.4078,-8.47988 12.39016,-11.30852c3.58181,-1.71515 7.79212,-1.93712 11.67036,-1.26645z" fill="#434544"/><path d="M138.44917,47.43843c1.47912,0 2.95823,0 4.48217,0c0,0.32869 0,0.65738 0,0.99604c-0.32869,0 -0.65738,0 -0.99604,0c0.24652,1.2326 0.24652,1.2326 0.49802,2.49009c0.82173,-0.32869 1.64346,-0.65738 2.49009,-0.99604c-0.24652,-0.49304 -0.24652,-0.49304 -0.49802,-0.99604c2.86361,0.43577 2.86361,0.43577 3.98415,0.99604c0.32869,-0.65738 0.65738,-1.31477 0.99604,-1.99207c0.65738,0 1.31477,0 1.99207,0c0.49304,1.15042 0.98608,2.30085 1.49406,3.48613c0.32869,0 0.65738,0 0.99604,0c0.15407,0.48277 0.30815,0.96553 0.46689,1.46293c0.37736,1.44583 0.37736,1.44583 1.02716,2.0232c0.071,1.66148 0.02106,3.31668 0,4.98019c-0.32869,0 -0.65738,0 -0.99604,0c0,-0.49304 0,-0.98608 0,-1.49406c-0.32869,0.16435 -0.65738,0.32869 -0.99604,0.49802c0,0.65738 0,1.31477 0,1.99207c-3.29937,0.1245 -3.29937,0.1245 -4.98019,-0.99604c0,0.65738 0,1.31477 0,1.99207c-0.65738,0.16435 -1.31477,0.32869 -1.99207,0.49802c-0.24652,-0.73956 -0.24652,-0.73956 -0.49802,-1.49406c-0.65738,0 -1.31477,0 -1.99207,0c-0.24652,0.73956 -0.24652,0.73956 -0.49802,1.49406c-2.31542,1.73657 -4.30673,2.19795 -7.07148,2.90835c-0.69045,0.286 -0.69045,0.286 -1.39484,0.57778c-0.66778,2.06709 -0.66778,2.06709 0,4.48217c0.06261,6.11086 0.08753,12.22213 0.09338,18.33331c0.00706,3.35176 0.01412,6.70352 0.0214,10.15686c-0.11328,8.25423 -0.26865,14.06146 -6.091,19.81764c-2.48163,1.65442 -5.12943,1.05323 -7.9683,0.49802c-9.20537,-3.91123 -13.75079,-16.30826 -17.92867,-24.40291c-0.16435,5.91646 -0.32869,11.83292 -0.49802,17.92867c-0.16435,0 -0.32869,0 -0.49802,0c0,-1.80781 0,-3.61562 0,-5.4782c-0.65738,0 -1.31477,0 -1.99207,0c0,0.82173 0,1.64346 0,2.49009c-0.73956,0.24652 -0.73956,0.24652 -1.49406,0.49802c-0.16435,0.49304 -0.32869,0.98608 -0.49802,1.49406c-0.32869,0 -0.65738,0 -0.99604,0c0.32869,-0.82173 0.65738,-1.64346 0.99604,-2.49009c-0.39032,-0.15407 -0.78064,-0.30815 -1.18279,-0.46689c-1.3073,-0.52914 -1.3073,-0.52914 -2.30334,-1.02716c0.32869,0.98608 0.65738,1.97215 0.99604,2.98811c-0.98608,-0.49304 -1.97215,-0.98608 -2.98811,-1.49406c0,1.15042 0,2.30085 0,3.48613c-0.16435,0 -0.32869,0 -0.49802,0c0,-0.82173 0,-1.64346 0,-2.49009c-0.73956,0.24652 -0.73956,0.24652 -1.49406,0.49802c0,-16.76331 0,-33.52661 0,-50.7979c11.26008,0 11.26008,0 15.9366,3.48613c0.41087,0.22598 0.82173,0.45195 1.24505,0.68478c4.38698,2.85154 5.99136,5.4282 7.71929,10.27163c0.49595,1.16293 0.99285,2.32546 1.49406,3.48613c0.53522,-2.74745 1.0131,-5.39049 1.15167,-8.18618c0.20602,-2.71328 1.1075,-4.89132 2.25665,-7.33994c0.63738,-1.40468 0.63738,-1.40468 0.83068,-2.9959c0.33667,-1.9365 1.284,-2.60807 2.73327,-3.88882c0.32869,-0.36978 0.65738,-0.73956 0.99604,-1.12054c1.16065,-1.01556 1.97215,-1.20133 3.48613,-1.36955c0,-0.49304 0,-0.98608 0,-1.49406c0.43141,-0.05136 0.86282,-0.10272 1.3073,-0.15563c1.7639,-0.35931 3.09674,-0.97548 4.66892,-1.83644c0,-0.32869 0,-0.65738 0,-0.99604c1.31477,-0.16435 2.62954,-0.32869 3.98415,-0.49802c0,-0.16435 0,-0.32869 0,-0.49802z" fill="#434645"/><path d="M95.12155,30.5058c0.49304,0 0.98608,0 1.49406,0c0,0.32869 0,0.65738 0,0.99604c-0.32869,0 -0.65738,0 -0.99604,0c-0.68563,3.08534 -1.05377,5.78916 -0.99604,8.96433c-0.24652,0.24652 -0.24652,0.24652 -0.49802,0.49802c-0.0719,0.55467 -0.1438,1.10934 -0.21788,1.68081c-0.28014,1.80532 -0.28014,1.80532 -1.27617,3.29937c-0.34943,0.99006 -0.68414,1.9856 -0.99604,2.98811c0.32869,0 0.65738,0 0.99604,0c0.24652,1.72563 0.24652,1.72563 0.49802,3.48613c-0.65738,0 -1.31477,0 -1.99207,0c-0.22598,0.46222 -0.45195,0.92445 -0.68478,1.40068c-0.80928,1.58743 -0.80928,1.58743 -1.80532,3.08149c2.18515,1.09257 4.05844,1.07793 6.47424,0.99604c0.16435,0.32869 0.32869,0.65738 0.49802,0.99604c0.98552,0.36203 1.98189,0.69631 2.98811,0.99604c0,0.16435 0,0.32869 0,0.49802c-2.86361,0.06225 -2.86361,0.06225 -3.98415,-0.49802c-1.47912,-0.16435 -2.95823,-0.32869 -4.48217,-0.49802c0.0709,8.13432 0.14396,16.26862 0.21788,24.40291c0.04044,4.52979 0.08089,9.05958 0.12256,13.72664c0.14445,12.52573 0.38947,25.04568 0.6556,37.56928c0,3.45127 0,6.90254 0,10.45839c-13.31204,0 -26.62407,0 -40.33951,0c0,-3.24863 0.42198,-5.33385 1.33842,-8.40406c0.27733,-0.93536 0.55467,-1.87072 0.84041,-2.83443c0.26706,-0.89299 0.53412,-1.78598 0.80928,-2.70603c0.18489,-0.66188 0.36978,-1.32376 0.56027,-2.00569c1.35877,-4.84061 3.0044,-9.56041 4.66892,-14.30442c2.82125,-8.14522 4.92234,-16.21202 6.33806,-24.70639c0.38519,-1.8131 0.38519,-1.8131 1.07774,-3.79739c1.0781,-3.35988 1.69729,-6.75191 2.35781,-10.21716c0.25807,-1.34045 0.51615,-2.6809 0.78204,-4.06196c0.48372,-2.72273 0.89826,-5.38864 1.14778,-8.13949c0.65738,0.49304 1.31477,0.98608 1.99207,1.49406c2.76742,0.3019 3.47825,0.00473 5.97622,-1.49406c0,1.97215 0,3.94431 0,5.97622c-1.47912,-0.24652 -1.47912,-0.24652 -2.98811,-0.49802c0,0.65738 0,1.31477 0,1.99207c1.2326,-0.24652 1.2326,-0.24652 2.49009,-0.49802c0.01341,5.21881 0.02309,10.43764 0.03113,15.65646c0.00578,2.90623 0.01155,5.81246 0.01751,8.80676c-0.07182,10.94247 -0.07182,10.94247 -1.04467,12.88818c-0.82173,0 -1.64346,0 -2.49009,0c0,0.49304 0,0.98608 0,1.49406c0.82173,0 1.64346,0 2.49009,0c0.07246,6.62257 -0.19446,13.13236 -0.7159,19.73399c-0.13289,1.71151 -0.26578,3.42302 -0.40269,5.1864c-0.25116,2.98526 -0.54265,5.9674 -0.87348,8.94488c0.32869,-0.16435 0.65738,-0.32869 0.99604,-0.49802c0.22628,-2.15342 0.39178,-4.31333 0.52914,-6.47424c0.43848,-6.7257 0.43848,-6.7257 0.73146,-9.26782c0.40574,-3.80042 0.43198,-7.6203 0.54276,-11.43886c0.13866,-2.71598 0.38237,-5.42711 0.68478,-8.12977c0.7082,-8.53422 0.72372,-17.04146 0.81123,-25.60322c0.03724,-3.41853 0.07447,-6.83706 0.11283,-10.35918c0.0244,-2.61092 0.04879,-5.22184 0.07393,-7.91188c0.82173,0.32869 1.64346,0.65738 2.49009,0.99604c1.74307,0.41501 1.74307,0.41501 3.48613,0c1.72047,-2.04306 2.51355,-3.24534 2.42784,-5.9451c-0.28108,-1.45111 -0.28108,-1.45111 -0.93378,-2.0232c-0.18676,-1.61856 -0.18676,-1.61856 0,-3.48613c0.38711,-0.37171 0.77422,-0.74341 1.17307,-1.12638c4.13814,-4.28484 4.19057,-12.15243 4.62418,-17.76331c0.17898,-2.02709 0.17898,-2.02709 0.677,-3.52115c0.49304,0 0.98608,0 1.49406,0c0,-0.32869 0,-0.65738 0,-0.99604z" fill="#f7f7f7"/><path d="M98.10966,1.1227c2.6649,0.69795 4.2068,2.41714 5.78947,4.60472c1.56304,3.13052 1.09057,7.47087 0.1245,10.7716c-1.43888,3.16552 -3.0957,5.41883 -5.91397,7.53253c-1.72974,0.57658 -3.16773,0.53222 -4.98019,0.49802c-0.49304,-1.47912 -0.49304,-1.47912 -0.99604,-2.98811c-0.39032,0.13353 -0.78064,0.26706 -1.18279,0.40464c-0.59575,0.19516 -1.19151,0.39032 -1.80532,0.5914c-0.72929,0.26706 -1.45857,0.53412 -2.20996,0.80928c-5.02536,1.4932 -10.19974,0.82986 -15.22069,-0.31126c-0.80846,0.69246 -0.80846,0.69246 -0.52914,3.14374c0.01027,1.09906 0.02054,2.19813 0.03113,3.3305c0.01862,1.99199 0.02344,3.98429 0,5.97622c-0.16435,0.16435 -0.32869,0.32869 -0.49802,0.49802c-0.82173,0 -1.64346,0 -2.49009,0c-0.20543,-0.54439 -0.41087,-1.08879 -0.62252,-1.64969c-0.77843,-2.00811 -0.77843,-2.00811 -2.86361,-3.3305c-2.57004,-0.21711 -2.57004,-0.21711 -4.98019,0.49802c0.16399,3.80909 0.16399,3.80909 1.99207,6.97226c1.10934,0.33896 1.10934,0.33896 2.24108,0.68478c2.24108,0.80928 2.24108,0.80928 3.26825,2.64572c0.23111,0.8166 0.23111,0.8166 0.46689,1.64969c-2.93685,-0.14684 -4.92115,-1.48415 -6.97226,-3.48613c-4.15021,-5.08284 -4.89028,-11.7649 -4.74869,-18.13683c0.3431,-2.2965 1.00729,-3.44738 2.69047,-5.01131c1.42246,-1.01344 2.91625,-1.79416 4.47828,-2.56985c1.23463,-0.78404 1.87856,-1.6012 2.71576,-2.79358c1.33842,-1.86757 1.33842,-1.86757 3.3305,-2.36559c0.16435,-0.49304 0.32869,-0.98608 0.49802,-1.49406c1.24699,-0.58167 1.24699,-0.58167 2.77023,-1.08942c0.50395,-0.17141 1.0079,-0.34282 1.52713,-0.51942c0.38968,-0.12647 0.77936,-0.25294 1.18085,-0.38324c0,-0.16435 0,-0.32869 0,-0.49802c4.4582,-0.75765 8.26687,-1.32933 12.66835,0.03113c2.13051,0.56066 4.06292,0.53438 6.25636,0.46689c0.16435,-0.49304 0.32869,-0.98608 0.49802,-1.49406c-0.82173,0.16435 -1.64346,0.32869 -2.49009,0.49802c0.86114,-3.44456 2.76353,-3.76794 5.97622,-3.48613z" fill="#1b1114"/><path d="M63.74638,14.07118c-0.49304,0.32869 -0.98608,0.65738 -1.49406,0.99604c-2.2611,1.62517 -3.79907,2.74134 -5.4782,4.98019c-0.74524,6.35644 0.00429,13.43175 3.58146,18.8644c1.52245,1.78551 3.34425,2.91943 5.38288,4.04445c1.99076,1.10597 3.32837,1.97569 4.48217,3.98415c0.17692,2.79537 -0.00544,5.21707 -0.49802,7.9683c-0.61373,-0.02889 -1.22746,-0.05778 -1.85979,-0.08754c-8.80151,-0.23992 -14.8592,2.19551 -21.3292,8.21147c-1.31913,1.9956 -1.84946,3.66228 -2.38504,5.96844c-0.44133,1.83978 -1.15011,3.56168 -1.81699,5.33035c-0.34929,1.32361 -0.68648,2.65068 -0.99604,3.98415c-0.16435,0 -0.32869,0 -0.49802,0c-0.09052,-0.79348 -0.18104,-1.58697 -0.2743,-2.40449c-0.92517,-7.84675 -0.92517,-7.84675 -2.71381,-15.52418c-1.54637,0 -2.31022,1.04561 -3.48613,1.99207c-1.80169,0.60057 -3.42699,0.66475 -5.32257,0.77815c-0.67986,0.04173 -1.35971,0.08346 -2.06016,0.12645c-0.52193,0.03017 -1.04385,0.06034 -1.5816,0.09143c-0.44952,9.2793 -0.62197,18.56939 -0.74703,27.85792c-0.03595,2.19235 -0.0719,4.38471 -0.10894,6.64349c0.33507,5.46491 0.81955,8.33812 3.84408,12.81036c3.16917,2.11278 3.85304,2.37283 7.47028,1.99207c5.26029,-1.35931 7.96637,-4.52457 10.95641,-8.96433c0.76818,1.53637 0.12487,2.56378 -0.37351,4.17091c-0.17205,0.56879 -0.3441,1.13758 -0.52137,1.72361c-0.59918,1.57576 -0.59918,1.57576 -2.09323,3.56784c0,-0.65738 0,-1.31477 0,-1.99207c-2.40265,0.63222 -2.40265,0.63222 -3.98415,2.49009c-1.93566,0.21594 -1.93566,0.21594 -4.32654,0.21788c-1.17385,0.01444 -1.17385,0.01444 -2.37143,0.02918c-2.44613,-0.26666 -3.78869,-0.77464 -5.7525,-2.23914c-0.16435,-0.65738 -0.32869,-1.31477 -0.49802,-1.99207c-0.32869,0 -0.65738,0 -0.99604,0c0,-0.49304 0,-0.98608 0,-1.49406c-0.32869,0 -0.65738,0 -0.99604,0c-1.48898,-4.94107 -1.66255,-9.3874 -1.61856,-14.53592c0.01155,-1.65437 0.02311,-3.30875 0.03502,-5.01326c0.12141,-7.26054 0.32936,-14.51737 0.57583,-21.77469c0.31059,-3.77136 0.31059,-3.77136 -0.98436,-5.9879c-1.27254,-0.40425 -1.27254,-0.40425 -2.49009,-0.49802c0,-0.65738 0,-1.31477 0,-1.99207c-1.37585,-0.29748 -2.56994,-0.49802 -3.98415,-0.49802c-1.99207,-0.99604 -1.99207,-0.99604 -3.48613,-2.49009c-0.44168,-0.0719 -0.88336,-0.1438 -1.33842,-0.21788c-2.11399,-0.35898 -3.72943,-1.30489 -5.63384,-2.27221c-1.40167,-0.38225 -1.40167,-0.38225 -2.49009,-0.49802c-0.24652,-1.2326 -0.24652,-1.2326 -0.49802,-2.49009c-0.65738,-0.16435 -1.31477,-0.32869 -1.99207,-0.49802c0,-0.32869 0,-0.65738 0,-0.99604c2.21867,-0.24652 2.21867,-0.24652 4.48217,-0.49802c0.03082,-0.38005 0.06163,-0.7601 0.09338,-1.15167c0.40464,-1.33842 0.40464,-1.33842 1.55631,-2.27221c1.33842,-0.56027 1.33842,-0.56027 3.3305,-0.06225c0,0.49304 0,0.98608 0,1.49406c0.32869,0.16435 0.65738,0.32869 0.99604,0.49802c-0.24652,-1.2326 -0.24652,-1.2326 -0.49802,-2.49009c0.82173,-0.32869 1.64346,-0.65738 2.49009,-0.99604c0.16435,0.32869 0.32869,0.65738 0.49802,0.99604c0.73956,0.24652 0.73956,0.24652 1.49406,0.49802c0.16435,-0.32869 0.32869,-0.65738 0.49802,-0.99604c-0.65738,0 -1.31477,0 -1.99207,0c0,-0.49304 0,-0.98608 0,-1.49406c0.39032,0.10272 0.78064,0.20543 1.18279,0.31126c0.43141,0.06163 0.86282,0.12326 1.3073,0.18676c0.32869,-0.32869 0.65738,-0.65738 0.99604,-0.99604c1.40457,-0.09727 1.40457,-0.09727 3.05036,-0.06225c0.54568,0.00899 1.09136,0.01797 1.65358,0.02724c0.41985,0.01155 0.83971,0.02311 1.27228,0.03502c-0.16435,0.65738 -0.32869,1.31477 -0.49802,1.99207c1.31477,0.49304 2.62954,0.98608 3.98415,1.49406c0,-0.32869 0,-0.65738 0,-0.99604c0.65738,0 1.31477,0 1.99207,0c0,0.65738 0,1.31477 0,1.99207c0.46222,0.02054 0.92445,0.04109 1.40068,0.06225c0.52385,0.1438 1.04771,0.28761 1.58743,0.43577c0.7159,1.27617 0.7159,1.27617 1.49406,2.98811c2.05997,2.80815 2.05997,2.80815 4.98019,4.48217c0,0.65738 0,1.31477 0,1.99207c-0.32869,0 -0.65738,0 -0.99604,0c0.49304,0.49304 0.98608,0.98608 1.49406,1.49406c0.32877,1.42208 0.32877,1.42208 0.52914,3.08149c0.33591,2.5193 0.81538,4.91623 1.46293,7.3769c0.17751,0.99405 0.34823,1.98951 0.49802,2.98811c1.19924,-2.1986 1.96289,-3.83819 2.45897,-6.31861c0.58081,-2.35741 1.20777,-3.09805 3.01924,-4.6378c0.49304,-0.73956 0.49304,-0.73956 0.99604,-1.49406c0.73956,0.49304 0.73956,0.49304 1.49406,0.99604c0,-0.32869 0,-0.65738 0,-0.99604c1.18181,-0.56234 2.36485,-1.12211 3.54838,-1.68081c0.65867,-0.312 1.31734,-0.624 1.99596,-0.94546c4.65539,-2.07847 8.83771,-2.43595 13.87838,-2.35391c0,-0.98608 0,-1.97215 0,-2.98811c-0.32869,0 -0.65738,0 -0.99604,0c-0.06163,-0.69847 -0.12326,-1.39694 -0.18676,-2.11658c-0.18185,-2.37793 -0.18185,-2.37793 -1.3073,-4.35766c-0.46222,0.02054 -0.92445,0.04109 -1.40068,0.06225c-1.58743,-0.06225 -1.58743,-0.06225 -3.08149,-1.05829c-0.16435,0.49304 -0.32869,0.98608 -0.49802,1.49406c-0.16435,0 -0.32869,0 -0.49802,0c-0.24652,-1.97215 -0.24652,-1.97215 -0.49802,-3.98415c-0.98608,-0.24652 -0.98608,-0.24652 -1.99207,-0.49802c-0.2003,-0.97067 -0.2003,-0.97067 -0.40464,-1.96095c-0.34681,-1.5914 -0.7618,-2.97563 -1.33842,-4.51329c-1.39608,-4.08748 -2.48015,-9.32626 -1.21392,-13.53988c1.97398,-3.88429 3.89703,-6.08912 8.43519,-5.88284zM36.85338,54.41069c0.49802,0.99604 0.49802,0.99604 0.49802,0.99604zM44.32366,108.1967c0.49802,0.99604 0.49802,0.99604 0.49802,0.99604zM43.82564,109.19273c-0.16435,0.32869 -0.32869,0.65738 -0.49802,0.99604c0.32869,0.32869 0.65738,0.65738 0.99604,0.99604c-0.16435,-0.65738 -0.32869,-1.31477 -0.49802,-1.99207z" fill="#d08777"/><path d="M138.44917,47.43843c1.47912,0 2.95823,0 4.48217,0c0,0.32869 0,0.65738 0,0.99604c-0.32869,0 -0.65738,0 -0.99604,0c0.24652,1.2326 0.24652,1.2326 0.49802,2.49009c0.82173,-0.32869 1.64346,-0.65738 2.49009,-0.99604c-0.24652,-0.49304 -0.24652,-0.49304 -0.49802,-0.99604c2.86361,0.43577 2.86361,0.43577 3.98415,0.99604c0.32869,-0.65738 0.65738,-1.31477 0.99604,-1.99207c0.65738,0 1.31477,0 1.99207,0c0.49304,1.15042 0.98608,2.30085 1.49406,3.48613c0.32869,0 0.65738,0 0.99604,0c0.15407,0.48277 0.30815,0.96553 0.46689,1.46293c0.37736,1.44583 0.37736,1.44583 1.02716,2.0232c0.071,1.66148 0.02106,3.31668 0,4.98019c-0.32869,0 -0.65738,0 -0.99604,0c0,-0.49304 0,-0.98608 0,-1.49406c-0.32869,0.16435 -0.65738,0.32869 -0.99604,0.49802c0,0.65738 0,1.31477 0,1.99207c-3.29937,0.1245 -3.29937,0.1245 -4.98019,-0.99604c0,0.65738 0,1.31477 0,1.99207c-0.65738,0.16435 -1.31477,0.32869 -1.99207,0.49802c-0.24652,-0.73956 -0.24652,-0.73956 -0.49802,-1.49406c-0.65738,0 -1.31477,0 -1.99207,0c-0.24652,0.73956 -0.24652,0.73956 -0.49802,1.49406c-2.31542,1.73657 -4.30673,2.19795 -7.07148,2.90835c-0.4603,0.19067 -0.92059,0.38134 -1.39484,0.57778c-0.66778,2.06709 -0.66778,2.06709 0,4.48217c0.06261,6.11086 0.08753,12.22213 0.09338,18.33331c0.00706,3.35176 0.01412,6.70352 0.0214,10.15686c-0.11328,8.25423 -0.26865,14.06146 -6.091,19.81764c-1.86242,1.24162 -2.63487,1.02608 -4.82456,0.80928c-0.58741,-0.05521 -1.17482,-0.11042 -1.78003,-0.1673c-0.67504,-0.07126 -0.67504,-0.07126 -1.36371,-0.14396c0,-0.16435 0,-0.32869 0,-0.49802c0.59511,-0.01926 0.59511,-0.01926 1.20225,-0.03891c0.52771,-0.02825 1.05541,-0.0565 1.59911,-0.0856c0.52,-0.02311 1.04,-0.04622 1.57576,-0.07003c1.96144,-0.26461 1.96144,-0.26461 4.58722,-2.29556c4.97801,-9.24488 3.81628,-17.10597 3.70401,-27.54665c-0.03145,-3.77803 -0.06291,-7.55607 -0.09533,-11.44859c-0.04044,-2.9088 -0.08089,-5.8176 -0.12256,-8.81454c-2.79388,0 -5.58777,0 -8.46632,0c-2.98811,-1.49406 -2.98811,-1.49406 -4.48217,-2.98811c-0.73956,3.20475 -0.73956,3.20475 -1.49406,6.47424c-0.16435,0 -0.32869,0 -0.49802,0c-0.27431,-3.73061 0.29487,-6.15519 1.89675,-9.53238c0.65571,-1.41818 0.65571,-1.41818 0.85013,-3.01535c0.33433,-1.93589 1.28297,-2.60694 2.73132,-3.88688c0.49304,-0.55467 0.49304,-0.55467 0.99604,-1.12054c1.16065,-1.01556 1.97215,-1.20133 3.48613,-1.36955c0,-0.49304 0,-0.98608 0,-1.49406c0.43141,-0.05136 0.86282,-0.10272 1.3073,-0.15563c1.7639,-0.35931 3.09674,-0.97548 4.66892,-1.83644c0,-0.32869 0,-0.65738 0,-0.99604c1.31477,-0.16435 2.62954,-0.32869 3.98415,-0.49802c0,-0.16435 0,-0.32869 0,-0.49802z" fill="#d08676"/><path d="M63.74638,14.07118c-0.49304,0.32869 -0.98608,0.65738 -1.49406,0.99604c-2.2611,1.62517 -3.79907,2.74134 -5.4782,4.98019c-0.74524,6.35644 0.00429,13.43175 3.58146,18.8644c1.52245,1.78551 3.34425,2.91943 5.38288,4.04445c1.99076,1.10597 3.32837,1.97569 4.48217,3.98415c0.17692,2.79537 -0.00544,5.21707 -0.49802,7.9683c-0.61373,-0.02889 -1.22746,-0.05778 -1.85979,-0.08754c-8.80151,-0.23992 -14.8592,2.19551 -21.3292,8.21147c-1.31913,1.9956 -1.84946,3.66228 -2.38504,5.96844c-0.44133,1.83978 -1.15011,3.56168 -1.81699,5.33035c-0.34929,1.32361 -0.68648,2.65068 -0.99604,3.98415c-0.16435,0 -0.32869,0 -0.49802,0c-0.09052,-0.79348 -0.18104,-1.58697 -0.2743,-2.40449c-0.62683,-5.28464 -1.27857,-10.39832 -2.71381,-15.52418c0,-0.49304 0,-0.98608 0,-1.49406c-0.32869,0 -0.65738,0 -0.99604,0c-0.10272,-0.56494 -0.20543,-1.12988 -0.31126,-1.71194c-1.29013,-4.28088 -3.69279,-7.55172 -7.65704,-9.74249c-3.89588,-1.78248 -7.81065,-3.37188 -11.95245,-4.48217c0.20543,0.60603 0.41087,1.21205 0.62252,1.83644c0.37351,2.14771 0.37351,2.14771 -0.49802,3.64176c-1.12054,0.99604 -1.12054,0.99604 -2.11658,0.99604c-0.13353,-0.56494 -0.26706,-1.12988 -0.40464,-1.71194c-0.29274,-0.87823 -0.29274,-0.87823 -0.5914,-1.77419c-0.73956,-0.24652 -0.73956,-0.24652 -1.49406,-0.49802c-0.16435,0.98608 -0.32869,1.97215 -0.49802,2.98811c-1.99207,-0.99604 -1.99207,-0.99604 -3.48613,-2.49009c-0.49304,0 -0.98608,0 -1.49406,0c0.45346,1.92205 0.45346,1.92205 0.99604,3.48613c-1.31477,0.16435 -2.62954,0.32869 -3.98415,0.49802c1.92445,1.92445 3.67494,2.32529 6.25636,3.17487c5.54857,1.87859 5.54857,1.87859 7.9683,3.17487c2.20388,1.11746 4.16579,1.68608 6.56762,2.18078c1.12054,0.43382 1.12054,0.43382 2.11658,2.42589c0,0.49304 0,0.98608 0,1.49406c-0.65738,0 -1.31477,0 -1.99207,0c-0.09395,6.74374 -0.16166,13.48785 -0.21788,20.23201c-0.04044,3.75557 -0.08089,7.51113 -0.12256,11.3805c-0.33926,9.57113 -0.33926,9.57113 3.82657,16.6953c3.16917,2.11278 3.85304,2.37283 7.47028,1.99207c5.26029,-1.35931 7.96637,-4.52457 10.95641,-8.96433c0.76818,1.53637 0.12487,2.56378 -0.37351,4.17091c-0.17205,0.56879 -0.3441,1.13758 -0.52137,1.72361c-0.59918,1.57576 -0.59918,1.57576 -2.09323,3.56784c0,-0.65738 0,-1.31477 0,-1.99207c-2.40265,0.63222 -2.40265,0.63222 -3.98415,2.49009c-1.93566,0.21594 -1.93566,0.21594 -4.32654,0.21788c-1.17385,0.01444 -1.17385,0.01444 -2.37143,0.02918c-2.44613,-0.26666 -3.78869,-0.77464 -5.7525,-2.23914c-0.16435,-0.65738 -0.32869,-1.31477 -0.49802,-1.99207c-0.32869,0 -0.65738,0 -0.99604,0c0,-0.49304 0,-0.98608 0,-1.49406c-0.32869,0 -0.65738,0 -0.99604,0c-1.48898,-4.94107 -1.66255,-9.3874 -1.61856,-14.53592c0.01155,-1.65437 0.02311,-3.30875 0.03502,-5.01326c0.12141,-7.26054 0.32936,-14.51737 0.57583,-21.77469c0.31059,-3.77136 0.31059,-3.77136 -0.98436,-5.9879c-1.27254,-0.40425 -1.27254,-0.40425 -2.49009,-0.49802c0,-0.65738 0,-1.31477 0,-1.99207c-1.37585,-0.29748 -2.56994,-0.49802 -3.98415,-0.49802c-1.99207,-0.99604 -1.99207,-0.99604 -3.48613,-2.49009c-0.44168,-0.0719 -0.88336,-0.1438 -1.33842,-0.21788c-2.11399,-0.35898 -3.72943,-1.30489 -5.63384,-2.27221c-1.40167,-0.38225 -1.40167,-0.38225 -2.49009,-0.49802c-0.24652,-1.2326 -0.24652,-1.2326 -0.49802,-2.49009c-0.65738,-0.16435 -1.31477,-0.32869 -1.99207,-0.49802c0,-0.32869 0,-0.65738 0,-0.99604c2.21867,-0.24652 2.21867,-0.24652 4.48217,-0.49802c0.03082,-0.38005 0.06163,-0.7601 0.09338,-1.15167c0.40464,-1.33842 0.40464,-1.33842 1.55631,-2.27221c1.33842,-0.56027 1.33842,-0.56027 3.3305,-0.06225c0,0.49304 0,0.98608 0,1.49406c0.32869,0.16435 0.65738,0.32869 0.99604,0.49802c-0.24652,-1.2326 -0.24652,-1.2326 -0.49802,-2.49009c0.82173,-0.32869 1.64346,-0.65738 2.49009,-0.99604c0.16435,0.32869 0.32869,0.65738 0.49802,0.99604c0.73956,0.24652 0.73956,0.24652 1.49406,0.49802c0.16435,-0.32869 0.32869,-0.65738 0.49802,-0.99604c-0.65738,0 -1.31477,0 -1.99207,0c0,-0.49304 0,-0.98608 0,-1.49406c0.39032,0.10272 0.78064,0.20543 1.18279,0.31126c0.43141,0.06163 0.86282,0.12326 1.3073,0.18676c0.32869,-0.32869 0.65738,-0.65738 0.99604,-0.99604c1.40457,-0.09727 1.40457,-0.09727 3.05036,-0.06225c0.54568,0.00899 1.09136,0.01797 1.65358,0.02724c0.41985,0.01155 0.83971,0.02311 1.27228,0.03502c-0.16435,0.65738 -0.32869,1.31477 -0.49802,1.99207c1.31477,0.49304 2.62954,0.98608 3.98415,1.49406c0,-0.32869 0,-0.65738 0,-0.99604c0.65738,0 1.31477,0 1.99207,0c0,0.65738 0,1.31477 0,1.99207c0.46222,0.02054 0.92445,0.04109 1.40068,0.06225c0.52385,0.1438 1.04771,0.28761 1.58743,0.43577c0.7159,1.27617 0.7159,1.27617 1.49406,2.98811c2.05997,2.80815 2.05997,2.80815 4.98019,4.48217c0,0.65738 0,1.31477 0,1.99207c-0.32869,0 -0.65738,0 -0.99604,0c0.49304,0.49304 0.98608,0.98608 1.49406,1.49406c0.32877,1.42208 0.32877,1.42208 0.52914,3.08149c0.33591,2.5193 0.81538,4.91623 1.46293,7.3769c0.17751,0.99405 0.34823,1.98951 0.49802,2.98811c1.19924,-2.1986 1.96289,-3.83819 2.45897,-6.31861c0.58081,-2.35741 1.20777,-3.09805 3.01924,-4.6378c0.49304,-0.73956 0.49304,-0.73956 0.99604,-1.49406c0.73956,0.49304 0.73956,0.49304 1.49406,0.99604c0,-0.32869 0,-0.65738 0,-0.99604c1.18181,-0.56234 2.36485,-1.12211 3.54838,-1.68081c0.65867,-0.312 1.31734,-0.624 1.99596,-0.94546c4.65539,-2.07847 8.83771,-2.43595 13.87838,-2.35391c0,-0.98608 0,-1.97215 0,-2.98811c-0.32869,0 -0.65738,0 -0.99604,0c-0.06163,-0.69847 -0.12326,-1.39694 -0.18676,-2.11658c-0.18185,-2.37793 -0.18185,-2.37793 -1.3073,-4.35766c-0.46222,0.02054 -0.92445,0.04109 -1.40068,0.06225c-1.58743,-0.06225 -1.58743,-0.06225 -3.08149,-1.05829c-0.16435,0.49304 -0.32869,0.98608 -0.49802,1.49406c-0.16435,0 -0.32869,0 -0.49802,0c-0.24652,-1.97215 -0.24652,-1.97215 -0.49802,-3.98415c-0.98608,-0.24652 -0.98608,-0.24652 -1.99207,-0.49802c-0.2003,-0.97067 -0.2003,-0.97067 -0.40464,-1.96095c-0.34681,-1.5914 -0.7618,-2.97563 -1.33842,-4.51329c-1.39608,-4.08748 -2.48015,-9.32626 -1.21392,-13.53988c1.97398,-3.88429 3.89703,-6.08912 8.43519,-5.88284zM36.85338,54.41069c0.49802,0.99604 0.49802,0.99604 0.49802,0.99604zM44.32366,108.1967c0.49802,0.99604 0.49802,0.99604 0.49802,0.99604zM43.82564,109.19273c-0.16435,0.32869 -0.32869,0.65738 -0.49802,0.99604c0.32869,0.32869 0.65738,0.65738 0.99604,0.99604c-0.16435,-0.65738 -0.32869,-1.31477 -0.49802,-1.99207z" fill="#f6f1ed"/><path d="M35.35932,289.38209c2.92741,0.02022 2.92741,0.02022 5.91397,0.04085c1.49966,0.01734 2.99932,0.03467 4.54442,0.05253c0,3.28692 0,6.57385 0,9.96037c-11.52741,0.45333 -22.83997,0.51378 -34.36328,0c0.84023,-3.36094 2.70726,-4.78688 5.60271,-6.53649c0.53669,-0.32998 1.07338,-0.65995 1.62634,-0.99993c5.55755,-2.97815 10.48925,-2.57256 16.67584,-2.51733z" fill="#1e0726"/><path d="M79.68298,289.47547c2.4797,-0.01336 4.95943,-0.02306 7.43915,-0.03113c1.38089,-0.00578 2.76179,-0.01155 4.18452,-0.01751c3.31688,0.04864 3.31688,0.04864 3.8149,0.54666c0.66765,-0.0719 1.33531,-0.1438 2.0232,-0.21788c4.70684,-0.06104 9.52624,2.93358 13.13524,5.78947c1.25441,1.37679 1.77419,2.03654 1.77419,3.89077c-0.49802,0.49802 -0.49802,0.49802 -3.09316,0.56416c-9.76626,-0.01065 -19.5173,-0.24244 -29.27805,-0.56416c0,-3.28692 0,-6.57385 0,-9.96037z" fill="#2d1935"/><path d="M95.61957,145.05007c-1.46143,1.46143 -3.16212,1.93976 -5.07356,2.70798c-3.11495,1.25205 -3.11495,1.25205 -6.18827,2.60098c-4.05493,1.6042 -8.68546,1.39449 -12.98545,1.63218c-6.81033,0.38692 -13.61255,0.83468 -20.41487,1.34231c-1.54475,0.10662 -3.09326,0.18287 -4.64169,0.18287c0.07055,-0.95469 0.14368,-1.90919 0.21788,-2.86361c0.04044,-0.53156 0.08089,-1.06312 0.12256,-1.61078c0.15758,-1.50183 0.15758,-1.50183 0.6556,-3.49391c1.81967,-0.04136 3.1934,0.05132 4.98019,0.49802c12.12135,-0.09829 24.24836,-0.38189 36.35925,-0.90461c2.32563,-0.08552 4.64145,-0.10808 6.96837,-0.09143z" fill="#1f2120"/><path d="M87.65127,57.3988c0.99604,1.49406 0.99604,1.49406 0.93378,3.14374c-0.5062,2.13325 -1.36241,3.75913 -2.92586,5.32257c-2.75502,0.21193 -3.48312,0.00181 -5.97622,-1.49406c0.01733,3.91638 0.01733,3.91638 0.03502,7.91188c0.00899,3.41853 0.01798,6.83705 0.02724,10.35918c0.01155,3.39157 0.02311,6.78313 0.03502,10.27747c-0.07027,6.71928 -0.32549,13.10686 -1.09331,19.75928c-0.10586,2.18822 -0.19275,4.37756 -0.24901,6.56762c-0.14649,4.4443 -0.45945,8.79854 -1.00771,13.20917c-0.40992,3.6893 -0.56884,7.39327 -0.73535,11.10037c-0.49304,0.16435 -0.98608,0.32869 -1.49406,0.49802c0,-6.47128 0.64268,-12.8798 1.16723,-19.3274c0.30254,-4.69841 0.38401,-9.3336 0.32682,-14.03985c-0.82173,-0.16435 -1.64346,-0.32869 -2.49009,-0.49802c0.16435,-0.65738 0.32869,-1.31477 0.49802,-1.99207c0.82173,0.16435 1.64346,0.32869 2.49009,0.49802c0.65307,-7.18378 0.54378,-14.2949 0.52914,-21.50818c-0.00449,-2.86258 -0.00899,-5.72515 -0.01362,-8.67447c-0.00578,-2.20134 -0.01156,-4.40268 -0.01751,-6.67073c-0.65738,0 -1.31477,0 -1.99207,0c0,-0.65738 0,-1.31477 0,-1.99207c0.98608,0.16435 1.97215,0.32869 2.98811,0.49802c-0.16435,-1.80781 -0.32869,-3.61562 -0.49802,-5.4782c-0.65738,0.49304 -1.31477,0.98608 -1.99207,1.49406c-1.80532,-0.28014 -1.80532,-0.28014 -3.48613,-0.99604c-0.32869,-0.65738 -0.65738,-1.31477 -0.99604,-1.99207c0.49304,-0.16435 0.98608,-0.32869 1.49406,-0.49802c-0.16435,-0.32869 -0.32869,-0.65738 -0.49802,-0.99604c1.34903,-0.67452 2.49474,-0.53039 3.98415,-0.49802c0,-0.32869 0,-0.65738 0,-0.99604c-1.64346,0.16435 -3.28692,0.32869 -4.98019,0.49802c0,0.32869 0,0.65738 0,0.99604c-0.32869,0 -0.65738,0 -0.99604,0c-0.02119,-0.99581 -0.02032,-1.99228 0,-2.98811c0.49802,-0.49802 0.49802,-0.49802 2.51149,-0.51163c1.70159,0.02972 3.40316,0.06083 5.10469,0.09338c3.29799,-0.11221 5.96118,-1.35541 9.31645,-1.0758z" fill="#7c332f"/><path d="M138.44917,47.43843c1.47912,0 2.95823,0 4.48217,0c0,0.32869 0,0.65738 0,0.99604c-0.32869,0 -0.65738,0 -0.99604,0c0.24652,1.2326 0.24652,1.2326 0.49802,2.49009c0.82173,-0.32869 1.64346,-0.65738 2.49009,-0.99604c-0.24652,-0.49304 -0.24652,-0.49304 -0.49802,-0.99604c2.86361,0.43577 2.86361,0.43577 3.98415,0.99604c0.32869,-0.65738 0.65738,-1.31477 0.99604,-1.99207c0.65738,0 1.31477,0 1.99207,0c0.49304,1.15042 0.98608,2.30085 1.49406,3.48613c0.32869,0 0.65738,0 0.99604,0c0.15407,0.48277 0.30815,0.96553 0.46689,1.46293c0.37736,1.44583 0.37736,1.44583 1.02716,2.0232c0.071,1.66148 0.02106,3.31668 0,4.98019c-0.32869,0 -0.65738,0 -0.99604,0c0,-0.49304 0,-0.98608 0,-1.49406c-0.32869,0.16435 -0.65738,0.32869 -0.99604,0.49802c0,0.65738 0,1.31477 0,1.99207c-3.29937,0.1245 -3.29937,0.1245 -4.98019,-0.99604c0,0.65738 0,1.31477 0,1.99207c-0.65738,0.16435 -1.31477,0.32869 -1.99207,0.49802c-0.24652,-0.73956 -0.24652,-0.73956 -0.49802,-1.49406c-0.65738,0 -1.31477,0 -1.99207,0c-0.24652,0.73956 -0.24652,0.73956 -0.49802,1.49406c-2.31542,1.73657 -4.30673,2.19795 -7.07148,2.90835c-0.4603,0.19067 -0.92059,0.38134 -1.39484,0.57778c-0.66778,2.06709 -0.66778,2.06709 0,4.48217c0.06261,6.11086 0.08753,12.22213 0.09338,18.33331c0.00706,3.35176 0.01412,6.70352 0.0214,10.15686c-0.11328,8.25423 -0.26865,14.06146 -6.091,19.81764c-1.86242,1.24162 -2.63487,1.02608 -4.82456,0.80928c-0.58741,-0.05521 -1.17482,-0.11042 -1.78003,-0.1673c-0.67504,-0.07126 -0.67504,-0.07126 -1.36371,-0.14396c0,-0.16435 0,-0.32869 0,-0.49802c0.59511,-0.01926 0.59511,-0.01926 1.20225,-0.03891c0.52771,-0.02825 1.05541,-0.0565 1.59911,-0.0856c0.52,-0.02311 1.04,-0.04622 1.57576,-0.07003c1.96144,-0.26461 1.96144,-0.26461 4.58722,-2.29556c4.31924,-8.02145 3.85169,-13.15414 3.73514,-22.22408c-0.02568,-2.79003 -0.05136,-5.58006 -0.07782,-8.45464c-0.1278,-5.7246 -0.311,-11.41758 -0.66921,-17.13106c-0.32869,-0.16435 -0.65738,-0.32869 -0.99604,-0.49802c0,-0.82173 0,-1.64346 0,-2.49009c1.49406,-0.99604 1.49406,-0.99604 3.67289,-1.61856c2.05452,-0.59082 3.92202,-1.35296 5.85172,-2.27221c9.63273,-4.57555 9.63273,-4.57555 12.88623,-4.57555c-0.24652,-0.73956 -0.24652,-0.73956 -0.49802,-1.49406c-1.31477,0 -2.62954,0 -3.98415,0c0.73956,-0.98608 0.73956,-0.98608 1.49406,-1.99207c0.16435,-0.65738 0.32869,-1.31477 0.49802,-1.99207c-2.40396,0.64105 -2.90805,0.88928 -4.48217,2.98811c-0.32869,0 -0.65738,0 -0.99604,0c0,-0.98608 0,-1.97215 0,-2.98811c-0.82173,0 -1.64346,0 -2.49009,0c0.01027,0.4725 0.02054,0.94499 0.03113,1.4318c-0.03113,1.55631 -0.03113,1.55631 -0.52914,2.55235c-0.70875,-0.13867 -0.70875,-0.13867 -1.4318,-0.28014c-1.50585,-0.36075 -1.50585,-0.36075 -2.55235,0.28014c-1.3279,0.02012 -2.65627,0.02142 -3.98415,0c0.16435,-0.65738 0.32869,-1.31477 0.49802,-1.99207c-0.32869,0 -0.65738,0 -0.99604,0c0,-0.49802 0,-0.99604 0,-1.49406c-4.15751,0.34646 -7.51536,2.03716 -10.45839,4.98019c-1.92823,2.72038 -2.80409,5.09265 -2.98811,8.46632c-0.32869,0 -0.65738,0 -0.99604,0c-0.73956,3.20475 -0.73956,3.20475 -1.49406,6.47424c-0.16435,0 -0.32869,0 -0.49802,0c-0.27431,-3.73061 0.29487,-6.15519 1.89675,-9.53238c0.65571,-1.41818 0.65571,-1.41818 0.85013,-3.01535c0.33433,-1.93589 1.28297,-2.60694 2.73132,-3.88688c0.49304,-0.55467 0.49304,-0.55467 0.99604,-1.12054c1.16065,-1.01556 1.97215,-1.20133 3.48613,-1.36955c0,-0.49304 0,-0.98608 0,-1.49406c0.43141,-0.05136 0.86282,-0.10272 1.3073,-0.15563c1.7639,-0.35931 3.09674,-0.97548 4.66892,-1.83644c0,-0.32869 0,-0.65738 0,-0.99604c1.31477,-0.16435 2.62954,-0.32869 3.98415,-0.49802c0,-0.16435 0,-0.32869 0,-0.49802z" fill="#f8f4f1"/><path d="M91.1374,21.04344c0.49304,0.16435 0.98608,0.32869 1.49406,0.49802c0.24652,1.47912 0.24652,1.47912 0.49802,2.98811c0.82173,0 1.64346,0 2.49009,0c-0.65738,0.16435 -1.31477,0.32869 -1.99207,0.49802c0,0.65738 0,1.31477 0,1.99207c0.32869,0.16435 0.65738,0.32869 0.99604,0.49802c0,1.15042 0,2.30085 0,3.48613c-0.82173,-0.16435 -1.64346,-0.32869 -2.49009,-0.49802c-0.16435,0.98608 -0.32869,1.97215 -0.49802,2.98811c-0.82173,0.16435 -1.64346,0.32869 -2.49009,0.49802c-0.04526,0.7463 -0.04526,0.7463 -0.09143,1.50767c-0.04173,0.64262 -0.08346,1.28524 -0.12645,1.94733c-0.04044,0.64133 -0.08089,1.28267 -0.12256,1.94344c-0.15758,1.57382 -0.15758,1.57382 -0.6556,2.07184c-1.96095,0.1245 -1.96095,0.1245 -3.98415,0c-0.32869,-0.49304 -0.65738,-0.98608 -0.99604,-1.49406c1.47912,0.16435 2.95823,0.32869 4.48217,0.49802c-0.12009,-3.93895 -0.28505,-7.11932 -2.49009,-10.45839c-1.98778,-0.99389 -3.27294,-1.41529 -5.4782,-1.49406c-1.22598,0.89254 -1.22598,0.89254 -1.99207,1.99207c1.47912,0 2.95823,0 4.48217,0c0.16435,0.65738 0.32869,1.31477 0.49802,1.99207c-0.65738,0.16435 -1.31477,0.32869 -1.99207,0.49802c-0.16435,0.32869 -0.32869,0.65738 -0.49802,0.99604c-1.32282,0.20351 -2.65179,0.37113 -3.98415,0.49802c0,-0.65738 0,-1.31477 0,-1.99207c-0.32869,0 -0.65738,0 -0.99604,0c0,-0.65738 0,-1.31477 0,-1.99207c0.49304,0 0.98608,0 1.49406,0c0,-0.98608 0,-1.97215 0,-2.98811c1.68652,-0.9461 2.91807,-1.48588 4.85568,-1.71194c0.53412,-0.09245 1.06825,-0.18489 1.61856,-0.28014c0.32869,-0.65738 0.65738,-1.31477 0.99604,-1.99207c1.11665,-0.48635 1.11665,-0.48635 2.42784,-0.80928c1.7064,-0.43297 2.9369,-0.87705 4.54442,-1.68081z" fill="#a2685e"/><path d="M101.59579,1.43396c2.38329,1.41508 2.65816,2.07292 3.48613,4.66892c0.18092,2.41422 0.18092,2.41422 0.15563,5.01131c-0.00193,0.85833 -0.00385,1.71665 -0.00584,2.60098c-0.12973,2.03356 -0.38789,3.47115 -1.14583,5.33619c-0.16435,0.49304 -0.32869,0.98608 -0.49802,1.49406c-1.53295,1.6607 -3.1538,3.1494 -4.98019,4.48217c-0.32869,0 -0.65738,0 -0.99604,0c0,0.32869 0,0.65738 0,0.99604c-0.49304,0.32869 -0.98608,0.65738 -1.49406,0.99604c-0.64138,1.58658 -0.99604,2.76659 -0.99604,4.48217c-0.49304,0 -0.98608,0 -1.49406,0c-0.04879,0.75175 -0.09758,1.50351 -0.14785,2.27805c-0.40379,5.44778 -0.82077,10.54307 -2.84026,15.65062c-0.4467,-1.78679 -0.53937,-3.16052 -0.49802,-4.98019c-1.47912,0 -2.95823,0 -4.48217,0c0,-0.82173 0,-1.64346 0,-2.49009c0.98608,0 1.97215,0 2.98811,0c-0.00578,-0.56943 -0.01155,-1.13887 -0.01751,-1.72555c-0.00449,-0.73507 -0.00898,-1.47013 -0.01362,-2.22747c-0.00578,-0.73378 -0.01155,-1.46756 -0.01751,-2.22357c0.04864,-1.7917 0.04864,-1.7917 0.54666,-2.28972c0.82173,0 1.64346,0 2.49009,0c0.16435,-0.98608 0.32869,-1.97215 0.49802,-2.98811c0.65738,0 1.31477,0 1.99207,0c0.04454,-1.91511 -0.09367,-3.60927 -0.49802,-5.4782c0.36079,-0.10336 0.72158,-0.20672 1.09331,-0.31321c4.25687,-1.35652 5.90151,-2.95775 8.36905,-6.65905c1.19854,-3.52903 1.40639,-7.2632 0.99604,-10.95641c-0.71399,-1.36886 -0.71399,-1.36886 -1.49406,-2.49009c0,-0.32869 0,-0.65738 0,-0.99604c-2.82804,-1.41402 -4.74236,-2.28534 -7.9683,-1.99207c-2.07082,1.25783 -2.07082,1.25783 -2.49009,2.98811c0.82173,-0.16435 1.64346,-0.32869 2.49009,-0.49802c-0.16435,0.65738 -0.32869,1.31477 -0.49802,1.99207c-1.99207,-0.49802 -1.99207,-0.49802 -2.67685,-1.61856c-0.38099,-1.67638 -0.1742,-2.38711 0.68478,-3.85964c3.05052,-1.01684 6.5045,-0.32052 9.46235,0.80928z" fill="#ce8a7c"/><path d="M100.10174,153.01837c0.16435,0 0.32869,0 0.49802,0c0.29974,35.50264 -1.39159,70.78229 -3.49197,106.21608c-0.33021,6.25564 -0.49218,12.52224 -0.49218,18.78659c-0.16435,0.16435 -0.32869,0.32869 -0.49802,0.49802c-0.19973,1.75093 -0.37149,3.5051 -0.52914,5.26032c-0.08795,0.96618 -0.1759,1.93235 -0.26652,2.92781c-0.06612,0.74918 -0.13224,1.49837 -0.20037,2.27026c1.15042,0.16435 2.30085,0.32869 3.48613,0.49802c0,0.16435 0,0.32869 0,0.49802c-1.31477,0.16435 -2.62954,0.32869 -3.98415,0.49802c-0.65426,-2.61703 -0.32759,-4.77429 -0.09338,-7.47028c0.48564,-6.11904 0.79854,-12.23167 1.05829,-18.36444c0.32271,-7.48068 0.74536,-14.94212 1.27617,-22.41084c0.7533,-10.8391 1.16807,-21.678 1.52907,-32.53657c0.16847,-4.62367 0.40828,-9.22562 0.71201,-13.84142c0.62594,-14.26632 0.75648,-28.55309 0.99604,-42.8296z" fill="#d9d9d9"/><path d="M70.22062,47.43843c0.89363,0.63171 0.89363,0.63171 1.80532,1.27617c4.84299,3.1982 9.24115,5.61654 15.12731,5.69609c0,0.98608 0,1.97215 0,2.98811c-0.57585,0.09919 -0.57585,0.09919 -1.16334,0.20037c-0.49946,0.08796 -0.99892,0.17591 -1.51351,0.26652c-0.49689,0.08667 -0.99378,0.17334 -1.50573,0.26263c-1.28024,0.20532 -1.28024,0.20532 -2.29166,0.76454c-2.60966,0.143 -4.8531,-0.21731 -7.3769,-0.87153c-0.65032,-0.16178 -1.30065,-0.32356 -1.97067,-0.49024c-1.60883,-0.6303 -1.60883,-0.6303 -2.60487,-2.62238c0.32869,0 0.65738,0 0.99604,0c0.16435,-2.46519 0.32869,-4.93038 0.49802,-7.47028z" fill="#cf8778"/><path d="M63.74638,14.07118c-0.49304,0.32869 -0.98608,0.65738 -1.49406,0.99604c-2.2611,1.62517 -3.79907,2.74134 -5.4782,4.98019c-0.74524,6.35644 0.00429,13.43175 3.58146,18.8644c1.52245,1.78551 3.34425,2.91943 5.38288,4.04445c1.99076,1.10597 3.32837,1.97569 4.48217,3.98415c0.17692,2.79537 -0.00544,5.21707 -0.49802,7.9683c-0.61373,-0.02889 -1.22746,-0.05778 -1.85979,-0.08754c-8.80151,-0.23992 -14.8592,2.19551 -21.3292,8.21147c-1.54179,2.33245 -2.14794,4.59798 -2.70798,7.31465c-0.16435,0 -0.32869,0 -0.49802,0c-0.14534,-3.41558 -0.07815,-6.73298 2.24108,-9.4001c0.41087,-0.34924 0.82173,-0.69847 1.24505,-1.05829c0.32869,-0.49304 0.65738,-0.98608 0.99604,-1.49406c0.49304,0.32869 0.98608,0.65738 1.49406,0.99604c0,-0.32869 0,-0.65738 0,-0.99604c1.18181,-0.56234 2.36485,-1.12211 3.54838,-1.68081c0.65867,-0.312 1.31734,-0.624 1.99596,-0.94546c4.65539,-2.07847 8.83771,-2.43595 13.87838,-2.35391c0,-0.98608 0,-1.97215 0,-2.98811c-0.32869,0 -0.65738,0 -0.99604,0c-0.06163,-0.69847 -0.12326,-1.39694 -0.18676,-2.11658c-0.18185,-2.37793 -0.18185,-2.37793 -1.3073,-4.35766c-0.46222,0.02054 -0.92445,0.04109 -1.40068,0.06225c-1.58743,-0.06225 -1.58743,-0.06225 -3.08149,-1.05829c-0.16435,0.49304 -0.32869,0.98608 -0.49802,1.49406c-0.16435,0 -0.32869,0 -0.49802,0c-0.24652,-1.97215 -0.24652,-1.97215 -0.49802,-3.98415c-0.65738,-0.16435 -1.31477,-0.32869 -1.99207,-0.49802c-0.13353,-0.64711 -0.26706,-1.29423 -0.40464,-1.96095c-0.34681,-1.5914 -0.7618,-2.97563 -1.33842,-4.51329c-1.39608,-4.08748 -2.48015,-9.32626 -1.21392,-13.53988c1.97398,-3.88429 3.89703,-6.08912 8.43519,-5.88284z" fill="#f3f2f1"/><path d="M75.69883,69.84927c1.47912,0.24652 1.47912,0.24652 2.98811,0.49802c0.16435,5.25908 0.32869,10.51815 0.49802,15.9366c0.16435,0 0.32869,0 0.49802,0c0.08961,7.98077 0.15633,15.86559 -0.74508,23.80179c-0.2956,3.05456 -0.40251,6.0937 -0.49997,9.16082c-0.14649,4.4443 -0.45945,8.79854 -1.00771,13.20917c-0.40992,3.6893 -0.56884,7.39327 -0.73535,11.10037c-0.49304,0.16435 -0.98608,0.32869 -1.49406,0.49802c0,-6.47128 0.64268,-12.8798 1.16723,-19.3274c0.30254,-4.69841 0.38401,-9.3336 0.32682,-14.03985c-0.82173,-0.16435 -1.64346,-0.32869 -2.49009,-0.49802c0.16435,-0.65738 0.32869,-1.31477 0.49802,-1.99207c0.82173,0.16435 1.64346,0.32869 2.49009,0.49802c0.65307,-7.18378 0.54378,-14.2949 0.52914,-21.50818c-0.00449,-2.86258 -0.00899,-5.72515 -0.01362,-8.67447c-0.00578,-2.20134 -0.01156,-4.40268 -0.01751,-6.67073c-0.65738,0 -1.31477,0 -1.99207,0c0,-0.65738 0,-1.31477 0,-1.99207z" fill="#474747"/><path d="M102.59183,94.25218c2.03115,2.03115 2.97763,4.31061 4.26428,6.87888c4.62794,8.96704 4.62794,8.96704 11.67231,16.02997c0.65738,0.49304 1.31477,0.98608 1.99207,1.49406c-0.46223,-0.08217 -0.92445,-0.16435 -1.40068,-0.24901c-1.56563,-0.2876 -1.56563,-0.2876 -3.08149,-0.24901c-0.99604,-1.49406 -0.99604,-1.49406 -0.99604,-2.98811c-0.82173,-0.16435 -1.64346,-0.32869 -2.49009,-0.49802c0,-0.49304 0,-0.98608 0,-1.49406c-0.73956,-0.24652 -0.73956,-0.24652 -1.49406,-0.49802c-0.16435,-0.65738 -0.32869,-1.31477 -0.49802,-1.99207c-0.81324,-1.50326 -1.64792,-2.99492 -2.49009,-4.48217c-1.33069,-2.48868 -2.65899,-4.97865 -3.98415,-7.47028c-0.05835,15.28171 0.06312,30.54183 0.49802,45.81771c-2.21867,0.49304 -2.21867,0.49304 -4.48217,0.99604c0,2.30085 0,4.60169 0,6.97226c-0.16435,0 -0.32869,0 -0.49802,0c-0.16435,-2.62954 -0.32869,-5.25908 -0.49802,-7.9683c0.99604,-0.49802 0.99604,-0.49802 3.98415,-0.49802c-0.03595,-2.05111 -0.0719,-4.10223 -0.10894,-6.21551c-0.2446,-14.52999 -0.47598,-29.05413 -0.38908,-43.58635z" fill="#d5d6d6"/><path d="M95.12155,30.5058c0.49304,0 0.98608,0 1.49406,0c0,0.32869 0,0.65738 0,0.99604c-0.32869,0 -0.65738,0 -0.99604,0c-0.68563,3.08534 -1.05377,5.78916 -0.99604,8.96433c-0.16435,0.16435 -0.32869,0.32869 -0.49802,0.49802c-0.0719,0.55467 -0.1438,1.10934 -0.21788,1.68081c-0.28014,1.80532 -0.28014,1.80532 -1.27617,3.29937c-0.34943,0.99006 -0.68414,1.9856 -0.99604,2.98811c0.32869,0 0.65738,0 0.99604,0c0.16435,1.15042 0.32869,2.30085 0.49802,3.48613c-0.65738,0 -1.31477,0 -1.99207,0c-0.22598,0.46222 -0.45195,0.92445 -0.68478,1.40068c-0.80928,1.58743 -0.80928,1.58743 -1.80532,3.08149c2.18515,1.09257 4.05844,1.07793 6.47424,0.99604c0.16435,0.32869 0.32869,0.65738 0.49802,0.99604c0.98552,0.36203 1.98189,0.69631 2.98811,0.99604c0,0.16435 0,0.32869 0,0.49802c-2.86361,0.06225 -2.86361,0.06225 -3.98415,-0.49802c-1.47912,-0.16435 -2.95823,-0.32869 -4.48217,-0.49802c0,14.46246 0,28.92492 0,43.82564c-0.16435,0 -0.32869,0 -0.49802,0c0,-13.47638 0,-26.95277 0,-40.83753c-0.98608,0.49304 -0.98608,0.49304 -1.99207,0.99604c0.15407,-1.06312 0.15407,-1.06312 0.31126,-2.14771c0.42713,-2.30802 0.42713,-2.30802 -0.80928,-3.82852c-0.21788,-1.68081 -0.21788,-1.68081 0,-3.48613c0.58163,-0.55563 0.58163,-0.55563 1.17502,-1.12249c4.13216,-4.2972 4.1881,-12.14952 4.62223,-17.7672c0.17898,-2.02709 0.17898,-2.02709 0.677,-3.52115c0.49304,0 0.98608,0 1.49406,0c0,-0.32869 0,-0.65738 0,-0.99604z" fill="#f7f2ee"/><path d="M143.92738,51.42258c0.82173,0 1.64346,0 2.49009,0c0,0.98608 0,1.97215 0,2.98811c0.40059,-0.40059 0.80119,-0.80119 1.21392,-1.21392c0.5914,-0.5914 1.18279,-1.18279 1.77419,-1.77419c0.82173,0 1.64346,0 2.49009,0c-0.37351,2.36559 -0.37351,2.36559 -1.49406,3.48613c1.15042,0 2.30085,0 3.48613,0c0.24652,0.98608 0.24652,0.98608 0.49802,1.99207c-0.43398,0.15086 -0.86795,0.30173 -1.31508,0.45717c-4.74308,1.66829 -9.45313,3.38449 -13.93674,5.67469c-1.68081,0.84041 -1.68081,0.84041 -2.67685,0.84041c0,-0.32869 0,-0.65738 0,-0.99604c0.82173,-0.16435 1.64346,-0.32869 2.49009,-0.49802c0,-0.32869 0,-0.65738 0,-0.99604c0.98608,-0.16435 1.97215,-0.32869 2.98811,-0.49802c0.16435,-0.82173 0.32869,-1.64346 0.49802,-2.49009c-0.65738,-0.16435 -1.31477,-0.32869 -1.99207,-0.49802c-0.16435,-0.98608 -0.32869,-1.97215 -0.49802,-2.98811c0.49304,-0.16435 0.98608,-0.32869 1.49406,-0.49802c0.65738,0.32869 1.31477,0.65738 1.99207,0.99604c0.16435,-1.31477 0.32869,-2.62954 0.49802,-3.98415z" fill="#cc8e80"/><path d="M24.40291,64.37106c0.16435,0 0.32869,0 0.49802,0c-0.04044,2.75922 -0.08089,5.51843 -0.12256,8.36126c-0.03146,3.58865 -0.06291,7.1773 -0.09533,10.8747c-0.04044,3.57068 -0.08089,7.14135 -0.12256,10.82023c-0.30466,9.20021 -0.30466,9.20021 3.82657,16.25953c3.16917,2.11278 3.85304,2.37283 7.47028,1.99207c5.26029,-1.35931 7.96637,-4.52457 10.95641,-8.96433c0.76818,1.53637 0.12487,2.56378 -0.37351,4.17091c-0.17205,0.56879 -0.3441,1.13758 -0.52137,1.72361c-0.59918,1.57576 -0.59918,1.57576 -2.09323,3.56784c0,-0.65738 0,-1.31477 0,-1.99207c-2.40265,0.63222 -2.40265,0.63222 -3.98415,2.49009c-1.93566,0.21594 -1.93566,0.21594 -4.32654,0.21788c-0.78257,0.00963 -1.56514,0.01926 -2.37143,0.02918c-2.44613,-0.26666 -3.78869,-0.77464 -5.7525,-2.23914c-0.16435,-0.65738 -0.32869,-1.31477 -0.49802,-1.99207c-0.32869,0 -0.65738,0 -0.99604,0c0,-0.49304 0,-0.98608 0,-1.49406c-0.32869,0 -0.65738,0 -0.99604,0c-1.53715,-5.05237 -1.66199,-9.64315 -1.61856,-14.90943c0.01348,-1.66529 0.02696,-3.33058 0.04085,-5.04633c0.29838,-17.6391 0.29838,-17.6391 1.07969,-23.86988zM44.32366,108.1967c0.49802,0.99604 0.49802,0.99604 0.49802,0.99604zM43.82564,109.19273c-0.16435,0.32869 -0.32869,0.65738 -0.49802,0.99604c0.32869,0.32869 0.65738,0.65738 0.99604,0.99604c-0.16435,-0.65738 -0.32869,-1.31477 -0.49802,-1.99207z" fill="#d9d9d9"/><path d="M134.46502,48.43447c2.1365,0 4.273,0 6.47424,0c0.24652,1.2326 0.24652,1.2326 0.49802,2.49009c-0.32869,0.49304 -0.65738,0.98608 -0.99604,1.49406c0.65738,0.82173 1.31477,1.64346 1.99207,2.49009c-2.34991,0.46998 -4.57873,0.53928 -6.97226,0.49802c0.16435,-0.65738 0.32869,-1.31477 0.49802,-1.99207c-0.32869,0 -0.65738,0 -0.99604,0c0,-0.49802 0,-0.99604 0,-1.49406c-4.15751,0.34646 -7.51536,2.03716 -10.45839,4.98019c-1.92823,2.72038 -2.80409,5.09265 -2.98811,8.46632c-0.32869,0 -0.65738,0 -0.99604,0c-0.73956,3.20475 -0.73956,3.20475 -1.49406,6.47424c-0.16435,0 -0.32869,0 -0.49802,0c-0.27431,-3.73061 0.29487,-6.15519 1.89675,-9.53238c0.65571,-1.41818 0.65571,-1.41818 0.85013,-3.01535c0.33433,-1.93589 1.28297,-2.60694 2.73132,-3.88688c0.49304,-0.55467 0.49304,-0.55467 0.99604,-1.12054c1.16065,-1.01556 1.97215,-1.20133 3.48613,-1.36955c0,-0.49304 0,-0.98608 0,-1.49406c0.43141,-0.05136 0.86282,-0.10272 1.3073,-0.15563c1.7639,-0.35931 3.09674,-0.97548 4.66892,-1.83644c0,-0.32869 0,-0.65738 0,-0.99604z" fill="#d59d90"/><path d="M6.97226,45.44635c2.25539,0.56385 3.26409,1.46702 4.98019,2.98811c0.16435,-0.98608 0.32869,-1.97215 0.49802,-2.98811c0.65738,0.16435 1.31477,0.32869 1.99207,0.49802c0.06163,0.56494 0.12326,1.12988 0.18676,1.71194c0.10272,0.58548 0.20543,1.17097 0.31126,1.77419c0.32869,0.16435 0.65738,0.32869 0.99604,0.49802c-0.49304,0.49304 -0.98608,0.98608 -1.49406,1.49406c0.11692,1.81549 0.11692,1.81549 0.49802,3.48613c-9.76859,-2.45143 -9.76859,-2.45143 -11.45443,-4.98019c0.49802,-0.49802 0.49802,-0.49802 2.52122,-0.52914c0.64711,0.01027 1.29423,0.02054 1.96095,0.03113c-0.49304,-0.65738 -0.98608,-1.31477 -1.49406,-1.99207c0.16435,-0.65738 0.32869,-1.31477 0.49802,-1.99207z" fill="#cf9185"/><path d="M90.14137,59.39087c1.47912,0 2.95823,0 4.48217,0c0,0.16435 0,0.32869 0,0.49802c-1.31477,0 -2.62954,0 -3.98415,0c0.16435,16.59896 0.32869,33.19792 0.49802,50.29988c0.32869,0 0.65738,0 0.99604,0c0.24652,-0.49304 0.24652,-0.49304 0.49802,-0.99604c0.82173,0.32869 1.64346,0.65738 2.49009,0.99604c-0.1245,1.18279 -0.1245,1.18279 -0.49802,2.49009c-0.98608,0.49304 -0.98608,0.49304 -1.99207,0.99604c0,1.15042 0,2.30085 0,3.48613c-0.49304,0.24652 -0.49304,0.24652 -0.99604,0.49802c-0.16435,5.75211 -0.32869,11.50423 -0.49802,17.43065c-0.16435,0 -0.32869,0 -0.49802,0c-0.41263,-17.103 -0.55097,-34.18813 -0.52914,-51.29592c0.00449,-4.59142 0.00899,-9.18284 0.01362,-13.91339c0.00578,-3.46154 0.01156,-6.92308 0.01751,-10.48952z" fill="#626363"/><path d="M82.17307,26.52165c2.45876,0.99521 3.9265,2.87676 5.4782,4.98019c1.12832,3.07722 1.24157,6.21333 0.99604,9.46235c-0.49802,0.49802 -0.49802,0.49802 -2.45897,0.62252c-1.00149,-0.06163 -1.00149,-0.06163 -2.0232,-0.1245c-0.32869,-0.49304 -0.65738,-0.98608 -0.99604,-1.49406c1.47912,0.16435 2.95823,0.32869 4.48217,0.49802c-0.12009,-3.93895 -0.28505,-7.11932 -2.49009,-10.45839c-1.98778,-0.99389 -3.27294,-1.41529 -5.4782,-1.49406c-1.22598,0.89254 -1.22598,0.89254 -1.99207,1.99207c1.47912,0 2.95823,0 4.48217,0c0.16435,0.65738 0.32869,1.31477 0.49802,1.99207c-0.65738,0.16435 -1.31477,0.32869 -1.99207,0.49802c-0.16435,0.32869 -0.32869,0.65738 -0.49802,0.99604c-1.32282,0.20351 -2.65179,0.37113 -3.98415,0.49802c0,-0.65738 0,-1.31477 0,-1.99207c-0.32869,0 -0.65738,0 -0.99604,0c0,-0.65738 0,-1.31477 0,-1.99207c0.49304,0 0.98608,0 1.49406,0c-0.03081,-0.4725 -0.06163,-0.94499 -0.09338,-1.4318c0.03081,-0.51358 0.06163,-1.02716 0.09338,-1.55631c1.96288,-1.30858 3.15086,-1.17235 5.4782,-0.99604z" fill="#6f413a"/><path d="M75.69883,174.43317c0.32869,0 0.65738,0 0.99604,0c0.08442,7.76077 0.16708,15.52157 0.24901,23.28237c0.04622,4.32179 0.09244,8.64358 0.14007,13.09634c0.09789,11.61351 0.12831,23.22412 0.10894,34.83795c-0.16435,0 -0.32869,0 -0.49802,0c-0.49304,-21.52934 -0.98608,-43.05869 -1.49406,-65.24044c-0.16435,0 -0.32869,0 -0.49802,0c0.23795,-2.03955 0.49746,-3.9819 0.99604,-5.97622z" fill="#cbcdcc"/><path d="M17.43065,46.94041c0.49304,0 0.98608,0 1.49406,0c0.06225,3.36163 0.06225,3.36163 -0.49802,4.48217c2.1365,0 4.273,0 6.47424,0c-0.32869,-0.49304 -0.65738,-0.98608 -0.99604,-1.49406c0.65738,0.32869 1.31477,0.65738 1.99207,0.99604c0.65738,0.16435 1.31477,0.32869 1.99207,0.49802c0.16435,-0.32869 0.32869,-0.65738 0.49802,-0.99604c1.15042,0.16435 2.30085,0.32869 3.48613,0.49802c-0.49802,1.99207 -0.49802,1.99207 -1.49406,2.98811c-1.16778,-0.11916 -2.32978,-0.29612 -3.48613,-0.49802c-0.70874,-0.0719 -1.41749,-0.1438 -2.14771,-0.21788c-2.48233,-0.29788 -4.86962,-0.75962 -7.31465,-1.27617c0.16435,0.16435 0.32869,0.32869 0.49802,0.49802c0.16435,0.32869 0.32869,0.65738 0.49802,0.99604c-0.49304,0.32869 -0.98608,0.65738 -1.49406,0.99604c0.40059,0.12326 0.80119,0.24652 1.21392,0.37351c0.42113,0.20543 0.84227,0.41087 1.27617,0.62252c0.16435,0.65738 0.32869,1.31477 0.49802,1.99207c-2.05695,-0.72598 -3.78471,-1.60252 -5.4782,-2.98811c-0.49802,-1.52518 -0.49802,-1.52518 -0.49802,-2.98811c0.32869,-0.49304 0.65738,-0.98608 0.99604,-1.49406c0.32869,0 0.65738,0 0.99604,0c0.15408,-0.40059 0.30815,-0.80119 0.46689,-1.21392c0.52914,-1.27617 0.52914,-1.27617 1.02716,-1.77419z" fill="#c47e6d"/><path d="M101.59579,1.43396c2.38329,1.41508 2.65816,2.07292 3.48613,4.66892c0.18092,2.41422 0.18092,2.41422 0.15563,5.01131c-0.00193,0.85833 -0.00385,1.71665 -0.00584,2.60098c-0.12973,2.03356 -0.38789,3.47115 -1.14583,5.33619c-0.16435,0.49304 -0.32869,0.98608 -0.49802,1.49406c-1.53295,1.6607 -3.1538,3.1494 -4.98019,4.48217c-0.32869,0 -0.65738,0 -0.99604,0c0,0.32869 0,0.65738 0,0.99604c-0.49304,0.32869 -0.98608,0.65738 -1.49406,0.99604c-0.60699,1.77131 -0.60699,1.77131 -0.99604,3.48613c-0.32869,0 -0.65738,0 -0.99604,0c0.01027,-0.44168 0.02054,-0.88336 0.03113,-1.33842c-0.02766,-1.46621 -0.22078,-2.7145 -0.52914,-4.13978c0.36079,-0.10336 0.72158,-0.20672 1.09331,-0.31321c4.25687,-1.35652 5.90151,-2.95775 8.36905,-6.65905c1.19854,-3.52903 1.40639,-7.2632 0.99604,-10.95641c-0.71399,-1.36886 -0.71399,-1.36886 -1.49406,-2.49009c0,-0.32869 0,-0.65738 0,-0.99604c-2.82804,-1.41402 -4.74236,-2.28534 -7.9683,-1.99207c-2.07082,1.25783 -2.07082,1.25783 -2.49009,2.98811c0.82173,-0.16435 1.64346,-0.32869 2.49009,-0.49802c-0.16435,0.65738 -0.32869,1.31477 -0.49802,1.99207c-1.99207,-0.49802 -1.99207,-0.49802 -2.67685,-1.61856c-0.38099,-1.67638 -0.1742,-2.38711 0.68478,-3.85964c3.05052,-1.01684 6.5045,-0.32052 9.46235,0.80928z" fill="#e4e2e3"/><path d="M133.46898,67.85719c0.49304,0.16435 0.98608,0.32869 1.49406,0.49802c0.02678,6.39122 0.04616,12.78246 0.06225,19.17372c0.01733,5.33868 0.01733,5.33868 0.03502,10.78522c-0.15864,14.49331 -0.15864,14.49331 -6.07349,20.34095c-1.86242,1.24162 -2.63487,1.02608 -4.82456,0.80928c-0.58741,-0.05521 -1.17482,-0.11042 -1.78003,-0.1673c-0.45002,-0.04751 -0.90005,-0.09501 -1.36371,-0.14396c0,-0.16435 0,-0.32869 0,-0.49802c0.39674,-0.01284 0.79348,-0.02568 1.20225,-0.03891c0.52771,-0.02825 1.05541,-0.0565 1.59911,-0.0856c0.52,-0.02311 1.04,-0.04622 1.57576,-0.07003c1.96144,-0.26461 1.96144,-0.26461 4.58722,-2.29556c5.00893,-9.30231 3.81558,-17.29266 3.70401,-27.79566c-0.03145,-3.82426 -0.06291,-7.64851 -0.09533,-11.58866c-0.04044,-2.94475 -0.08089,-5.8895 -0.12256,-8.92348z" fill="#dedfdf"/><path d="M16.93263,42.95626c1.27617,-0.18676 1.27617,-0.18676 2.98811,0c1.83644,1.46293 1.83644,1.46293 3.48613,2.98811c0.49304,0.16435 0.98608,0.32869 1.49406,0.49802c-0.10272,0.62657 -0.20543,1.25314 -0.31126,1.8987c-0.40702,2.09317 -0.40702,2.09317 0.80928,3.57951c-4.76675,0.07115 -4.76675,0.07115 -6.97226,-0.49802c0.16435,-1.47912 0.32869,-2.95823 0.49802,-4.48217c-0.32869,0 -0.65738,0 -0.99604,0c-0.99604,-1.49406 -0.99604,-1.49406 -0.99604,-3.98415z" fill="#d49587"/><path d="M38.34743,145.05007c2.95823,0 5.91646,0 8.96433,0c-0.28519,3.89966 -0.87895,7.60443 -1.71194,11.4233c-1.23036,5.66701 -2.26638,11.27637 -2.77023,17.05714c-0.41952,4.62801 -0.92588,9.23921 -1.49406,13.85114c-0.16435,0 -0.32869,0 -0.49802,0c-0.21083,-13.13347 2.3753,-26.03478 4.98019,-38.84545c0.16435,-0.82173 0.32869,-1.64346 0.49802,-2.49009c-2.62954,-0.16435 -5.25908,-0.32869 -7.9683,-0.49802c0,-0.16435 0,-0.32869 0,-0.49802z" fill="#dcdddc"/><path d="M67.73053,203.31825c1.07256,4.29023 -1.38375,9.69652 -2.45897,13.82002c-0.55916,2.15447 -1.11833,4.30895 -1.69443,6.52872c-0.43719,1.66657 -0.87438,3.33314 -1.32481,5.05022c-0.16435,0 -0.32869,0 -0.49802,0c0.29344,-3.93209 1.03916,-7.63076 1.99207,-11.45443c-0.65738,-0.32869 -1.31477,-0.65738 -1.99207,-0.99604c-0.32869,-0.32869 -0.65738,-0.65738 -0.99604,-0.99604c0.49802,-1.99207 0.49802,-1.99207 1.74307,-2.80135c0.41087,-0.22598 0.82173,-0.45195 1.24505,-0.68478c0.16435,-0.32869 0.32869,-0.65738 0.49802,-0.99604c0.49304,-0.16435 0.98608,-0.32869 1.49406,-0.49802c0.62704,-1.61727 0.62704,-1.61727 1.08942,-3.51726c0.25711,-0.96393 0.25711,-0.96393 0.51942,-1.94733c0.12647,-0.49753 0.25294,-0.99506 0.38324,-1.50767z" fill="#8f908f"/><path d="M21.91282,44.45032c4.62968,1.44677 8.35644,3.1779 11.95245,6.47424c-0.16435,0.32869 -0.32869,0.65738 -0.49802,0.99604c-0.49304,0 -0.98608,0 -1.49406,0c0,-0.32869 0,-0.65738 0,-0.99604c-1.15042,-0.16435 -2.30085,-0.32869 -3.48613,-0.49802c-0.16435,0.49304 -0.32869,0.98608 -0.49802,1.49406c-1.48008,-0.56003 -2.65664,-1.10707 -3.98415,-1.99207c0.43577,-2.36559 0.43577,-2.36559 0.99604,-3.48613c-0.82173,-0.16435 -1.64346,-0.32869 -2.49009,-0.49802c-0.16435,-0.49304 -0.32869,-0.98608 -0.49802,-1.49406z" fill="#d28b7d"/><path d="M153.88775,57.3988c-3.79739,2.49009 -3.79739,2.49009 -5.4782,2.49009c0,0.65738 0,1.31477 0,1.99207c-0.65738,0.16435 -1.31477,0.32869 -1.99207,0.49802c-0.16435,-0.49304 -0.32869,-0.98608 -0.49802,-1.49406c-0.65738,0 -1.31477,0 -1.99207,0c-0.16435,0.49304 -0.32869,0.98608 -0.49802,1.49406c-2.31187,1.7339 -4.31684,2.2216 -7.07148,2.95699c-0.4603,0.17462 -0.92059,0.34924 -1.39484,0.52914c-0.16435,0.49304 -0.32869,0.98608 -0.49802,1.49406c-0.32869,0 -0.65738,0 -0.99604,0c-0.16435,0.32869 -0.32869,0.65738 -0.49802,0.99604c-0.32869,-0.16435 -0.65738,-0.32869 -0.99604,-0.49802c0,-0.82173 0,-1.64346 0,-2.49009c1.49406,-0.99604 1.49406,-0.99604 3.67289,-1.61856c2.05452,-0.59082 3.92202,-1.35296 5.85172,-2.27221c10.54177,-5.00074 10.54177,-5.00074 12.38821,-4.07753z" fill="#f8eeeb"/><path d="M134.46502,48.43447c1.47912,0 2.95823,0 4.48217,0c-0.90197,1.80395 -3.1844,2.12719 -4.98019,2.83248c-5.72253,2.37797 -9.42316,4.34606 -11.95245,10.116c-0.43379,2.16944 -0.43379,2.16944 -0.49802,3.98415c-0.32869,0 -0.65738,0 -0.99604,0c-0.73956,3.20475 -0.73956,3.20475 -1.49406,6.47424c-0.16435,0 -0.32869,0 -0.49802,0c-0.27431,-3.73061 0.29487,-6.15519 1.89675,-9.53238c0.65571,-1.41818 0.65571,-1.41818 0.85013,-3.01535c0.33433,-1.93589 1.28297,-2.60694 2.73132,-3.88688c0.49304,-0.55467 0.49304,-0.55467 0.99604,-1.12054c1.16065,-1.01556 1.97215,-1.20133 3.48613,-1.36955c0,-0.49304 0,-0.98608 0,-1.49406c0.43141,-0.05136 0.86282,-0.10272 1.3073,-0.15563c1.7639,-0.35931 3.09674,-0.97548 4.66892,-1.83644c0,-0.32869 0,-0.65738 0,-0.99604z" fill="#f7f3ef"/><path d="M82.67109,191.86382c0.32869,0 0.65738,0 0.99604,0c0,0.98608 0,1.97215 0,2.98811c1.15042,0 2.30085,0 3.48613,0c0,0.49304 0,0.98608 0,1.49406c-1.15042,0 -2.30085,0 -3.48613,0c0.16435,0.82173 0.32869,1.64346 0.49802,2.49009c-0.49304,0.16435 -0.98608,0.32869 -1.49406,0.49802c0,0.49304 0,0.98608 0,1.49406c-0.49304,0 -0.98608,0 -1.49406,0c0,-0.49304 0,-0.98608 0,-1.49406c-0.65738,0 -1.31477,0 -1.99207,0c-0.49304,-0.49304 -0.98608,-0.98608 -1.49406,-1.49406c0.16435,-0.49304 0.32869,-0.98608 0.49802,-1.49406c0.49304,0 0.98608,0 1.49406,0c0.16435,-0.65738 0.32869,-1.31477 0.49802,-1.99207c0.65738,0.32869 1.31477,0.65738 1.99207,0.99604c-0.01027,-0.48277 -0.02054,-0.96553 -0.03113,-1.46293c0.03113,-1.52518 0.03113,-1.52518 0.52914,-2.0232z" fill="#4e5150"/><path d="M94.12552,57.89682c0.32869,0 0.65738,0 0.99604,0c0.16435,0.32869 0.32869,0.65738 0.49802,0.99604c0.98552,0.36203 1.98189,0.69631 2.98811,0.99604c0,0.16435 0,0.32869 0,0.49802c-2.86361,0.06225 -2.86361,0.06225 -3.98415,-0.49802c-1.47912,-0.16435 -2.95823,-0.32869 -4.48217,-0.49802c0,14.46246 0,28.92492 0,43.82564c-0.16435,0 -0.32869,0 -0.49802,0c0,-13.47638 0,-26.95277 0,-40.83753c-0.98608,0.49304 -0.98608,0.49304 -1.99207,0.99604c0.32869,-1.47912 0.65738,-2.95823 0.99604,-4.48217c1.92107,-0.17022 1.92107,-0.17022 3.84213,-0.34044c1.11893,-0.03828 1.11893,-0.03828 1.63607,-0.6556z" fill="#dbdcdb"/><path d="M75.69883,69.84927c1.47912,0.24652 1.47912,0.24652 2.98811,0.49802c0.16435,5.25908 0.32869,10.51815 0.49802,15.9366c0.16435,0 0.32869,0 0.49802,0c0.01358,2.50045 0.02317,5.00093 0.03113,7.50141c0.00578,1.39245 0.01155,2.7849 0.01751,4.21954c-0.04518,3.91564 -0.24603,7.78251 -0.54666,11.68593c-0.16435,0 -0.32869,0 -0.49802,0c-0.42132,-8.36269 -0.63522,-16.7158 -0.77815,-25.08769c-0.04173,-2.39714 -0.08346,-4.79429 -0.12645,-7.26407c-0.03017,-1.81423 -0.06034,-3.62845 -0.09143,-5.49766c-0.65738,0 -1.31477,0 -1.99207,0c0,-0.65738 0,-1.31477 0,-1.99207z" fill="#909090"/><path d="M17.92867,292.9616c0,0.32869 0,0.65738 0,0.99604c-0.98608,0.49304 -0.98608,0.49304 -1.99207,0.99604c-0.67645,0.81994 -1.34093,1.64992 -1.99207,2.49009c-0.49304,0.32869 -0.98608,0.65738 -1.49406,0.99604c16.51679,0.24652 16.51679,0.24652 33.36725,0.49802c0,0.16435 0,0.32869 0,0.49802c-11.52741,0.45333 -22.83997,0.51378 -34.36328,0c0.68122,-2.72489 1.80141,-3.97254 4.0464,-5.63384c1.4318,-0.84041 1.4318,-0.84041 2.42784,-0.84041z" fill="#998f9e"/><path d="M45.81771,84.78982c0.16435,0.82173 0.32869,1.64346 0.49802,2.49009c0.65738,0 1.31477,0 1.99207,0c-0.32869,0.65738 -0.65738,1.31477 -0.99604,1.99207c-1.15042,0 -2.30085,0 -3.48613,0c0.16435,0.98608 0.32869,1.97215 0.49802,2.98811c-0.49304,0 -0.98608,0 -1.49406,0c0,-0.32869 0,-0.65738 0,-0.99604c-0.32869,0 -0.65738,0 -0.99604,0c-0.58362,-3.74487 -0.58362,-3.74487 -0.49802,-4.98019c1.99207,-1.49406 1.99207,-1.49406 4.48217,-1.49406z" fill="#4f5150"/><path d="M63.43512,53.85042c0.62015,0.00899 1.2403,0.01797 1.87924,0.02724c0.70296,0.01733 0.70296,0.01733 1.42013,0.03502c0,0.16435 0,0.32869 0,0.49802c-0.39803,0.00706 -0.79605,0.01412 -1.20614,0.0214c-7.47833,0.32476 -13.54251,3.53093 -18.99474,8.60055c-1.54179,2.33245 -2.14794,4.59798 -2.70798,7.31465c-0.16435,0 -0.32869,0 -0.49802,0c-0.14534,-3.41558 -0.07815,-6.73298 2.24108,-9.4001c0.6163,-0.52385 0.6163,-0.52385 1.24505,-1.05829c0.32869,-0.49304 0.65738,-0.98608 0.99604,-1.49406c0.49304,0.32869 0.98608,0.65738 1.49406,0.99604c0,-0.32869 0,-0.65738 0,-0.99604c1.18181,-0.56234 2.36485,-1.12211 3.54838,-1.68081c0.65867,-0.312 1.31734,-0.624 1.99596,-0.94546c3.02498,-1.35055 5.25483,-1.98102 8.58693,-1.91815z" fill="#e3e4e4"/><path d="M76.69486,119.65113c1.7384,2.31787 1.63657,2.73692 1.40068,5.50933c-0.08667,1.10934 -0.08667,1.10934 -0.17508,2.24108c-0.07575,0.89363 -0.15151,1.78726 -0.22956,2.70798c-0.17759,2.41738 -0.35392,4.83484 -0.52914,7.2524c-0.155,2.06475 -0.31041,4.12947 -0.46689,6.19411c-0.73956,0.24652 -0.73956,0.24652 -1.49406,0.49802c0,-4.94459 0.36658,-9.79268 0.74703,-14.72267c0.13867,-1.80845 0.27733,-3.6169 0.4202,-5.48015c0.10785,-1.38603 0.2157,-2.77206 0.32682,-4.20008z" fill="#5c5c5c"/><path d="M61.75431,68.35521c2.21867,0.49304 2.21867,0.49304 4.48217,0.99604c-0.16435,0.49304 -0.32869,0.98608 -0.49802,1.49406c-0.82173,-0.16435 -1.64346,-0.32869 -2.49009,-0.49802c-0.65738,1.47912 -1.31477,2.95823 -1.99207,4.48217c-1.49406,0 -1.49406,0 -2.86361,-1.12054c-0.36978,-0.45195 -0.73956,-0.9039 -1.12054,-1.36955c0.16435,-0.65738 0.32869,-1.31477 0.49802,-1.99207c0.32869,0 0.65738,0 0.99604,0c0.16435,-0.49304 0.32869,-0.98608 0.49802,-1.49406c0.65738,0.16435 1.31477,0.32869 1.99207,0.49802c0.16435,-0.32869 0.32869,-0.65738 0.49802,-0.99604z" fill="#4d504f"/><path d="M96.11759,253.12011c0.16435,0 0.32869,0 0.49802,0c0.01335,4.13977 0.02306,8.27955 0.03113,12.41934c0.00578,2.30534 0.01155,4.61068 0.01751,6.98588c-0.04864,5.49571 -0.04864,5.49571 -0.54666,5.99373c-0.19973,1.75093 -0.37149,3.5051 -0.52914,5.26032c-0.08795,0.96618 -0.1759,1.93235 -0.26652,2.92781c-0.06612,0.74918 -0.13224,1.49837 -0.20037,2.27026c1.15042,0.16435 2.30085,0.32869 3.48613,0.49802c0,0.16435 0,0.32869 0,0.49802c-1.31477,0.16435 -2.62954,0.32869 -3.98415,0.49802c-0.65426,-2.61703 -0.32759,-4.77429 -0.09338,-7.47028c0.79248,-9.94648 1.16556,-19.91333 1.58743,-29.88112z" fill="#c5c4c6"/><path d="M55.77808,72.83738c0.65738,0.16435 1.31477,0.32869 1.99207,0.49802c0.16435,0.49304 0.32869,0.98608 0.49802,1.49406c-0.41087,0.56494 -0.82173,1.12988 -1.24505,1.71194c-0.41087,0.58548 -0.82173,1.17097 -1.24505,1.77419c0.16435,0.65738 0.32869,1.31477 0.49802,1.99207c-1.57112,-0.17457 -2.40212,-0.43088 -3.67289,-1.40068c-0.40059,-0.53926 -0.40059,-0.53926 -0.80928,-1.08942c0.65687,-2.62748 1.82959,-3.40991 3.98415,-4.98019z" fill="#4f5151"/><path d="M63.74638,14.07118c-0.49304,0.32869 -0.98608,0.65738 -1.49406,0.99604c-2.2611,1.62517 -3.79907,2.74134 -5.4782,4.98019c-0.59849,5.10478 0.20806,10.00981 1.49406,14.94056c0.16435,0.65738 0.32869,1.31477 0.49802,1.99207c-0.32869,0 -0.65738,0 -0.99604,0c-2.02289,-5.0965 -4.07648,-11.58529 -2.45897,-17.02601c1.97398,-3.88429 3.89703,-6.08912 8.43519,-5.88284z" fill="#d5d4d5"/><path d="M17.43065,41.46221c0.49304,0 0.98608,0 1.49406,0c0,0.32869 0,0.65738 0,0.99604c-0.49304,0.16435 -0.98608,0.32869 -1.49406,0.49802c0,0.82173 0,1.64346 0,2.49009c0,1.99207 0,1.99207 -1.49406,3.98415c-0.32869,0 -0.65738,0 -0.99604,0c-0.13353,-0.56494 -0.26706,-1.12988 -0.40464,-1.71194c-0.29274,-0.87823 -0.29274,-0.87823 -0.5914,-1.77419c-0.49304,-0.16435 -0.98608,-0.32869 -1.49406,-0.49802c0,0.32869 0,0.65738 0,0.99604c-0.32869,0 -0.65738,0 -0.99604,0c-0.16435,-0.82173 -0.32869,-1.64346 -0.49802,-2.49009c0.82173,-0.32869 1.64346,-0.65738 2.49009,-0.99604c0.16435,0.32869 0.32869,0.65738 0.49802,0.99604c0.49304,0.16435 0.98608,0.32869 1.49406,0.49802c0.16435,-0.32869 0.32869,-0.65738 0.49802,-0.99604c-0.65738,0 -1.31477,0 -1.99207,0c0,-0.49304 0,-0.98608 0,-1.49406c0.58548,0.15407 0.58548,0.15407 1.18279,0.31126c0.43141,0.06163 0.86282,0.12326 1.3073,0.18676c0.32869,-0.32869 0.65738,-0.65738 0.99604,-0.99604z" fill="#faf5f4"/><path d="M33.36725,48.43447c1.46293,0.40464 1.46293,0.40464 2.98811,0.99604c0.16435,0.49304 0.32869,0.98608 0.49802,1.49406c-1.18279,-0.1245 -1.18279,-0.1245 -2.49009,-0.49802c-0.32869,-0.65738 -0.65738,-1.31477 -0.99604,-1.99207z" fill="#fcfefe"/><path d="M0.49802,50.42654c0.65738,0 1.31477,0 1.99207,0c-0.16435,0.49304 -0.32869,0.98608 -0.49802,1.49406c-0.65738,0 -1.31477,0 -1.99207,0c0.16435,-0.49304 0.32869,-0.98608 0.49802,-1.49406z" fill="#f9fefe"/><path d="M93.6275,45.94437c0.32869,0 0.65738,0 0.99604,0c0,0.49304 0,0.98608 0,1.49406c-0.32869,0 -0.65738,0 -0.99604,0c0,-0.49304 0,-0.98608 0,-1.49406z" fill="#f7fdfc"/><path d="M20.41876,62.87701c0.49802,1.99207 0.49802,1.99207 0.49802,1.99207z" fill="#fcffff"/><path d="M121.51654,54.41069c0.32869,0 0.65738,0 0.99604,0c0,0.32869 0,0.65738 0,0.99604c-0.32869,0 -0.65738,0 -0.99604,0c0,-0.32869 0,-0.65738 0,-0.99604z" fill="#fafefb"/><path d="M1.99207,53.41465c0.32869,0 0.65738,0 0.99604,0c0,0.32869 0,0.65738 0,0.99604c-0.32869,0 -0.65738,0 -0.99604,0c0,-0.32869 0,-0.65738 0,-0.99604z" fill="#fbffff"/><path d="M131.47691,48.43447c0.32869,0 0.65738,0 0.99604,0c0,0.32869 0,0.65738 0,0.99604c-0.32869,0 -0.65738,0 -0.99604,0c0,-0.32869 0,-0.65738 0,-0.99604z" fill="#fafffd"/><path d="M133.46898,47.43843c1.49406,0.49802 1.49406,0.49802 1.49406,0.49802z" fill="#f8fffb"/><path d="" fill="#fbf9fb"/></g></svg>